<?xml version="1.0" encoding="utf-8"?>
<!-- Generator: Adobe Illustrator 26.0.3, SVG Export Plug-In . SVG Version: 6.00 Build 0)  -->
<svg version="1.1" id="Layer_1" xmlns="http://www.w3.org/2000/svg" xmlns:xlink="http://www.w3.org/1999/xlink" x="0px" y="0px"
	 viewBox="0 0 9075 1658" style="enable-background:new 0 0 9075 1658;" xml:space="preserve">
<style type="text/css">
	.st0{fill:#A00D0D;}
</style>
<g transform="translate(0.000000,1658.000000) scale(0.100000,-0.100000)">
	<path class="st0" d="M89555,16489c-545-25-2425-128-3640-199c-2243-131-4097-227-4983-260c-161-6-413-20-560-30
		c-339-26-873-54-1492-80c-841-35-1004-51-1187-119c-123-45-163-48-253-17c-156,55-387,57-635,6c-185-38-300-82-393-152
		c-29-22-60-37-67-34c-13,5-26,40-55,154l-11,43l-92-6c-845-55-2475-127-3852-170c-1508-47-1999-86-2441-190c-56-13-198-52-315-85
		c-117-34-220-62-229-63c-8,0-57,30-109,66c-118,84-170,101-295,95c-162-8-316-74-698-299c-133-78-247-142-253-143
		c-7,0-65,47-128,106s-127,113-142,120c-25,11-29,10-49-16c-42-56-86-98-98-94c-8,3-13,21-13,44c0,45-16,71-69,113
		c-59,47-138,72-246,78c-157,9-1309-61-2694-163l-619-45l-116-122c-64-67-143-150-175-185c-33-34-60-61-61-60c-2,2,4,55,13,118
		c24,178,23,182-18,202c-48,25-169,23-722-7c-551-30-1254-65-2133-105c-2463-113-3767-183-4030-216c-200-25-216-39-351-304
		c-94-186-134-231-221-255c-153-42-251-77-278-99c-58-49-80-28-109,103c-23,102-21,103,136,112c162,8,226,36,289,122
		c37,51,38,84,4,93c-33,8-79-1-193-37c-51-16-110-29-131-29c-40,0-82,25-101,60c-14,26,6,36,131,61c121,24,218,61,250,95
		c39,41,16,46-191,40c-212-6-1130-40-1515-56c-743-31-1209-90-1662-212c-151-40-153-41-196-24c-23,8-63,33-89,55
		c-79,65-118,69-383,40c-225-24-354-30-860-39c-1009-18-2367-78-2725-121c-179-21-413-74-725-164c-88-25-191-49-230-51l-70-6l-50,42
		c-137,116-299,147-465,91c-112-38-391-184-797-417l-33-19l-92,91c-180,176-196,183-224,107c-21-60-56-98-79-89c-13,5-16,14-12,39
		c11,72-68,152-186,189c-77,24-131,18-219-24c-89-42-166-46-418-18c-170,19-238,22-395,17c-104-3-235-13-290-21
		c-219-32-1004-86-2065-141c-1491-77-2516-133-2900-160c-426-29-550-34-850-33c-302,1-442-4-1685-63c-2925-136-7976-410-9220-500
		c-453-32-503-46-593-161c-141-181-177-216-207-204c-20,7-20,98,0,226c8,52,15,97,15,100s-35,2-78-2c-298-29-953-66-2212-123
		c-2591-118-2873-133-2985-160c-93-22-376-40-1030-65c-645-25-898-49-1095-107c-220-65-241-66-340-23c-110,48-183,63-280,57
		c-204-12-561-115-707-203c-31-19-62-34-67-34c-6,1-27,29-47,63c-28,50-45,67-84,86l-48,25l-281-13c-758-32-2979-154-3311-181
		c-66-5-203-17-305-25c-883-71-6125-342-7455-385c-1865-60-2749-136-3875-330c-392-67-500-83-554-78l-38,3l41,55c44,59,50,77,26,87
		c-23,8-1015-27-1430-52c-470-28-505-31-505-52c0-9,18-57,39-108c47-108,68-208,76-362c6-119,20-180,46-196c28-17,70,2,118,55
		c99,109,129,138,146,138c15,0,16-8,10-68c-5-51-3-78,10-112c29-80,30-89,4-94c-13-3-55-7-94-9c-82-5-237-53-313-98
		c-65-37-66-27,25-226l67-143h51c77,0,489,28,665,46c220,21,440,50,702,89c278,43,348,45,389,11c41-35,112-41,324-27
		c477,30,1014,53,1795,76c1134,34,1436,73,1884,244c151,58,196,70,196,54c0-5-7-44-15-87c-8-44-14-81-11-83c2-2,127,3,277,12
		c151,8,1449,74,2884,145c2605,130,4713,239,5895,305c639,36,716,41,1185,75c851,62,2957,172,4995,260c1368,59,1805,85,1944,113
		c57,11,61,14,84,59c25,49,132,168,152,168s80-73,108-132c31-65,45-71,132-58c207,33,3918,217,4925,245c343,10,1533,75,3085,170
		c2123,130,3271,186,4980,245c685,23,1108,43,1530,71c197,13,410,20,601,19c163,0,428,7,590,15c340,17,1744,102,1835,111l62,5
		l89,137c50,75,109,156,132,178c22,23,41,49,41,57c0,9-16,37-36,62c-25,33-32,51-25,58c23,23,431-24,467-54c21-17,17-86-11-180
		c-25-82-25-84-7-108c45-61,264-88,627-77c524,15,927,67,993,128c34,32,29,93-18,227c-22,63-40,118-40,123c0,12,178,10,200-2
		c23-12,37-79,46-223c4-59,10-109,14-112c3-2,89-12,191-21c469-42,1440,22,1567,104c19,12,4,44-79,174c-80,124-119,210-119,263
		c0,45,11,45,110-5c138-69,290-99,335-66c27,20,13,46-81,146c-91,97-90,98,39,123c112,22,379,57,436,57c58,0,71-12,71-67
		c0-60,19-143,41-179c21-34,56-54,97-54c56,0,59-10,29-112c-30-104-33-146-14-171c14-20,112-40,267-56c170-17,610-44,616-38
		c3,3,11,43,18,88c16,107,26,125,79,140c48,14,258,18,300,6c34-9,33-36-1-53c-41-21-47-32-28-53c22-24,89-41,166-41
		c138,0,196,68,169,198c-6,31-14,74-16,95l-5,37h38c22,0,68-5,103-10c81-14,143-4,178,27c95,83,403,218,403,176c0-17-84-91-210-184
		c-69-51-177-135-240-187l-115-95l390,7c1215,21,1890,54,2685,131c332,32,526,33,653,3c81-20,117-22,311-21c138,1,222,5,229,12
		c5,5,14,81,18,168c14,289,28,358,80,418c17,19,29,41,26,49c-3,7-35,21-71,31s-66,21-66,25c0,16,149,63,176,56c36-9,124-94,195-189
		c98-130,72-141-83-36c-31,22-61,39-66,39c-8,0-36-256-37-342c0-93,64-123,290-138c224-15,595,0,2060,80c1621,89,4105,220,4470,235
		c468,19,662,31,815,50c143,18,200,37,229,75c25,35,37,37,64,13c49-45,646-27,3157,92c2454,117,2980,155,2980,215c0,6,9,19,20,30
		c39,39,135,21,151-29c20-60,706-15,786,51c28,23,35,96,34,333c0,132,3,246,8,253c5,8,39,20,77,28c100,21,358,53,365,46
		c3-4,14-54,23-112c32-192,45-214,121-203c54,7,57,1,64-156c6-117,7-125,31-142c37-28,109-37,375-49c132-5,281-13,330-16l91-6l18,78
		c26,109,48,150,89,163c51,17,257,18,296,1c28-11,32-17,29-44c-2-25-9-33-35-41c-39-11-41-19-10-39c34-22,106-29,177-16
		c125,23,146,46,161,181c6,52,18,104,26,117c14,22,18,23,101,17c104-8,148,4,259,72c113,68,214,113,271,120c77,9,68-11-44-92
		c-266-193-334-246-396-304c-83-77-87-95-20-87c97,12,791,36,1602,56c977,24,2122,63,2340,81c260,21,290,35,290,134c0,46,9,65,36,75
		c34,13,85-5,156-57c91-67,118-73,357-73c215,0,456,11,1381,60c965,52,3141,157,4035,195c784,33,1336,64,1705,95
		c342,29,770,56,1315,85c904,47,944,53,1069,150c78,60,150,100,215,119c60,18,128,21,150,7c18-12-6-25-96-52c-81-25-161-66-173-90
		c-18-33,14-43,177-51c85-5,247-7,360-6l205,3l110,170c163,252,192,283,219,234c8-16,8-33-1-68c-13-51-30-82-103-185l-49-69l708,6
		c390,3,833,11,984,17c1005,38,1691,80,2190,136c273,30,783,102,817,115c24,9,25,11,18,87c-3,42-18,172-31,287
		c-44,375-54,488-54,633v142l-177-2C89805,16498,89649,16493,89555,16489z M83313,15970c14-11,31-37,38-57c16-49,6-149-19-200
		c-25-47-77-95-101-91c-9,2-27,25-40,51c-20,41-25,69-29,168c-3,87-1,123,8,134C83189,15998,83281,15995,83313,15970z M86430,15872
		c86-33,215-98,268-134c85-58,37-78-131-53c-149,22-291,59-343,90c-54,32-59,63-14,95C86273,15915,86319,15916,86430,15872z
		 M74408,15374c3-34-28-70-53-61c-18,8-20,68-3,85C74375,15421,74405,15408,74408,15374z M79512,15289c18-24,18-29,5-60
		c-29-69-118-134-199-145c-49-7-98,9-98,30c0,24,56,81,142,147C79451,15328,79480,15333,79512,15289z M69025,15261
		c44-20,115-92,115-117c0-9-29-28-77-50c-133-61-168-59-213,13c-17,26-30,57-30,69C68820,15263,68925,15307,69025,15261z
		 M80201,15083c14-36,4-94-18-111c-13-10-56-12-168-10c-178,4-188,0-232-89c-23-47-33-58-53-58c-24,0-25,2-25,77c0,62,4,82,21,105
		c20,26,27,28,115,34c104,7,146,17,234,53C80157,15118,80188,15118,80201,15083z M68859,15015c18-18,7-43-24-55c-14-5-25-14-25-19
		s23-28,51-52c44-36,48-44,34-52c-24-13-97-2-143,22c-43,22-112,93-112,115c0,20,27,45,53,51c12,2,31,6,42,9
		C68767,15041,68844,15029,68859,15015z M70893,15030c37-6,85-19,106-29c47-24,102-86,95-106c-7-17-58-37-184-70
		c-136-36-155-34-205,18c-49,52-79,110-71,142C70646,15031,70754,15050,70893,15030z M69254,14895c-2-50-32-145-57-180
		c-18-24-55-14-102,27c-55,48-60,62-36,111c29,59,91,99,151,95l45-3L69254,14895z M76134,14762c72-40,78-54,36-97
		c-75-78-279-112-288-48c-5,31,156,171,198,172C76083,14789,76107,14777,76134,14762z M64633,14574c18-9,53-34,79-56
		c60-50,157-108,180-108c26,0,22-15-8-39c-50-39-166-25-260,31c-65,39-87,75-78,125C64558,14593,64576,14603,64633,14574z
		 M55479,14426c12-11,21-31,21-44c0-18,15-40,50-72c28-25,50-51,50-58c0-35-143-97-252-109c-81-8-103,0-121,46c-40,99-59,244-34,255
		c6,3,69,4,138,3C55440,14445,55461,14442,55479,14426z M52902,14383c29-25,42-83,42-188c1-121-8-127-88-66c-104,78-138,212-67,256
		C52831,14411,52870,14411,52902,14383z M57310,14355c12-15,12-22-6-150c-7-50,16-84,80-113c56-27,63-38,34-53c-49-26-214-69-265-69
		c-49,0-57,4-98,41c-29,27-45,50-45,65c0,22,4,24,44,24c61,0,84,22,98,95c20,107,29,136,49,156C57224,14374,57292,14377,57310,14355
		z M64035,14256c44-9,122-15,173-16c108,0,161-20,187-71c18-35,17-120-2-126c-20-7-61,41-73,86c-17,64-32,67-178,31
		c-147-36-239-41-277-16c-22,14-25,24-25,70c0,29,3,56,8,60C63856,14283,63922,14277,64035,14256z M53780,14152c44-36-3-77-129-113
		c-82-24-169-25-178-4c-12,34,76,90,187,119C53734,14174,53754,14173,53780,14152z M47213,14091c93-94,92-100-42-171
		c-123-66-166-108-157-153c8-40-8-57-56-57c-75,0-148,62-148,125c0,50,24,59,132,50c75-6,89-4,94,9c8,22-12,69-42,97
		c-33,31-30,63,7,96c35,32,107,73,128,73C47137,14160,47175,14129,47213,14091z M45533,14013c52-28,277-237,277-257
		c0-18-161-116-189-116c-20,0-53,28-146,122c-125,128-163,186-151,232C45339,14055,45437,14064,45533,14013z M49104,13886
		c20-8,58-36,86-62c53-49,64-86,33-103c-29-15-265-74-301-75c-31-1-34,2-51,52c-12,33-34,70-60,96c-22,23-41,45-41,49
		c0,11,82,46,133,57C48958,13912,49059,13905,49104,13886z M53653,13889c47-24,119-85,139-117c40-65-6-111-99-97
		c-110,16-148,53-147,141c1,30,7,60,14,69C53575,13903,53622,13905,53653,13889z M47428,13801c4-24-40-176-64-223c-8-16-21-28-30-28
		c-18,0-164,97-164,109c0,15,128,130,168,151C47387,13836,47424,13833,47428,13801z M40424,13720c32-5,118-12,190-16s139-11,149-16
		c45-23-5-71-148-139c-118-56-238-91-297-87c-40,3-43,5-44,31c-1,33-17,47-57,47c-97,0-117,86-35,149
		C40233,13727,40316,13738,40424,13720z M53557,13606c13-13-20-24-121-40c-160-24-315-38-396-34l-75,3l55,27c52,24,142,43,250,52
		C53339,13620,53550,13614,53557,13606z M45330,13585c0-53-116-84-194-51c-22,9-36,19-32,23c8,8,174,51,204,52
		C45325,13610,45330,13605,45330,13585z M43226,13471c77-35,174-141,160-176c-7-20-87-20-157,1c-69,20-167,72-180,95
		c-11,21,4,68,28,87C43102,13496,43179,13492,43226,13471z M42694,13447c18-13,18-15-1-58c-48-108-229-198-318-157
		c-32,14-32,25,5,75C42456,13410,42635,13490,42694,13447z M40000,13239c73-16,103-44,104-100c1-38-2-44-21-47c-13-2-81,14-153,35
		c-117,34-129,40-124,58C39823,13241,39896,13261,40000,13239z M43028,13145c74-18,122-40,122-58c0-15-86-100-117-116
		c-30-15-88-14-207,5c-128,20-166,35-166,66C42660,13136,42846,13188,43028,13145z M27776,12584c122-73,180-124,171-148
		c-5-13-22-16-79-16c-88,0-157,28-206,84c-28,32-32,44-32,91C27630,12668,27639,12667,27776,12584z M27038,12335c35-9,133-20,217-25
		c175-10,207-20,225-75c13-40,5-91-18-117c-29-33-42-22-42,35c0,75-14,90-81,88c-63-1-280-36-345-56c-62-18-74-5-74,84
		c0,69,12,95,40,87C26968,12353,27004,12344,27038,12335z M21064,12244c20-20,20-66,0-105c-19-39-121-105-180-117
		c-63-14-116,1-112,31c6,40,217,205,265,207C21043,12260,21056,12253,21064,12244z M12567,11775c32-25,84-64,115-88
		c32-23,58-45,58-48s-29-9-66-13c-92-9-163-39-253-106l-78-58l-6,83c-3,46-12,111-19,145c-15,75-8,89,58,112
		C12462,11832,12500,11826,12567,11775z M2702,11700c4-19,10-53,14-74c4-27,16-49,39-70c18-17,36-42,40-56c9-36-29-87-90-121
		c-65-37-238-83-283-75c-63,10-162,110-162,163c0,50,85,114,304,228C2668,11749,2692,11750,2702,11700z M17705,11696
		c28-12,35-20,35-44c0-33-38-74-90-95c-44-18-167-40-198-36c-23,4-23,5,16,65c42,65,85,98,148,113
		C17670,11712,17667,11712,17705,11696z M4915,11556c77-19,148-49,174-75c16-16,21-34,21-79c0-32,5-63,12-70s43-12,90-12
		c93,0,107-14,62-61c-39-41-111-73-231-103c-55-14-108-28-116-32c-27-10-318,332-333,393c-8,30,4,42,48,54
		C4685,11582,4839,11573,4915,11556z M1914,11276c65-27,56-108-21-176c-25-22-64-45-86-51c-60-16-68,0-65,125c3,97,4,100,28,107
		C1813,11293,1879,11291,1914,11276z"/>
	<path class="st0" d="M84643,14519c-142-13-166-40-191-210c-24-160-149-309-259-309c-30,0-43,4-43,14c0,8,30,52,66,98
		c129,162,150,268,60,298c-94,31-593-99-921-239c-213-92-394-223-643-466c-367-357-590-667-806-1117c-316-659-456-1413-425-2288
		c31-873,188-1559,499-2181c152-302,315-550,470-712c354-371,868-710,1122-742c65-8,83-23,91-80c8-53,33-83,97-122
		c190-115,605-196,1250-245c100-8,359-13,655-13c420,0,507,3,607,18c244,37,427,98,558,187c81,55,221,195,240,239c12,31,12,35-5,47
		c-10,8-41,17-68,20c-75,10-91,31-82,108c8,74,39,134,75,144c71,20,358,1,675-44c156-23,188-25,247-15c137,23,230,83,401,261
		c527,545,868,1286,996,2165c93,637,91,1459-5,2045c-50,306-193,814-264,938c-33,57-82,97-175,144c-82,41-125,75-125,99
		c0,11,18,50,40,86c24,40,40,79,40,98c0,48-121,250-264,440c-236,314-560,609-888,808c-434,263-1029,462-1518,507
		C85858,14526,84852,14540,84643,14519z M85247,14211c147-83,35-221-179-221c-112,0-148,29-148,117c0,104,46,136,190,131
		C85187,14235,85213,14230,85247,14211z M83196,13255c16-25,16-27-7-51c-38-41-176-104-242-111c-68-7-72,3-28,64
		c56,77,134,122,213,123C83172,13280,83182,13276,83196,13255z M85655,13230c250-21,409-64,625-171c240-119,426-256,625-460
		c141-145,211-236,318-414c43-71,95-147,115-168c33-34,41-38,72-33c109,18,116,18,127,5c6-9,13-98,16-234c5-216,24-431,73-830
		c94-773,114-1038,96-1273c-22-266-17-301,51-337c20-11,37-26,37-32c0-7-37-37-83-66c-210-136-305-296-327-551
		c-15-181-21-192-164-310c-186-154-365-348-407-442c-41-92-89-124-183-124c-169,0-309-75-390-209c-67-110-95-120-316-121
		c-564,0-1272,197-2016,561c-224,109-233,117-232,226c1,57-6,102-26,168c-55,181-151,380-199,409c-20,12-86-8-397-126
		c-241-91-408-148-437-148c-13,0-23,6-23,14c0,26,91,115,171,166c147,94,246,130,391,140c203,14,209,37,108,467
		c-83,352-111,555-130,933c-26,516,26,970,161,1387c218,673,581,1128,1104,1384c235,115,456,172,745,192
		C85266,13241,85544,13239,85655,13230z M88139,12479c35-5,77-17,93-25c28-14,29-17,14-33c-23-25-138-77-215-97
		c-94-24-280-16-337,13c-75,40-64,77,32,113C87825,12486,88012,12500,88139,12479z M81874,10725c101-63,166-113,166-126
		c0-17-59-9-182,26c-183,53-215,79-164,130C81734,10795,81773,10789,81874,10725z M82683,10425c36-30,71-64,77-76c17-30,5-64-27-79
		s-214-26-267-16c-49,9-47,33,11,115C82571,10504,82583,10507,82683,10425z M87841,7250c24-23,30-37,27-62c-3-30-7-33-38-36
		c-19-2-86,4-150,13c-180,26-186,29-122,60c66,32,146,54,200,54C87804,7280,87816,7276,87841,7250z"/>
	<path class="st0" d="M67930,14403c-30-11-50-37-50-64c0-22,9-34,38-52c60-38,170-78,205-75c31,3,32,4,35,59c3,64-19,102-74,125
		C68051,14410,67959,14414,67930,14403z"/>
	<path class="st0" d="M78450,14144c-30-3-167-15-305-29c-137-13-349-31-470-40c-121-8-287-20-369-26c-248-17-297-32-307-91
		c-11-71-71-139-165-187c-49-26-64-21-99,29c-53,77-76,71-350-85c-120-69-227-125-237-125c-14,0-18,8-18,33c0,42-28,86-80,128
		c-89,72-111,95-124,134c-11,31-21,43-47,52c-65,23-546,12-994-23c-493-38-780-107-904-219c-113-102-171-388-126-622
		c19-99,81-229,139-291c136-146,405-181,1371-182c442,0,888-13,984-29c31-5,60-16,67-25c35-49,63-428,109-1511
		c62-1434,81-1675,176-2165c27-140,55-307,61-371c11-113,11-119-21-280c-50-259-53-516-6-649c19-55,76-139,159-235l69-80l-74-5
		c-133-10-169-60-177-244c-9-215,33-436,117-611c129-269,332-428,667-524c127-37,208-40,309-11c243,68,522,307,409,350
		c-14,6-42,10-63,10c-63,0-220-45-310-89c-47-23-94-41-104-41c-18,0-19,4-11,43c15,80,10,108-24,138c-18,16-32,31-32,34
		c0,9,220,6,410-6c277-18,306-9,349,105c47,126,35,330-29,491c-34,86-38,143-12,182c36,57,10,309-38,357c-19,19-20,19-120-4
		c-104-23-239-25-261-3c-32,32,68,88,279,158l143,47l-5,62c-48,503-216,3766-243,4718l-6,237l29,11c34,13,138,38,364,86
		c365,79,406,106,459,304c25,94,45,113,110,104c97-14,551-149,551-164c0-5-26-23-57-41c-76-42-103-67-103-96c0-53,156-75,379-54
		c201,20,292,50,415,137c40,28,57,34,100,34c67,0,104,23,162,102c105,143,192,368,201,520c5,81,4,90-25,151c-53,114-166,207-341,283
		c-122,53-268,77-631,105C79610,14141,78563,14152,78450,14144z M78199,13986c16-19-7-85-79-223c-129-247-233-373-359-436
		c-93-47-168-50-114-6c9,8,22,29,30,46c11,28,11,38-3,75c-44,114-25,193,72,297c80,86,254,201,367,241
		C78176,14003,78184,14004,78199,13986z M79991,13524c42-51-174-234-277-234c-48,0-84,16-84,39c0,53,238,201,336,210
		C79972,13540,79983,13533,79991,13524z M77190,13498c28-9,46-21,48-32c6-28-43-91-85-111c-81-39-193-16-193,40c0,30-50,65-92,65
		c-32,0-58,9-58,20c0,5,8,16,17,25c15,15,35,17,167,12C77081,13514,77164,13506,77190,13498z M75978,13105c46-20,77-48,92-86
		c17-39,0-59-50-59c-53,0-133-30-263-99c-111-59-177-77-177-48c0,43,116,197,187,248C75849,13119,75912,13132,75978,13105z
		 M80171,13020c54-30-58-65-182-58c-56,3-85,10-97,21c-22,23-7,36,54,47C80006,13041,80143,13035,80171,13020z M77187,12631
		c83-40,98-63,89-149c-3-37-9-77-12-89c-12-44,29-66,196-106c225-54,280-84,280-151c0-37-22-34-137,18c-126,56-222,86-303,93
		c-69,6-103,21-119,52c-6,10-22,73-36,139c-14,67-32,140-40,163C77081,12669,77095,12674,77187,12631z M77333,11814
		c226-92,259-120,204-172c-56-52-129-63-249-36c-103,23-118,42-118,141c0,43,3,88,6,101C77184,11875,77182,11875,77333,11814z
		 M77297,11204c111-28,264-90,243-98c-70-25-174-49-215-50l-50-1v43c0,48-23,75-101,119l-39,22l35-5
		C77189,11231,77247,11217,77297,11204z M77505,10775c132-49,270-115,323-154c88-65,42-111-111-111c-150,0-265,34-341,101
		c-69,61-97,129-76,184c10,26,13,27,58,23C77384,10815,77450,10796,77505,10775z M77299,8829c69-46,132-114,162-177
		c26-53,20-92-15-92c-31,0-244,48-267,61c-34,18-49,52-49,111C77130,8872,77186,8904,77299,8829z M77897,8268c16-16,16-19-1-37
		c-26-29-98-50-191-57c-68-6-83-4-94,10c-21,25,14,67,75,89C77750,8295,77872,8293,77897,8268z M77563,7855c46-20-3-51-128-81
		c-79-19-145-49-145-66c0-18-93-2-155,27c-50,24-56,30-53,53c4,34,51,59,134,72C77283,7870,77536,7867,77563,7855z"/>
	<path class="st0" d="M71485,13724c-329-47-462-76-501-106c-23-19-24-22-10-36c8-8,34-25,58-37s44-29,46-38c5-27-56-47-146-47
		c-106,0-151,23-212,110c-26,36-53,66-61,68c-8,1-36-18-61-43c-42-41-50-45-94-45c-27,0-112,12-189,26c-100,18-191,27-321,31
		c-214,7-293-6-449-69c-122-50-209-59-330-34c-239,48-999,57-1347,15c-177-21-417-119-514-210c-122-116-258-336-252-408
		c3-32,7-37,43-49c22-8,100-18,173-22c156-10,234-30,273-70c36-35,36-54,3-85c-35-32-97-41-154-20c-110,39-309,57-345,31
		c-18-13-18-14,4-42c27-34,91-89,179-151c35-25,62-49,60-53s-69-63-150-131c-140-117-148-125-148-159c0-20,18-272,40-560
		c62-821,84-1202,100-1710c9-296,15-347,46-381c25-28,123-61,159-55c34,7,96,67,193,187c152,190,177,112,47-148
		c-96-191-110-203-253-214c-80-6-99-10-113-28c-23-28-32-103-25-193c32-380,70-754,78-759c5-3,61-14,124-24c85-13,139-16,212-11
		c243,17,654,134,716,204c14,17,19,40,22,101c2,66,8,90,31,133c37,69,85,102,136,94c43-7,101-34,163-77c66-45,88-47,124-7
		c17,18,38,57,47,87c13,46,13,65,3,128c-12,79-4,126,26,137c98,38,1987,180,2562,193c155,3,282,7,282,7c0,1-7,26-15,56
		c-21,80-19,165,5,216c24,49,91,114,147,142c83,42,184,75,194,65c6-6-11-41-52-104c-80-121-122-218-123-286c-1-84,6-87,192-91
		s306,13,461,64c302,100,394,218,395,504c0,196-37,295-153,410c-59,59-98,87-176,127c-166,85-367,139-604,164c-145,15-548,6-690-15
		c-454-69-1003-225-1041-296c-17-32,22-43,175-50c203-9,221-25,161-144c-86-171-175-232-176-120c0,50-54,118-153,193
		c-114,85-151,124-153,159l-1,27l-169-3c-130-3-186,0-244,13c-159,34-303,55-515,75c-121,11-237,22-257,25l-38,5l-84-167
		c-120-240-207-356-252-339c-23,9-15,44,62,271c74,221,94,324,94,482c0,137-19,238-66,353c-84,204-85,212-28,230
		c132,44,149,162,89,590c-33,232-37,371-12,418c24,43,135,97,232,112c127,20,424,29,940,30c534,0,795,10,900,35c34,8,108,33,165,55
		c60,25,126,44,159,47l56,4l-53-48c-29-26-52-51-52-55c0-17,89-19,396-9c760,26,1052,56,1242,127c176,65,344,242,359,377
		c6,52-20,89-83,119c-103,48-227,237-240,364c-7,64,5,104,31,104c8,0,43-14,79-32c82-40,100-35,91,29c-12,88-56,125-198,172
		c-146,47-285,72-537,96C71971,13780,71825,13774,71485,13724z M70609,13404c118-30,197-81,160-105c-20-12-188-11-250,2
		c-28,6-60,20-70,30c-22,22-25,59-7,77C70459,13425,70532,13423,70609,13404z M68015,13335c253-33,260-51,30-81
		c-118-15-625-32-625-20c0,32,86,102,142,117C67608,13363,67872,13354,68015,13335z M69935,12971c29-13,47-31,65-63
		c23-44,23-47,7-72c-19-28-182-116-216-116c-19,0-70,73-137,198c-25,45-27,54-14,62c8,5,69,10,135,10
		C69870,12990,69903,12986,69935,12971z M67796,12291c39-24,67-90,62-152c-3-42-5-44-36-47c-43-4-132,38-167,79c-33,40-35,101-3,123
		C67683,12316,67758,12314,67796,12291z M68200,10351c125-107,157-350,70-522c-32-61-53-66-163-40c-51,12-155,32-231,44l-137,22
		l96,80c52,44,121,97,153,117c106,70,100,62,77,88c-11,12-31,29-46,37c-33,19-61,66-53,87c3,8,22,18,42,21c48,8,66,18,70,39
		c7,35-9,68-56,113l-47,46l90-47C68115,10411,68175,10373,68200,10351z M68844,9834c10-4,16-18,16-39c0-39-25-59-97-76
		c-60-15-73-25-73-56c0-29,31-92,57-115c30-28,89-48,140-48c62-1,132-15,146-29c19-19-9-59-60-84c-65-33-136-47-276-54
		c-146-8-154-12-137-81c19-72,9-82-89-82c-93-1-151-13-168-36c-7-10-13-37-13-60c0-78-35-89-114-35c-75,50-81,66-80,214
		c0,153,15,229,50,256c14,11,56,31,93,46c66,25,206,102,361,198C68709,9821,68800,9851,68844,9834z M70795,9739
		c146-58,269-129,273-158c9-62-58-133-196-206c-47-25-86-44-87-43c-2,2,3,44,11,93c8,50,15,120,16,157c4,82-7,96-114,148
		c-84,41-103,67-42,56C70678,9782,70740,9761,70795,9739z"/>
	<path class="st0" d="M68409,9547c-134-59-203-116-197-161c8-54,149-74,251-36c75,28,112,69,112,125c0,52-30,99-66,103
		C68496,9579,68451,9565,68409,9547z"/>
	<path class="st0" d="M61755,13390c-379-24-1129-130-1353-190c-351-96-575-434-611-921c-15-212,8-389,70-525c43-95,46-137,16-210
		c-38-90-52-213-38-343c11-103,49-269,74-319c29-59,72-54,147,16c45,41,53,53,57,93c7,63-14,105-104,200c-80,86-91,117-50,144
		c34,22,139,63,204,80c66,17,83,9,83-39c0-54,50-119,135-176c42-29,73-55,69-60c-5-4-50-41-100-83c-88-72-134-127-134-159
		c0-24,24-38,79-47c28-4,61-17,72-27c28-26,59-87,59-119c0-24-3-25-54-25c-29,0-120,9-201,20c-200,27-239,26-270-5
		c-24-23-25-29-25-162c0-76,9-266,20-423c25-372,110-1462,115-1477c2-6,43-23,92-38c149-44,159-48,143-53c-29-9-255-93-258-96
		c-5-6,37-687,54-866c8-90,22-200,31-245c21-107,20-225-2-300c-21-72-23-195-3-250c22-60,48-73,171-84c120-11,180-33,222-83
		c33-39,34-90,0-123c-31-32-48-31-176,6c-128,38-153,35-176-19c-42-100-27-521,21-587c12-16,15-16,52,3c21,12,75,50,119,86
		c104,86,203,138,253,134c88-7,25-65-239-218c-62-36-132-83-157-105l-44-40l21-87c23-99,88-267,133-348c45-80,82-124,136-160
		c60-40,113-38,178,9c24,17,64,45,88,62c25,18,51,29,62,26c15-3,5-18-57-78c-91-87-99-106-66-145c22-25,33-29,94-32
		c121-7,233,32,421,146c118,72,206,117,290,149c147,55,184,89,235,218c18,44,48,102,67,128c19,27,44,63,54,79c20,31,20,31-3,49
		c-12,10-47,23-79,30c-83,17-190,72-267,137c-171,145-176,147-237,107c-43-29-118-46-118-27c0,15,82,72,180,125
		c167,90,199,123,212,220c8,63,43,147,75,182c45,50,75,65,130,65c53,0,54,1,70,38c27,65,13,328-54,957c-12,115-17,253-17,490
		c-1,291,1,338,17,395c34,120,65,147,199,174c180,37,418,30,664-19c226-46,343-98,819-369c132-75,322-178,423-228
		c196-98,234-127,196-155c-15-11-37-13-100-8c-54,5-88,3-103-4l-21-12l24-47c33-66,159-236,367-497c97-121,219-278,273-350
		c145-194,128-179,189-172c29,3,112,28,186,56s136,49,139,46c3-2-8-21-24-41c-93-117-115-149-135-201c-27-72-36-195-19-272
		c34-154,124-267,273-340c90-44,127-81,127-127c0-106,103-234,267-330c72-42,96-76,87-124c-9-40,21-74,94-106c67-30,93-30,131,1
		c39,33,121,142,133,178c19,51,60,56,141,15c28-14,43-31,58-66c38-89,70-92,189-22c77,45,273,130,303,130c27,1,210,80,243,105
		c45,34,64,79,64,147c0,123-52,260-161,429c-40,62-79,130-87,151c-14,37-14,39,8,63c27,29,23,59-17,106c-37,43-96,69-163,69
		c-65,0-160,23-196,47c-38,25-47,58-28,99c9,19,27,43,40,53c58,45,68,115,33,227c-107,347-588,927-1249,1505
		c-359,314-410,380-371,482c27,72,94,86,176,37c67-40,109-39,171,3c77,51,137,137,242,344c53,106,103,193,110,193c8,0,56-43,107-95
		c118-120,170-136,186-56c10,48,52,103,189,244c139,144,241,274,313,401c98,171,175,404,212,636c22,137,31,563,16,771
		c-17,244-37,320-149,550c-141,288-331,516-632,757c-485,387-807,479-1795,512C63428,13393,61915,13400,61755,13390z M64400,12704
		c160-50,220-86,220-130c0-12-8-30-17-39c-25-25-80-14-198,40c-55,25-109,45-121,45c-11,0-28,6-39,13c-34,26,2,97,50,97
		C64308,12730,64356,12718,64400,12704z M65253,12472c9-9,46-79,83-156c96-197,93-236-21-293c-68-35-171-73-197-73
		c-13,0-42,23-77,61c-75,82-148,123-321,179l-145,47l220,73c272,90,361,125,400,155C65232,12494,65233,12494,65253,12472z
		 M64378,12228c18-5,31-15,29-21c-14-45-347-51-347-6C64060,12239,64281,12258,64378,12228z M62455,12221c13-42,111-58,625-101
		c552-47,1104-133,1282-200c80-30,104-52,148-139c58-116,116-181,226-252l94-62l-6-36c-3-20-19-93-35-164c-38-165-74-375-94-557
		c-35-316-46-393-60-421c-14-25-21-29-60-29c-84,0-339-110-418-181c-39-35-41-39-26-54c10-10,46-20,95-26c43-6,80-12,83-15
		c9-9-22-52-46-63c-36-16-124-13-269,9c-159,24-247,26-268,4c-18-18-12-32,50-119c21-29,33-57,31-67c-8-28,21-37,144-44
		c135-7,213-20,229-39c20-24-9-30-162-35c-129-4-150-8-175-26c-33-25-40-61-18-103c42-82,146-86,299-11c117,57,110,61,145-67
		c14-50,60-93,102-93c69,0,128-47,114-90c-16-50-121-70-368-70c-214,0-230,5-252,87c-26,93-37,115-80,162c-62,68-123,87-166,52
		c-22-18-24-28-29-154c-6-140-6-140-62-209c-18-23-20-33-12-55c15-44,51-42,110,7c50,42,85,57,103,45c31-18-10-85-72-118
		c-35-18-58-22-138-22c-83,0-100,3-119,20c-47,43-82,143-100,291c-16,129,0,188,53,198c12,2,49,9,82,15c130,24,285,129,271,185
		c-8,33-105,112-182,148c-34,16-90,34-125,39c-108,18-727-4-1437-51c-160-11-298-18-305-16c-6,3-24,7-38,10c-24,5-28,13-38,68
		c-6,35-29,122-52,193c-116,370-115,358-54,398c44,28,50,51,31,113c-43,138-55,521-31,1017c18,366,19,378,39,382c12,3,127,27,256,55
		c395,84,545,130,597,186C62395,12246,62446,12249,62455,12221z M60910,11816c0-7-24-62-54-123c-64-130-106-251-106-303
		c0-90-33-112-96-63c-121,92-109,233,33,384c37,39,86,79,116,93C60859,11832,60910,11838,60910,11816z M60888,10680
		c35-21,82-106,82-147c0-28-9-30-175-38c-71-3-152-10-180-15c-71-13-183-12-191,1c-13,22,54,72,181,134
		C60781,10702,60832,10714,60888,10680z M66206,10559c12-20-39-58-124-93c-121-50-169-82-244-158c-69-70-102-84-113-48
		c-9,30,28,83,97,141s150,101,263,140C66174,10572,66196,10575,66206,10559z M60612,10102c29-29-96-169-197-223c-60-32-69-22-73,89
		c-3,76-1,90,17,114c12,15,31,29,44,32C60445,10123,60600,10114,60612,10102z M61049,8135c34-29,67-108,77-184c7-53-4-81-33-81
		c-21,0-128,105-167,165c-66,98-57,124,41,125C61008,8160,61025,8155,61049,8135z M60278,7195c35-30,55-73,50-111
		c-7-60-94-29-133,47C60155,7207,60212,7251,60278,7195z M60918,5890c48-29,74-95,76-189c1-94-13-126-49-109c-13,6-29,23-35,38
		c-15,37-45,43-111,25c-118-32-182-46-195-41c-8,3-14,17-14,30c0,31,41,64,131,104c67,30,119,79,119,112
		C60840,5913,60864,5922,60918,5890z M61447,5674c26-17,46-75,41-124c-3-30-7-35-32-38c-35-4-168,25-213,46c-18,9-33,21-33,28
		c0,13,59,62,99,84C61368,5701,61403,5702,61447,5674z"/>
	<path class="st0" d="M46095,13249c-55-22-103-43-107-47c-9-9,201-116,252-130c52-13,77,0,90,47c8,31,7,48-3,73c-18,42-81,98-110,98
		C46205,13289,46150,13271,46095,13249z"/>
	<path class="st0" d="M55720,13014c-249-21-324-29-446-49c-549-92-1024-304-1379-615c-129-113-250-200-349-251
		c-124-65-192-114-305-223c-219-213-414-501-521-771c-213-535-426-1458-495-2142c-19-187-17-592,4-655c6-20,28-56,47-79
		c68-82,83-136,108-390c34-342,110-639,251-984c114-280,231-501,400-755c143-216,245-342,414-511c224-222,373-323,601-404
		c133-48,156-63,164-114c8-50,44-79,156-127c198-83,681-206,975-248c187-27,367-36,710-36c472,0,548,11,746,100
		c164,74,228,90,411,100c184,10,250,21,378,62c182,58,343,153,451,265c55,56,119,153,119,179c0,3-33,3-74-1c-80-8-104,3-64,29
		c32,20,123,42,258,61c96,14,119,21,142,42c32,31,41,58,22,74c-14,12-55,10-241-7c-89-8-114,5-149,79c-35,76-32,95,14,102
		c117,17,243,68,421,169c130,75,191,121,191,146s-80,61-195,89c-119,29-145,40-145,61c0,26,27,50,55,50c12,0,68-18,123-40
		c58-23,116-40,139-40c116,0,127,132,15,183c-39,18-65,21-157,21c-60,0-159-9-220-19c-144-25-321-25-391-2c-103,35-148,130-75,159
		c14,5,103,13,197,17c187,8,224,18,224,65c0,54,69,72,146,37c23-11,82-46,130-78c85-56,174-109,345-202c79-43,105-64,95-79
		c-3-5-27-17-53-27c-141-52-151-102-31-155c169-74,216-24,401,425c209,508,265,978,151,1260c-58,143-145,254-253,324
		c-75,48-289,137-300,125c-18-19-120-263-160-382c-23-67-53-169-67-225c-45-176-64-200-208-251c-90-32-128-53-235-131
		c-18-13-50-27-70-30c-111-17-154-49-269-193c-136-171-252-366-252-424c0-26-22-58-40-58c-21,0-34-51-39-149l-6-104l-43,61
		c-39,55-76,92-93,92c-3,0-19-12-35-26s-80-59-143-101c-120-80-181-129-181-145c0-24,97-49,302-78c267-37,470-88,507-125
		c15-15,14-18-10-39c-59-51-452-200-601-227c-91-17-118-5-118,49c0,45,40,113,90,156c19,15,67,44,107,64s73,39,73,43
		c0,10-137,47-220,60c-99,15-483,5-613-15c-229-37-395-84-522-149c-73-37-163-45-287-28c-149,22-154,26-79,59c58,27,86,55,77,78
		c-6,15-19,16-104,11c-53-3-142-17-197-32c-55-14-110-23-122-20s-33,26-51,57c-32,57-101,117-217,188c-98,60-235,164-335,254
		c-50,44-114,91-155,111c-62,31-82,36-170,41c-122,7-193,25-224,58c-34,36-22,68,39,108c111,73,106,136-30,408
		c-94,188-129,283-137,370c-6,73-15,90-48,90c-12,0-91-34-175-75c-101-49-165-75-188-75h-35l5,45c3,25,11,52,19,61
		c23,28,88,55,182,74c74,16,97,25,116,47c22,26,23,32,19,137c-6,143-21,180-83,207c-25,11-45,23-45,27s28,17,63,27
		c86,27,93,45,72,167c-35,210-78,336-136,402c-34,38-52,49-112,67c-89,26-127,45-127,64s49,52,123,82c78,31,112,63,126,117
		c6,24,18,121,26,217c28,303,48,382,275,1038c50,146,109,332,131,415c92,345,99,359,205,389c73,20,193,94,304,187
		c120,100,210,159,272,175c64,16,106,60,140,144c21,51,23,72,23,246c0,105,4,196,8,203c5,6,15,12,22,12c15,0,20-14,29-84
		c13-97,118-253,199-296c38-20,51-23,84-14c32,8,38,13,41,39c2,17-11,75-28,129c-45,147-47,166-17,194c27,26,71,31,105,13
		c33-18,53-66,68-164c16-105,30-127,86-127c42,0,94,23,166,74c86,61,107,56,137-34c23-69,45-78,207-89c285-20,515-96,647-215
		c119-105,310-184,480-196c72-5,108-12,119-23s18-48,23-126c18-251,91-391,285-547c112-90,132-124,143-246c5-53,16-109,25-125
		c22-43,123-133,176-156c127-56,472-20,738,79c316,117,432,247,432,484c0,151-41,238-212,456c-82,104-92,137-83,273
		c6,113,6,117-17,138c-13,11-58,35-101,51c-125,48-138,69-87,136c38,50,38,78,0,152c-60,121-179,238-365,359
		c-167,109-150,106-176,27c-45-137-96-212-144-212c-22,0-25,4-25,38c0,20,9,80,20,132s20,130,20,174c0,77-1,79-35,111
		c-113,103-603,327-931,426c-158,47-362,84-614,110C56519,13011,55812,13022,55720,13014z M55437,12331c46-21,67-51,58-82
		c-9-27-92-79-127-79h-28v78C55340,12355,55355,12368,55437,12331z M58640,11375c25-50,58-93,118-151c45-45,82-88,82-96s-9-23-21-34
		c-18-16-36-19-123-18c-161,0-212,32-255,162c-34,101-26,148,29,177c33,17,97,34,120,32C58598,11446,58621,11414,58640,11375z
		 M53481,11102c52-28,120-58,152-67c31-9,57-19,57-23c0-9-69-52-140-87c-34-17-71-28-100-28c-84-1-187,63-221,138
		c-25,54-24,71,7,102c24,23,31,25,89,21C53376,11153,53406,11143,53481,11102z M58017,11136c71-36,79-96,21-162
		c-32-36-131-99-172-110c-21-5-24-1-29,40c-8,57-29,99-74,149c-68,76-24,110,132,104C57954,11154,57996,11147,58017,11136z
		 M59105,10893c13-13,15-26,10-62c-13-90-67-111-282-112c-170,0-248,23-279,83c-15,30-15,32,2,45c15,11,34,13,84,6
		c120-15,209-9,295,19c44,15,87,29,95,32C59061,10913,59089,10910,59105,10893z M52891,10398c9-7,21-32,27-54c16-56,118-164,242-258
		c118-89,190-125,264-133c31-3,56-9,56-13c0-5-33-36-72-70c-130-112-190-186-201-250c-8-43-27-56-103-69c-66-11-303-31-376-31
		c-61,0-61,8-8,128c43,96,47,126,28,196c-15,56-10,63,87,111c108,53,146,107,115,166c-16,29-58,24-169-21c-114-46-153-50-175-18
		c-42,59-3,209,67,262C52745,10399,52856,10426,52891,10398z M53580,9655c0-18-105-210-131-239c-32-38-73-48-97-24
		c-31,31,6,155,61,205c36,33,99,63,134,63C53565,9660,53580,9658,53580,9655z M52983,9224c131-30,200-74,221-141c11-34-13-29-68,12
		c-58,45-114,65-183,65c-74,0-112,21-113,63C52840,9245,52886,9246,52983,9224z M53284,8762c0-22-8-52-17-66c-33-50-59-58-205-67
		c-75-5-209-16-297-24c-193-20-283-17-299,7c-20,32,6,43,73,30c67-12,116-3,160,29c38,27,144,64,296,104
		C53241,8840,53286,8838,53284,8762z M52960,8372c0-44-252-131-382-132c-50,0-98,14-98,29c0,17,104,48,355,104
		C52871,8381,52960,8380,52960,8372z M53060,7640c116-28,229-86,325-168c137-117,245-272,207-296c-15-9-92,14-183,55
		c-70,32-98,40-123,35c-18-4-80-36-137-73c-151-97-223-120-295-93c-31,12-97,78-89,90c2,4,24,4,47-1c185-36,194,25,31,203
		c-58,64-78,98-88,150c-8,43,15,95,48,108C52842,7666,52972,7661,53060,7640z M52767,7065c8-23-24-54-63-61c-38-7-66,9-57,32
		C52661,7072,52755,7095,52767,7065z M53209,6934c51-20,71-51,81-128c11-73,25-87,112-109c102-25,196-30,251-14c26,8,47,12,47,8
		c0-20-54-54-108-66c-60-14-192-63-352-129c-107-45-144-47-158-8c-5,16-24,40-41,53c-84,64-84,64-76,88c5,15,27,32,71,51
		c77,35,88,55,74,131c-12,60-13,123-3,132C53118,6955,53168,6951,53209,6934z M54551,6158c17-24,63-108,103-186l71-144l45,6
		c25,3,143,13,262,23c168,13,221,14,230,5c17-17-15-49-61-62c-65-18-253-23-444-11c-216,14-297,25-309,43c-31,49,19,368,58,368
		C54514,6200,54534,6181,54551,6158z M56117,5566c74-55,175-106,283-141c47-15,87-29,89-31c13-11-166-254-210-284c-29-22-31-22-51-4
		c-24,22-62,97-108,213c-18,46-57,120-87,165c-68,103-70,126-7,126C56048,5610,56076,5597,56117,5566z M57222,5496
		c-10-88-126-206-235-237c-36-10-67,4-67,32c0,62,72,141,181,199C57190,5538,57227,5540,57222,5496z M56979,5131c20-13,5-46-26-60
		c-75-34-308-38-350-5c-17,13-17,14,0,28c25,19,158,37,322,44C56947,5139,56971,5136,56979,5131z M54405,5110c8-13-39-24-70-16
		c-37,9-21,26,25,26C54381,5120,54402,5116,54405,5110z"/>
	<path class="st0" d="M49850,12613c-264-21-674-105-719-148c-11-11-10-17,11-37c13-12,39-31,56-40c67-36,25-93-67-93
		c-73,1-154,38-224,103c-50,48-86,72-105,72c-5,0-30-17-57-37c-43-34-54-38-104-37c-31,1-128,20-216,42c-307,78-360,77-638-14
		c-159-53-180-57-287-62c-76-3-154,1-230,12c-295,42-834,42-1200,1c-295-34-430-96-620-287c-161-162-231-328-165-394
		c24-24,26-24,193-23c177,1,232-7,276-42c35-28,35-70,0-98c-36-28-89-27-227,5c-201,45-297,43-297-9c0-27,24-51,100-99
		c74-47,120-100,120-140c0-36-64-104-145-153c-84-51-90-70-89-280c1-99,16-358,33-575c61-781,70-958,80-1450c9-457,9-457,87-492
		c66-29,115-33,151-14c17,8,77,65,134,126c114,122,145,148,162,131c15-15-39-174-103-308c-68-140-73-143-252-143c-75,0-139-4-142-8
		c-3-5,4-67,14-138c31-214,40-307,54-577c8-143,17-261,20-264c3-4,117-6,253-7c286-1,364,10,621,90c156,48,216,74,230,100
		c5,9,7,49,4,89c-4,64-1,80,22,131c33,71,71,114,103,114c29,0,78-24,166-84c38-25,80-46,93-46c62,0,97,94,110,292l7,108l31,4
		c17,3,90,8,161,11c160,7,566,38,945,71c763,66,1324,89,1585,64c75-7,138-11,140-8c2,2-5,37-15,78c-39,149-16,263,65,324
		c50,38,175,96,207,96c42,0,36-27-36-164c-76-144-90-185-81-232c5-30,13-39,53-56c42-19,59-20,172-15c138,7,324,35,440,67
		c168,47,297,136,341,235c42,94,48,360,13,500c-34,133-114,215-298,305c-223,110-439,149-868,157c-385,8-505-7-933-113
		c-329-82-531-150-523-176c6-17,70-37,193-59c126-22,175-37,175-50c0-15-76-164-100-197c-28-38-82-67-105-58c-14,5-17,14-12,49
		c9,63-13,99-96,153c-40,26-95,63-124,82c-63,41-85,73-81,115c3,29,0,32-29,35c-18,2-67-7-110-19c-94-27-109-26-287,12
		c-227,48-327,60-587,66l-245,6l-34-89c-61-165-139-303-212-376c-40-40-83-52-74-20c2,9,8,33,11,52c4,19,34,117,66,217
		c82,257,103,372,96,543c-5,154-19,207-99,388c-27,62-48,121-46,130c2,12,17,19,50,22c92,11,124,75,122,250c-1,58-11,173-24,255
		c-12,83-24,218-27,300c-5,144-4,152,19,195c33,61,86,86,208,99c158,17,536,31,1105,41c690,12,740,18,939,104c169,74,215,71,145-9
		c-25-28-29-39-20-48c42-42,1233,9,1481,64c57,13,174,75,250,134c83,64,165,159,205,239c53,104,46,158-22,171c-56,10-85,29-141,90
		c-69,75-109,148-133,245c-22,85-19,127,7,137c8,3,47-7,85-22c55-23,76-27,97-19c37,13,40,47,8,94c-64,97-339,177-721,210
		C50284,12619,49954,12621,49850,12613z M48791,12256c156-39,199-65,169-101c-48-58-358,4-368,73c-2,13-1,30,2,38
		C48602,12287,48683,12284,48791,12256z M46130,12204c313-58,318-95,15-115c-160-11-410-5-480,11c-85,19-65,52,66,106
		c79,33,89,35,169,30C45947,12233,46050,12219,46130,12204z M48099,11845c16-8,32-24,36-35c8-26,50-54,70-46c30,11,14-13-42-65
		c-82-74-140-109-183-109c-44,0-66,21-108,105c-32,65-54,89-91,103c-23,8-22,9,20,26C47907,11867,48039,11877,48099,11845z
		 M45960,11147c41-21,68-145,38-175c-22-22-84-13-149,21c-98,50-125,117-61,152C45821,11163,45926,11164,45960,11147z M46227,9291
		c67-34,155-114,190-172c68-114,78-240,29-375c-41-111-57-118-198-88c-40,8-121,19-180,24c-58,6-113,13-122,16c-44,17,2,68,149,167
		c80,53,125,97,125,120c0,11-15,38-33,61c-66,81-72,116-18,116c111,0,104,80-10,130c-35,15-48,24-39,30
		C46135,9329,46171,9320,46227,9291z M47004,8669c14-11,26-27,26-34c0-25-42-55-102-71c-32-9-63-23-69-30c-25-30,38-127,96-149
		c11-4,67-11,123-15c119-10,135-18,121-60c-23-64-101-90-303-99c-140-6-160-10-173-27c-8-10-11-28-8-39s8-41,12-67c7-61,1-64-125-48
		s-138,11-144-64c-3-30-10-62-17-70c-29-35-129-8-154,41c-50,95-47,398,3,424c8,4,55,26,103,48c49,22,157,81,240,130
		c183,107,188,109,252,132C46950,8695,46972,8694,47004,8669z M49005,8575c150-75,245-136,245-156c0-33-207-209-246-209
		c-25,0-39,61-59,243c-8,73-39,113-95,122c-22,4-50,15-62,25c-23,18-23,18-3,40C48811,8669,48826,8664,49005,8575z"/>
	<path class="st0" d="M46573,8401c-28-9-69-30-90-46c-53-40-163-137-163-144c0-10,294,7,338,18c50,14,68,31,81,77
		c18,66-19,115-87,114C46637,8419,46602,8411,46573,8401z"/>
	<path class="st0" d="M40934,12220c-383-26-833-160-1214-362c-670-355-1149-911-1264-1469c-71-345-36-850,85-1229
		c40-126,162-375,193-395c23-15,28-14,95,19c38,20,72,32,76,27c3-5,1-21-5-36c-25-66-1-126,95-239c362-424,757-611,1555-736
		c322-51,493-94,890-226c329-110,485-156,666-194c178-38,312-77,444-130c222-88,404-196,503-296c267-270,327-766,137-1144
		c-185-369-533-588-1069-671c-109-17-198-22-452-26c-443-7-514,4-751,122c-308,152-431,279-658,674c-288,503-567,859-738,943l-67,33
		l-170-1c-140,0-185-4-257-22c-204-51-337-160-438-362c-90-179-130-351-110-475c13-79,29-120,74-189c45-70,68-129,147-367
		c104-318,180-451,373-658c371-397,693-599,1263-789c185-63,285-88,411-107c254-38,976-49,1247-20c178,19,357,53,526,99
		c101,28,570,174,576,179c4,4-38,367-47,410c-15,70-47,141-78,170c-29,27-86,46-142,48l-35,1l43,19c97,45,407,81,712,83
		c177,1,210-1,245-17c98-44,101-96,5-97c-101,0-260-183-260-297c0-135,77-152,208-46c23,19,42,39,42,46c0,6-12,24-27,39
		c-24,25-25,30-13,42c8,8,57,28,108,45c109,35,211,96,331,197c225,188,435,450,518,646c113,268,148,593,94,864
		c-28,140-23,169,35,205c75,46,80,67,34,141c-47,76-60,144-70,358c-7,144-15,217-31,279c-63,247-245,577-401,727
		c-122,117-219,161-378,171c-131,8-134,10-126,88c8,79-8,102-107,148c-85,40-395,158-658,250c-637,224-1276,369-1695,384
		c-182,7-234,1-234-25c0-28,86-118,262-274l161-143l-39-3c-21-2-138-2-259,0c-200,3-224,5-267,25s-48,25-48,55c0,19,6,43,14,54
		c42,60,39,150-10,300c-35,110-62,147-128,178c-155,73-374,93-796,72c-162-8-296-14-298-12s-8,45-15,96c-15,120-8,132,101,186
		c97,48,145,91,168,150c15,38,15,45,0,76s-79,82-139,109c-14,6-27,19-30,28c-15,59,74,242,243,501c59,91,117,183,128,205
		c35,70,53,145,46,196c-8,60,23,132,101,233c74,98,77,108,69,252c-7,126,1,176,31,188c8,3,51-18,97-46s96-51,113-52c27-1,30,2,35,40
		c10,68,93,160,189,208c60,31,157,37,167,11c11-26-22-61-153-163c-129-100-226-191-249-234c-22-40-17-85,11-104c39-25,111-12,224,41
		c54,25,107,45,120,45c35,0,22-29-28-64c-63-44-72-63-43-86c36-30,125-43,252-38c130,6,172,19,232,73c23,21,44,33,51,28
		c7-3,33-21,59-39c59-40,157-81,368-154c186-65,260-95,375-152c182-92,309-194,354-287c35-72,46-78,118-62c32,7,85,19,118,27
		c72,16,244,18,300,3c22-6,80-29,128-51c107-49,117-45,117,46c0,67,18,106,49,106c10,0,25-7,32-16c23-28,60-36,222-44
		c164-9,227-22,227-45c0-20-30-26-114-23c-51,2-79-1-88-10c-10-10-12-49-10-156c3-116,0-150-14-185c-37-94-110-71-229,72
		c-56,67-80,84-99,67c-32-26-226-443-226-486c0-31,33-39,108-28c31,4,82,8,112,8l55,1v-73c1-53,5-76,15-82c20-13,149-12,230,0
		c86,14,203,53,266,89c266,153,412,546,330,886c-55,226-154,458-245,576c-83,107-172,159-273,159c-67,0-83-11-114-76
		c-30-64-188-235-262-284c-49-32-99-39-149-19c-72,29-412,3-543-41c-34-12-63-20-64-18c-32,51-40,58-98,77c-82,28-145,75-214,160
		c-80,97-110,112-253,122c-130,9-188,24-159,40c84,47,735,104,1368,119c341,9,492,19,508,34c13,14-15,65-66,115
		c-192,192-697,472-1021,567c-98,29-293,45-305,26c-4-6-1-39,6-72c7-38,8-63,3-69c-6-6-31-2-65,11c-290,108-624,174-1005,198
		C41160,12231,41101,12231,40934,12220z M41704,12044c38-13,79-33,90-44c21-21,21-21,2-36c-24-17-191-20-248-3c-54,14-92,50-84,76
		C41479,12085,41576,12088,41704,12044z M42156,11835c77-13,152-29,167-36c27-12,41-34,32-50c-12-18-112-39-189-39
		c-151,0-232-22-269-72c-19-25-19-32-8-85c13-54,12-58-8-74c-21-17-122-39-180-39h-33l41,73c74,128,110,211,122,272
		c7,33,19,66,28,73C41879,11875,41955,11869,42156,11835z M41423,11628c31-11,57-26,57-33c0-18-63-66-129-100c-51-25-171-47-171-31
		c0,3,15,20,33,36l32,30l-35,29l-35,30l21,21c29,29,92,50,134,44C41349,11651,41391,11639,41423,11628z M39905,11535
		c76-39,88-59,55-87c-72-60-351-171-326-130c4,7,18,12,30,12c82,0,46,115-59,191c-25,18-45,37-45,42s60,7,143,5
		C39839,11565,39849,11564,39905,11535z M40230,9105c52-8,128-24,168-35c127-35,292-129,292-165c0-34-217-169-351-219
		c-217-81-480-76-692,14c-74,32-137,74-137,91c0,6,17,18,38,27c32,15,80,17,367,18c329,1,376,4,428,30c81,42-41,187-141,169
		c-21-3-66-15-101-26c-86-26-182-26-206,1c-22,24-14,65,18,81C39970,9122,40086,9127,40230,9105z M42278,8728c19-19,15-34-18-72
		c-38-43-98-64-204-72c-105-9-139-23-171-74c-14-22-32-43-41-47c-37-14-57,51-34,111c5,14,28,46,51,71c40,43,88,65,194,88
		C42102,8744,42266,8740,42278,8728z M43213,8414c18-20,53-46,78-59c56-29,119-97,119-129c0-46-19-51-224-54c-277-5-306,2-306,78
		c0,52,22,75,105,107c50,20,71,34,73,48c7,42,11,45,68,45C43177,8450,43184,8447,43213,8414z M41757,8385c40-9,83-25,95-36l23-19
		l-28-24c-36-29-170-76-218-76c-47,0-131,43-169,86c-16,19-30,38-30,42c0,15,16,31,40,42C41504,8414,41668,8406,41757,8385z
		 M41262,8094c46-14,117-42,158-60c125-58,152-101,83-132c-33-15-74-17-285-17c-135,0-250,4-254,8c-14,14,39,100,101,165
		C41136,8130,41142,8132,41262,8094z M43653,8026c91-40,147-80,147-105c0-19-31-51-67-70c-29-15-105-14-125,2c-9,6-23,46-32,87
		c-8,41-18,85-22,98C43545,8068,43559,8067,43653,8026z M42738,7875l-3-70l-39-3c-36-3-164,22-194,38c-9,4,26,40,105,108l118,102
		l8-52C42737,7969,42739,7914,42738,7875z M43313,7978c14-7,17-16,12-35c-14-57-115-172-163-187c-45-15-101,35-142,126
		c-34,75-24,92,69,108C43143,8000,43287,7992,43313,7978z"/>
	<path class="st0" d="M33697,11844c-218-39-456-185-703-429c-165-163-247-270-314-409c-77-161-110-321-110-528c0-122,1-130,23-152
		c16-16,41-26,78-30c93-12,222-37,241-47c10-5,18-17,18-25c0-26-69-46-192-54c-152-11-211-30-244-79c-109-165-513-1294-863-2411
		c-260-827-415-1276-633-1835c-414-1056-571-1599-529-1830c23-129,140-304,314-472s246-192,562-192c273-1,331,15,443,123
		c181,173,259,330,343,693c116,499,291,1010,403,1179c79,118,197,138,1021,169c220,8,641,24,935,35c752,28,961,38,1154,56
		c92,8,170,13,173,11c2-3,39-110,83-238c90-268,159-438,267-653c179-357,363-633,549-819c103-104,176-154,287-199
		c77-31,89-33,207-33c144,0,236,21,355,81c185,94,414,302,431,391c9,46-31,109-109,175c-95,81-177,166-177,183c0,23,14,18,62-20
		c80-65,132-96,158-93c101,12,45,310-135,728c-66,153-155,401-155,432c0,8-9,27-21,42c-25,32-59,33-214,7c-60-10-111-18-112-17
		s44,58,101,126c75,90,102,129,96,140c-35,66-423,882-547,1150c-456,985-1086,2421-1333,3035c-332,829-512,1156-789,1433
		c-206,206-439,330-707,377C34007,11864,33802,11863,33697,11844z M33957,9940c19-55,33-75,93-131c80-76,109-131,110-204
		c0-72,16-159,37-202c10-21,57-79,106-130c112-118,146-187,182-368c65-324,130-502,433-1190c264-600,335-774,326-798
		c-22-59-221-80-1149-122c-867-39-1165-44-1165-21c0,49,73,294,243,816c227,697,236,734,247,1086c9,297,12,311,83,342
		c52,23,111,88,143,156c27,58,29,77,12,94c-20,20-52,14-97-19c-29-22-46-28-53-21c-18,18,3,54,86,141c95,101,133,172,200,374
		c57,175,102,269,124,265C33929,10006,33943,9981,33957,9940z M33470,6552c0-44-72-183-114-220c-44-38-78-41-111-7
		c-33,32-32,70,4,127c45,70,130,127,194,128C33466,6580,33470,6576,33470,6552z"/>
	<path class="st0" d="M25275,11474c-1105-53-1653-135-1955-290c-117-60-194-125-255-214c-143-210-230-580-204-861
		c10-108,34-196,79-291c39-81,38-129-1-254c-42-137-46-212-20-354c26-139,57-236,82-261s75-24,123,4c56,32,81,70,80,120
		c-1,59-25,99-115,193c-79,82-92,111-64,134c14,12,183,65,242,76c43,8,59-6,73-66c18-74,59-122,137-159l67-32l-50-42
		c-97-82-173-159-189-193c-24-50-9-64,70-64s96-13,134-105c17-38,29-70,28-71s-58,4-127,12c-330,36-420,35-447-2c-9-12-13-53-13-123
		c0-171,53-887,110-1496c42-444,52-475,159-475c20,0,46-6,57-14c18-14,18-15-10-44c-15-17-66-47-112-68c-59-26-84-42-84-55
		c0-133,55-847,76-999c26-180,29-280,9-361c-21-84-23-181-6-260c19-91,23-93,142-94c97,0,108-2,165-32c71-37,106-76,102-112
		c-5-42-44-53-216-59l-155-5l6-296c12-628,61-793,300-1030l86-84l98,90c87,81,130,113,147,113c3,0,6-11,6-24c0-34-35-73-78-87
		c-78-24-103-79-62-132c40-51,158-66,260-32c80,26,130,53,268,144c154,102,259,155,359,181c101,27,118,45,149,155
		c30,105,55,157,100,208c19,20,34,43,34,51c0,29-49,54-118,60c-94,9-174,51-280,149c-92,84-137,117-163,117c-8,0-31-16-50-36
		c-36-38-93-69-109-59c-41,26,37,89,215,176c54,26,108,61,136,89c43,42,47,49,53,111c7,76,29,144,55,176c28,33,83,63,117,63
		c53,0,91,19,105,51c19,47,5,341-35,749c-50,507-59,663-53,839c8,238,49,336,166,396c124,62,463,69,717,14c215-46,434-142,854-376
		c327-181,435-237,507-263c60-22,103-51,103-71c0-17-67-39-122-39c-57,0-128-16-128-29c0-20,146-217,435-586
		c185-235,355-464,355-476c0-20,76-7,210,36c77,25,147,45,155,45c27,0,15-24-50-99c-86-99-100-140-100-301c0-115,2-130,27-183
		c48-102,226-262,319-287c45-12,63-45,78-144c12-82,42-131,111-183c27-21,72-55,100-76c59-44,110-110,110-143c0-39,46-82,107-100
		c88-26,104-18,223,105c109,113,140,132,189,115c20-7,32-25,52-74c30-75,40-80,127-55c94,28,351,125,449,170c127,59,181,99,204,149
		c47,103,0,280-126,476c-55,86-95,167-95,193c0,11,9,30,20,44c26,33,25,45-5,82c-37,43-114,76-240,101c-188,37-207,63-136,193
		c91,164,76,235-108,509c-277,413-758,927-1277,1366c-183,155-208,180-219,225c-13,49,52,207,83,207c10,0,36-15,58-33
		c21-19,49-39,61-45c56-30,134,0,210,80c66,71,183,248,235,357c23,48,43,88,44,90c11,13,63-19,135-82c77-67,118-97,133-97
		c3,0,17,22,30,48c33,66,91,137,219,271c322,336,476,669,532,1148c17,147,20,444,5,594c-47,477-222,839-562,1165
		c-211,202-409,345-623,450c-356,174-661,233-1425,275C26696,11471,25426,11481,25275,11474z M27497,10765c96-26,180-62,202-89
		c15-18,1-50-29-66c-39-21-83-10-292,69c-78,30-88,75-23,101C27386,10793,27398,10792,27497,10765z M28347,10515
		c27-19,70-110,118-250l38-109l-34-28c-41-34-191-99-244-105c-38-4-43-1-107,61c-77,75-168,123-346,181c-62,20-112,39-110,41
		s71,23,154,48c190,57,276,88,377,137C28281,10533,28314,10538,28347,10515z M27398,10309c28-5,58-17,68-24c17-13,17-16,4-25
		c-55-38-289-60-324-31c-22,18-20,41,6,68c19,21,30,23,109,23C27310,10320,27371,10315,27398,10309z M25550,10270
		c33-47,94-59,345-70c436-19,1217-116,1453-180c138-38,173-66,239-193c45-87,150-195,240-249c80-47,83-60,50-202
		c-62-265-127-698-127-854c0-88-11-157-27-173c-5-5-43-13-85-19c-152-19-428-159-428-216c0-19,41-34,94-34c65,0,108-18,104-44
		c-8-56-160-73-339-37c-181,36-234,33-267-16c-13-22-11-25,38-73c52-50,52-52,46-96c-4-36-2-46,10-51c9-3,67,0,130,7
		c87,10,123,11,152,2c45-14,87-54,79-76c-5-14-30-16-151-16c-188,0-223-12-210-75c13-65,80-102,165-92c26,3,91,24,144,47
		c54,23,103,39,110,36c7-2,15-27,17-56c7-67,45-108,136-144c117-47,137-80,75-122c-63-42-162-59-353-59c-218,0-218,0-254,117
		c-30,97-61,153-98,181c-33,25-116,34-141,15c-20-15-37-103-37-194c0-75-14-116-43-129s-44-57-31-92c14-38,37-34,126,22
		c117,73,160,50,76-41c-69-75-156-106-236-84c-89,23-129,91-157,263c-16,101-20,224-6,245c4,8,40,18,79,22c90,12,196,64,269,132
		c81,77,73,98-67,176c-156,87-314,108-689,92c-237-10-655-37-1025-65c-255-20-246-25-317,168c-60,163-109,344-109,401
		c0,45,4,56,31,82s30,34,26,74c-2,25-12,74-23,110c-17,58-19,97-18,345c2,429,19,915,34,947c17,35,32,40,255,88
		c334,71,549,135,623,185C25506,10307,25524,10306,25550,10270z M23980,9858c0-6-13-32-29-57c-33-51-54-101-99-236
		c-35-106-66-162-93-170c-56-18-104,48-103,141c1,111,97,264,196,313C23898,9872,23980,9878,23980,9858z M23951,8767
		c21-16,99-136,99-153c0-7-8-18-19-23c-33-18-310-53-391-50c-169,8-132,67,110,175C23902,8783,23923,8789,23951,8767z M29278,8611
		c18-11-2-23-158-99c-143-69-200-113-236-183c-19-38-30-49-48-49c-31,0-54,57-37,89c29,53,207,177,327,226
		C29185,8620,29254,8627,29278,8611z M23649,8088c-78-87-176-170-197-166c-43,9-76,111-52,167c21,52,77,71,204,71h108L23649,8088z
		 M24126,6183c45-29,102-169,90-219c-14-54-93-12-182,95c-56,67-71,99-60,126C23982,6207,24092,6206,24126,6183z M23326,5269
		c39-24,89-102,80-124c-8-22-27-19-79,15c-56,35-88,90-67,115C23276,5295,23286,5294,23326,5269z M23670,4185c17-21-13-53-102-112
		c-129-84-268-138-268-103c0,28,155,150,265,209C23612,4204,23653,4206,23670,4185z M24009,3949c13-12,32-40,42-63
		c24-54,26-183,3-228l-16-32l-45,52c-39,45-50,52-82,52c-21,0-64-9-96-20s-76-20-98-20c-41,0-77,22-77,45c0,14,68,45,152,69
		c42,12,64,25,83,50c14,18,25,37,25,42s9,24,20,42C23943,3976,23975,3980,24009,3949z M24557,3718c45-42,21-110-47-128
		c-49-13-121,2-172,36c-42,27-47,43-20,66C24385,3751,24508,3765,24557,3718z"/>
	<path class="st0" d="M20410,11103c-30-2-341-26-690-54c-349-27-738-54-865-61c-185-9-234-14-249-27c-10-9-35-50-56-92
		c-39-76-98-141-146-159c-51-20-89-12-130,26c-61,56-80,51-409-126c-82-44-159-79-170-78c-14,2-21,13-26,40c-8,53-50,110-114,159
		c-54,41-85,82-85,113c0,33-72,39-425,32c-940-17-1352-82-1511-241c-97-98-129-222-121-474c7-242,38-338,142-445
		c126-130,295-154,1220-176c673-16,1112-36,1191-56c28-7,30-14,43-139c24-232,44-590,71-1265c55-1387,97-1869,206-2417
		c54-274,56-337,14-500c-94-360-44-696,129-869c84-85,83-124-4-124c-79,0-137-46-156-123c-17-70-6-307,20-424
		c59-267,158-444,325-581c171-140,323-214,501-243c203-32,426,35,583,176c91,82,116,131,83,164c-40,40-137,24-337-54
		c-114-44-184-59-191-39c-2,5,12,28,32,51c43,51,44,68,4,89c-18,9-28,19-23,24c14,14,173,29,452,44c139,8,255,16,257,18
		c5,4-14,1110-18,1114c-1,1-49-7-107-17c-171-30-291-22-334,20c-20,21-20,21-1,35c11,9,76,33,145,56c137,44,223,88,241,122
		c13,24,10,138-17,813c-55,1389-155,3310-204,3939c-11,137-18,251-17,252c2,2,121,24,266,49c487,84,587,141,642,370
		c18,75,26,94,38,90c9-2,126-37,261-76c264-78,334-103,328-120c-2-6-30-25-63-42c-101-55-119-107-52-148c39-23,128-25,272-4
		c223,31,418,85,464,128c35,33,84,57,118,57c115,1,249,171,319,405c23,77,27,109,28,225c1,124-1,139-24,185c-90,184-360,295-880,361
		c-91,11-233,16-520,19C20643,11106,20440,11106,20410,11103z M19740,10906c0-37-47-172-95-272c-92-192-269-384-353-384
		c-48,0-71,73-72,221c0,83,3,102,26,147c38,77,177,177,379,273C19720,10937,19740,10939,19740,10906z M18635,10459
		c73-13,123-37,143-66c13-21,12-25-20-57c-35-35-102-61-187-73c-53-7-71,10-71,68c0,51-27,81-81,89l-44,7l45,21
		C18471,10472,18543,10476,18635,10459z M21490,10347c-142-139-197-162-250-105c-31,34-24,58,33,114c71,68,136,93,242,93l80,1
		L21490,10347z M17575,10016c51-27,57-56,16-85c-41-30-243-126-315-151c-81-28-116-27-116,3c0,49,123,197,195,234
		C17427,10055,17504,10055,17575,10016z M21713,9965c80-28,67-40-74-61c-95-14-170-12-198,5c-21,13-1,38,47,60
		C21543,9994,21633,9992,21713,9965z M18796,9549c32-30,44-77,44-175c0-107,4-110,176-145c185-38,314-100,314-151c0-32-69-22-198,28
		c-64,25-169,59-232,75s-126,37-139,47c-21,15-29,38-48,133c-45,219-45,225,18,216C18754,9574,18783,9561,18796,9549z M18875,8754
		c156-63,218-99,223-131c7-47-104-76-268-71c-92,3-95,4-108,30c-14,31-28,187-19,212c4,9,12,16,20,16
		C18730,8810,18799,8785,18875,8754z M18899,8124c101-25,156-52,156-75c0-27-72-52-154-53l-76-1v53c0,61-15,79-77,89
		c-21,3-41,10-45,15C18695,8166,18783,8153,18899,8124z M19017,7730c202-78,312-131,358-174c42-40,43-65,2-84c-62-30-242-41-322-21
		c-82,21-174,124-210,236c-17,51-14,103,5,103C18855,7790,18930,7763,19017,7730z M18822,5776c53-19,131-80,178-138
		c73-92,63-128-35-128c-133,0-250,44-280,105c-27,59-3,144,48,165C18763,5792,18779,5791,18822,5776z M19436,5186c15-12,17-18,8-33
		c-33-53-178-82-242-49c-39,20-43,57-10,80C19223,5206,19407,5207,19436,5186z M19125,4806c27-19,13-42-45-71c-120-61-335-88-397-50
		c-46,27-44,57,5,78c58,25,77,29,206,42C19058,4822,19103,4822,19125,4806z"/>
	<path class="st0" d="M9895,10479c-112-11-169-30-244-80c-183-122-356-418-422-722c-83-381-75-975,31-2152c79-875,124-1603,155-2490
		c52-1467,120-2094,259-2391c43-92,152-208,235-253c153-81,265-101,605-108c291-6,504,3,976,42c673,56,1158,88,1650,110
		c980,44,1778,137,1956,228c288,146,322,541,82,960c-66,115-128,181-186,197c-50,13-69,10-210-32c-137-40-161-37-247,36
		c-37,32-78,61-91,67c-33,12-133,12-209-1c-252-41-1754-114-2637-127l-418-6v24c0,13-7,121-15,239c-19,280-46,765-95,1725
		c-80,1568-95,1736-157,1785c-14,11-34,20-44,20c-34,0-68,23-83,55c-17,35-41,215-52,389c-6,96-5,106,11,112c13,5,24-1,39-22
		c36-51,75-86,92-82c10,2,24,21,33,43c37,95,5,1253-45,1605c-39,274-147,583-244,692c-49,56-136,102-235,123
		C10299,10484,10018,10492,9895,10479z"/>
	<path class="st0" d="M7289,10414c-73-49-119-94-119-116c0-23-11-22,230-22c184-1,209-3,245-21l40-20l-3-133c-5-157,7-201,67-255
		c66-59,122-72,311-71c205,0,220,5,220,71c0,94-87,365-137,423c-29,34-61,44-198,60c-55,7-198,36-318,66s-233,54-251,54
		C7354,10450,7324,10438,7289,10414z"/>
	<path class="st0" d="M6987,10196c-110-40-189-169-134-223c23-23,95-21,150,6c59,29,131,92,147,131c17,40-6,75-57,89
		C7045,10213,7034,10212,6987,10196z"/>
	<path class="st0" d="M2232,10150c-142-20-229-58-316-139c-128-120-222-312-246-500c-11-82-5-121,17-121c9,0,42,12,74,26
		c33,15,62,24,65,21c11-11-29-56-102-117c-42-35-72-66-67-70c4-4,42-19,83-34c42-15,81-30,88-35c7-4-31-29-100-66l-112-59l110-35
		c171-56,246-108,497-348c81-78,174-160,208-182c60-40,61-40,97-25c39,16,88,48,211,139c72,54,112,67,127,43c14-23,5-122-16-183
		c-26-76-77-161-110-183c-56-37-211-11-360,60c-139,67-233,180-276,335c-26,93-46,107-155,111c-155,7-290-54-319-142
		c-10-30-8-41,15-85c14-28,47-85,74-126c60-91,91-170,98-247c8-80-2-117-47-185c-65-97-83-182-84-403c0-208,14-275,66-313
		c71-53,637-23,933,49c169,41,204,29,123-41c-102-88-229-137-404-156c-174-18-325-2-553,62c-79,22-146,38-148,35c-3-2,2-53,11-113
		c16-116,30-340,46-770c26-708,32-832,45-1033c41-594,108-1048,174-1178c26-51,53-60,131-44c127,27,140,20,185-99
		c39-101,63-118,176-129c140-14,196-35,243-90c45-54,30-141-28-159c-17-5-116-12-221-15c-189-7-258-15-278-35c-15-15,32-141,118-314
		c83-167,168-300,220-346c55-48,85-43,200,34c54,36,121,72,149,81c72,23,331,29,601,15c566-29,827-55,894-88c36-18,80-88,81-127
		c0-17-6-18-72-12c-40,3-210,30-378,59l-305,52h-335c-416,0-537-17-610-85c-46-43-40-64,43-143c286-278,623-478,1032-612
		c236-78,429-108,796-126c460-23,956,22,1244,111c129,40,124,39,311,50c252,15,462,57,751,151c354,115,583,245,805,458
		c345,330,590,792,742,1400c44,176,97,465,116,636c23,207,33,641,27,1160c-8,682-30,1094-63,1223c-19,72-68,140-119,164
		c-67,33-70,35-67,54c2,10,21,48,42,84c48,81,65,141,81,272c24,211-24,623-90,774c-24,54-52,72-124,80c-64,8-76-6-36-42
		c12-10,28-32,36-48c24-47,1-60-108-65c-105-4-168,4-195,24c-18,13-17,16,21,55c22,23,96,79,165,125c162,108,191,138,195,201
		c2,27,20,101,40,164c53,165,59,290,13,290c-5,0-31-22-59-50c-59-59-93-64-150-26c-41,28-153,186-141,198c5,5,46,1,93-7
		c115-20,151-19,183,6c33,26,53,64,67,129c15,69,0,104-50,122c-87,31-948-13-1022-52c-37-20-21-49,81-150c55-53,100-104,100-113
		c0-91-402,108-450,223c-16,39-3,56,49,63c51,6,132,61,214,143c77,76,104,126,89,159s-63,38-213,20c-242-28-400-77-430-131
		c-19-36-20-293-1-346c7-21,30-50,50-67c93-73,414-229,550-267c102-28,176,3,201,85c6,23,18,41,25,41c16,0,51-38,110-119
		c38-53,45-67,34-77c-16-16-206-90-343-134c-219-70-357-84-530-56c-44,8-82,12-84,10s1-120,8-261c34-731,48-829,157-1045l46-92
		l-33-26c-19-13-50-41-71-60c-89-88-47-237,123-438c93-109,141-187,147-239c4-40,3-43-19-43c-13,0-48,9-78,20c-34,13-71,20-100,18
		l-46-3l1-40c0-22,5-157,12-300c19-431,35-1103,36-1580c1-416,0-453-17-478c-12-19-26-27-45-27c-90,0-130-179-99-440
		c9-69,15-126,14-126c-1-1-103-34-227-74s-257-87-295-104c-102-47-149-111-110-150c16-16,62-22,229-31c126-7,292-33,439-71
		c56-14,103-27,105-29c6-6-162-54-232-66c-39-6-103-9-145-6c-95,7-182-10-325-64c-60-22-110-38-113-35c-6,6,55,45,136,86
		c35,17,60,35,55,39c-5,5-94,40-197,80c-149,57-192,69-207,61c-29-16-7-54,51-90c59-36,71-69,42-108c-15-21-30-28-62-30
		c-56-4-71,10-71,68c0,27-6,52-13,58c-30,25-126,33-577,47c-261,8-522,19-580,25c-187,19-316,57-490,144c-169,85-270,166-360,286
		c-79,108-128,208-229,467c-125,321-121,313-140,313c-9,0-63-32-120-70c-57-39-108-69-115-67c-21,7-17,44,10,76c30,37,75,61,157,87
		c45,14,57,22,57,38c-1,63-21,493-30,626c-14,200-27,330-47,460c-11,77-13,131-8,205c12,154,7,233-19,336c-31,122-63,190-123,270
		c-52,68-73,101-73,118c0,6,19,21,43,35c179,105,204,294,118,891c-22,154-46,348-54,432c-8,90-19,158-27,167c-20,25-80,19-172-15
		c-127-47-190-63-221-55c-23,5-27,11-27,44c0,54,47,128,129,204c81,75,172,123,251,132c112,12,135,79,135,396c-1,240-13,322-80,527
		c-163,496-467,759-900,778C2336,10157,2267,10155,2232,10150z M7620,8505c49-26,48-85-2-85c-30,0-72-26-87-53c-18-35-68-55-164-67
		c-46-6-108-17-137-26c-67-20-100-13-100,23c0,81,156,197,300,222C7497,8531,7582,8525,7620,8505z M8296,8145c25-10,35-20,32-32
		c-3-15-14-18-64-18c-53,0-69-5-122-38c-129-79-257-71-212,14C7966,8137,8202,8185,8296,8145z M2074,6362c167-78,269-260,190-339
		c-23-23-31-25-77-20c-88,9-152,36-196,81c-52,53-108,147-127,214c-14,49-14,55,1,79c16,24,21,25,81,20
		C1987,6394,2032,6382,2074,6362z M8355,6184c21-22,12-62-19-90c-53-48-248-36-276,17c-17,31,18,55,101,68c41,7,81,14,89,15
		C8292,6204,8340,6199,8355,6184z"/>
	<path class="st0" d="M68773,8444c-60-15-138-53-201-96c-175-120-407-165-917-178c-377-9-405-14-405-71c0-44,30-104,85-168
		c25-29,48-65,52-79c6-26-2-84-32-212c-65-285-33-1009,65-1500c60-297,108-418,205-516c94-95,210-138,445-166c138-17,988-17,1240,0
		c511,34,837,80,1095,153c109,31,111,32,280,25c94-3,202-10,240-15c182-24,489-35,970-35c656,0,889,16,1124,80
		c267,72,450,201,536,377c55,114,69,182,69,342c0,183-12,212-134,328c-165,157-335,219-680,246c-218,18-652,23-1035,12
		c-420-11-460-17-510-74c-53-61-54-61-375-68c-313-7-334-10-429-60c-63-34-114-37-267-14c-137,20-418,35-658,35
		c-263,0-412,13-473,42c-58,27-178,139-204,190c-27,52-25,107,6,149c53,73,70,150,85,379c20,295-23,868-68,893
		C68859,8456,68819,8457,68773,8444z M68235,7436c16-12,17-18,6-61c-21-85-95-207-181-299c-49-53-146-106-194-106h-28l4,103
		c3,89,8,111,35,169c48,102,121,174,203,199C68122,7453,68215,7451,68235,7436z M69068,6310c26-10,32-17,32-41c0-69-161-320-239-371
		c-55-37-55-11-1,80c59,99,60,117,15,227c-51,126-49,129,68,122C68993,6324,69050,6317,69068,6310z M72236,6046c43-50,75-197,51-231
		c-15-19-16-19-52-2c-44,21-137,107-166,153c-44,72-7,118,90,111C72203,6074,72218,6068,72236,6046z"/>
	<path class="st0" d="M58140,7773c-92-48-64-123,53-139c49-7,174,11,226,32l34,14l-23,25C58365,7774,58211,7810,58140,7773z"/>
	<path class="st0" d="M46880,7297c-30-13-93-49-140-79c-216-142-353-170-904-188c-333-11-394-20-413-61c-17-36,4-106,57-183
		c39-57,40-61,40-142c0-46-10-145-22-221c-29-185-32-631-5-883c49-453,145-899,216-997c32-45,109-95,225-148c109-49,176-64,343-75
		c191-12,846-12,1217,0c326,11,457,25,707,74c383,76,363,75,1564,62c1063-11,1246-1,1492,85c223,78,380,204,463,374
		c59,119,73,185,68,334c-3,114-6,132-31,183c-34,69-174,206-268,261c-120,70-300,116-539,137c-144,12-994,13-1195,0
		c-202-12-243-22-314-75c-32-25-71-50-87-56c-19-9-132-15-334-20c-319-7-356-12-419-55c-45-31-130-32-309-5c-188,29-343,40-682,51
		c-252,7-318,12-382,29c-98,25-151,60-179,118c-19,39-21,56-16,136c3,52,19,145,36,212c44,169,55,273,47,455c-8,200-33,474-51,574
		C47042,7322,46998,7346,46880,7297z M46391,6306c24-52-72-272-161-369c-78-86-164-122-210-90c-21,15-22,22-18,93
		c6,105,56,208,138,284C46245,6321,46366,6361,46391,6306z M47205,5175c88-23,92-30,55-101c-40-76-146-236-205-308
		c-48-58-79-71-90-36c-7,22,17,75,39,83c29,12,39,83,26,202c-6,61-9,118-5,128c3,9,7,24,10,32C47041,5195,47127,5195,47205,5175z
		 M50392,4933c10-9,18-29,18-44c0-62,22-130,56-170c38-46,38-44,24-70c-30-55-128,1-237,134c-81,100-81,113,7,144
		C50338,4954,50367,4955,50392,4933z"/>
	<path class="st0" d="M90085,5949c-690-15-1621-53-1915-80c-174-15-378-46-482-73c-126-33-204-62-398-149l-165-74l-106,97
		c-136,123-150,128-333,112c-237-22-941-59-2226-117c-1106-50-2250-112-2410-130c-45-5-432-26-830-45c-118-6-498-21-845-35
		c-1527-60-2016-100-2695-217c-210-36-257-41-445-45c-150-3-264,0-400,12c-285,26-836,31-1170,11c-434-26-686-36-905-36
		c-236,0-452-12-695-40c-298-34-874-67-1560-90c-1167-39-1995-109-2266-190c-84-25-100-42-70-73c11-13,21-28,21-34
		c0-48-253-23-280,28c-7,11-8,38-4,64c12,86-15,92-328,76c-392-21-605-49-741-98c-78-28-102-41-162-88c-68-54-80-58-117-39
		c-18,9-78,54-132,100c-55,46-103,84-107,84c-3,0-12-13-19-30c-18-43-68-120-79-120c-5,0-14,14-21,30c-27,64-91,86-164,56
		c-19-8-70-39-114-69c-84-58-137-81-174-75c-19,2-22,8-20,34c4,46-39,78-135,101c-69,16-125,18-473,18c-217,0-478-6-580-13
		c-580-40-1027-78-1930-167c-1123-111-1967-185-2104-185c-81,0-197-17-210-30c-17-17,23-47,154-116c71-37,139-77,151-90
		c31-34,19-54-33-54c-54,0-109,25-173,79c-27,23-56,40-64,39c-8-2-38-37-66-78c-63-91-171-185-234-204c-27-8-47-20-49-30
		c-2-9,15-57,39-107c48-106,52-154,20-259c-50-164-69-228-75-262l-7-37l47-7c126-19,2557,67,3139,111c39,3,187,14,330,25
		c527,40,1085,71,1630,90c613,22,1853,84,2705,135c223,13,652,39,953,57l548,33l91,83c135,123,261,192,349,192c27,0,39-4,39-14
		c0-25-48-54-144-86c-50-16-102-37-114-46c-88-62,84-88,539-81c312,4,354,9,401,46c21,18,23,26,20,102c-3,75,0,88,27,143
		c17,34,63,104,102,156c81,108,129,187,129,212c0,50,87,41,176-18s89-69,4-93c-60-17-90-37-90-61c0-26,15-33,89-41
		c90-9,100-22,111-145c5-54,12-143,16-198l6-98l137,6c75,3,244,11,376,16c645,28,1421,80,1845,125c221,24,453,35,858,42l382,6l10,41
		c33,132,43,166,61,195c39,65,55,25,45-120l-6-99h182c214,0,343,12,392,35c20,10,51,39,70,65c19,27,44,51,54,55c11,3,47-4,79-16
		c168-61,209-72,283-73c91-1,125,14,196,90c36,39,58,54,77,54c35,0,49-27,37-71c-8-26-7-37,5-48c23-23,170-30,465-20
		c350,11,615,25,2255,114c2421,132,3505,211,3505,255c0,40,202,157,309,179c49,10,59,9,100-11c67-34,64-70-11-122
		c-77-55,108-56,1257-6c1372,60,3299,153,4155,200c319,18,522,38,538,54c2,3-3,87-12,188c-24,273-36,515-36,781v237l-117-2
		C90488,5957,90278,5953,90085,5949z M76922,5094c106-38,268-118,301-148c31-29,32-59,4-64c-10-2-55,8-99,23c-85,27-123,27-163-1
		c-57-40-111,3-146,117c-17,56-19,72-9,84C76827,5125,76837,5124,76922,5094z M84658,5085c4-39-43-96-112-135c-76-44-166-38-166,11
		c0,30,16,55,51,80c36,25,186,80,209,76C84649,5116,84656,5102,84658,5085z M76120,4882c0-37-67-141-112-176c-23-17-47-26-72-26
		c-38,0-96,24-96,39c0,14,129,131,179,162c25,16,58,29,73,29C76116,4910,76120,4906,76120,4882z M68490,4613c0-4-18-28-40-54
		c-54-64-58-90-26-169c27-66,33-114,16-125c-31-19-160,95-237,211c-41,62-39,78,14,101C68279,4603,68490,4631,68490,4613z
		 M71531,4605c60-21,118-61,128-88c22-57-43-89-236-118c-76-11-175-29-220-39c-46-11-89-17-98-14c-32,13-10,64,28,64s86,40,111,93
		c24,51,52,84,91,105C71364,4625,71481,4622,71531,4605z M76387,4347c18-10,40-29,50-43c15-23,15-30,2-67c-21-63-48-72-175-58
		c-123,14-200,35-213,59c-22,41,13,98,74,120C76171,4375,76348,4368,76387,4347z M69178,4054c43-17,66-48,60-85c-5-39-41-49-178-49
		c-170,1-229,15-214,53c12,33,178,94,261,96C69125,4070,69157,4063,69178,4054z M69743,4004c3-4,2-14-3-24c-28-53-343-118-357-73
		c-6,18,36,51,86,68C69548,4001,69727,4020,69743,4004z M72310,3960c-21-29-57-46-82-38c-15,5,68,68,89,68
		C72328,3990,72326,3983,72310,3960z M62907,3835c55-33,56-56,2-106c-68-62-280-159-349-159c-26,0-30,5-49,63c-46,139-45,178,1,193
		c32,10,220,31,292,33C62851,3860,62872,3855,62907,3835z"/>
	<path class="st0" d="M61370,4490c-74-5-184-16-245-25c-164-23-318-29-418-16c-118,16-158,5-193-52c-71-113-134-130-134-36
		c0,21-5,50-10,65c-12,30,3,30-240,0c-128-16-418-37-780-57c-113-7-410-13-660-14c-344-2-487-6-585-18c-237-29-547-51-945-67
		c-815-32-2335-163-2985-257c-113-16-227-26-305-26c-114-1-137,2-265,36c-184,50-265,55-428,28c-154-25-297-27-375-5
		c-119,35-242,10-632-126c-107-38-204-70-214-72c-13-2-24,6-32,21c-17,33-27,38-124,52c-108,16-752,16-1125,0
		c-1037-45-2001-129-2279-201c-114-29-126-42-76-87c17-14,30-32,30-39c0-19-62-28-150-21c-128,10-153,33-131,121c14,58,7,74-37,82
		c-40,8-636-30-808-51c-189-23-242-41-407-139l-79-47l-120,87l-120,87l-92-92c-119-120-166-150-253-162c-37-5-90-15-117-21
		c-44-11-49-11-62,7c-8,10-14,39-14,64c0,56-30,125-61,142c-33,17-479,6-1024-26c-602-35-1708-93-3320-175
		c-1454-74-3763-193-5515-285c-3108-163-4865-244-5740-265c-885-21-1176-43-2885-214c-1067-107-1742-166-1908-168
		c-97-1-120-4-125-16c-8-22,60-79,157-130c45-24,95-55,111-69c47-39,37-73-21-73c-28,0-91,34-171,92c-38,28-70,49-72,47
		s-17-33-34-69c-41-86-97-148-182-205c-117-78-121-88-64-171c49-71,53-115,19-224c-47-154-78-288-71-305c6-17,35-18,509-12
		c916,11,2449,77,3312,143c190,14,468,20,665,13c41-1,131,5,200,14c137,18,363,32,770,47c932,35,1209,63,1452,146
		c143,49,206,52,348,20c159-36,301-56,395-56c224,0,675,85,675,128c0,17-37,42-63,42c-16,0-27,6-27,14c0,21,58,43,135,50
		c38,4,115,16,170,26c133,26,160,26,190-5c27-26,33-72,11-81c-7-3-56,2-109,10c-53,9-101,16-106,16c-33,0-56-79-28-97
		c43-27,286-23,1557,27c2683,106,3539,150,4725,245c763,61,1590,108,4220,240c1729,87,3044,155,3660,190c237,13,727,41,1090,61
		l660,37l70,67c85,80,141,120,240,166c76,37,141,52,171,40c16-6,16-8,0-25c-17-18-87-52-176-85c-52-18-117-73-104-86
		c35-35,439-59,707-42c283,17,296,27,273,214l-9,66l55,54c36,36,86,107,152,218c54,91,100,167,102,169c7,8,107-45,142-74
		c18-15,32-32,32-39c0-22-35-46-111-75l-74-29l40-7c85-15,115-26,127-48c6-12,15-76,19-142c9-140,29-216,65-244c16-12,49-22,92-27
		c156-17,994,28,3287,176c2343,152,3831,231,4675,250c1112,25,1514,52,1784,121c44,11,138,44,210,74c167,68,202,77,306,80
		c101,2,176,28,239,82c91,77,64,126-51,91c-60-18-64-7-44,116c24,148,23,150-138,181c-96,17-166,42-166,57c0,13,65,107,194,283
		c115,156,176,250,176,271C61750,4491,61574,4502,61370,4490z M55207,3873c11-17,17-46,18-84c0-78-19-97-110-110
		c-160-22-189,25-80,133c54,55,105,87,137,88C55182,3900,55197,3888,55207,3873z M58303,3670c44-17,57-26,57-43
		c0-34-166-189-243-227c-115-56-139-17-65,106c35,57,43,78,44,122c0,34,6,57,15,63C58133,3706,58238,3695,58303,3670z M46640,3477
		c0-7-18-36-40-66c-49-65-50-90-9-182c34-78,34-103,2-107c-33-5-77,23-158,99c-137,131-124,178,65,245
		C46574,3492,46640,3497,46640,3477z M49715,3438c46-12,118-78,113-105c-4-24-59-42-133-43c-53-1-138-20-325-74c-63-18-106-20-115-6
		s41,58,74,65c42,9,82,56,88,104c3,22,12,46,21,53C49469,3458,49623,3461,49715,3438z M56290,3284c0-42-29-74-67-74
		c-28,0-198-44-367-94c-140-41-163-36-254,57c-94,95-62,113,168,96c80-6,199-10,265-7c111,4,125,6,180,35c33,17,63,29,68,26
		C56287,3321,56290,3303,56290,3284z M43347,3144c3-9,1-32-5-52c-18-58-4-60,112-14c102,41,126,48,126,36c0-14-82-124-115-152
		c-48-43-84-42-128,1c-62,63-84,141-50,179C43307,3164,43339,3165,43347,3144z M47376,2874c38-28,40-40,8-61c-23-15-50-17-184-17
		c-86,0-162,4-169,8c-23,15,38,64,109,87c14,5,66,7,117,6C47332,2895,47354,2891,47376,2874z M47888,2861c21-13-4-48-50-72
		c-79-40-259-49-288-14c-16,19,2,49,39,65C47650,2865,47859,2880,47888,2861z M50449,2812c12-22,3-64-12-59c-19,6-50,55-43,66
		C50405,2836,50438,2832,50449,2812z M25953,1901c67-11,76-23,52-67c-42-78-241-195-338-198c-50-1-53,0-70,35c-24,50-42,139-34,171
		c8,29,37,44,117,57C25750,1910,25891,1911,25953,1901z"/>
	<path class="st0" d="M24490,2564c-63-8-180-25-260-39c-270-48-369-55-830-65c-245-5-515-11-600-15c-1362-54-2937-169-3420-250
		c-300-51-498-77-580-76c-47,0-227,8-400,17c-364,20-905,22-1270,5c-235-11-419-22-1325-76c-1209-72-6996-386-7862-426
		c-228-11-263-15-263-28c0-9,5-61,12-117c13-119,10-139-37-187c-29-30-34-40-26-56c13-23,65-45,146-60c168-34,207-67,256-220
		c17-53,33-119,36-148c6-51,5-52-23-60c-43-12-383-8-509,6c-289,31-485,78-485,115c0,19,42,53,123,100c127,75,287,243,287,303
		c0,40-30,46-200,38c-104-4-160-3-164,3c-8,13,30,40,124,87c145,72,175,115,108,152c-29,16-60,18-258,17c-124-1-371-9-550-18
		c-1538-78-3460-187-4085-232c-249-18-249-18-270-100c-18-72-63-87-85-29c-13,35-62,62-138,75c-92,16-425,13-687-5
		c-437-31-597-44-603-49c-15-16,25-1136,43-1183c8-22,198-18,1205,27c688,31,1521,73,3164,160l1509,80l106,103
		c191,185,283,247,367,247c104,0,92-42-38-136c-180-131-217-167-183-180c88-34,9723,477,10105,536c173,27,317,33,780,36l494,2l12,38
		c7,22,22,71,33,111c24,82,62,136,82,116c7-7,15-55,19-108c10-132,14-135,144-135c141,1,291,16,352,34c29,9,76,36,106,60
		c92,76,94,76,291,20c158-45,191-44,282,6c73,40,127,51,141,28c5-7,7-25,6-40c-2-23,3-31,25-39c31-12,84-11,618,20
		c193,11,663,36,1045,56c1608,81,1806,92,2135,121c461,39,652,81,905,199c149,70,165,74,192,45c17-18,27-21,60-16
		c90,14,223,83,254,132c15,22,15,27,2,40c-8,8-37,17-66,21c-74,8-84,23-91,142c-8,135-12,139-173,166c-51,8-107,18-125,20l-32,6
		l128,163c211,266,287,390,261,421C24780,2582,24683,2587,24490,2564z M24018,1985c2-28-2-93-8-146c-16-120-7-153,56-204
		c24-20,44-41,44-46c0-13-63-39-94-39c-35,0-82,44-102,95c-33,88,4,355,54,385C24001,2049,24015,2037,24018,1985z M18523,2011
		c141-49,307-144,307-176c0-20-57-20-130,0s-141,19-185-2c-33-16-39-16-63-2c-43,24-72,76-72,128c0,26,5,52,12,59
		C18409,2035,18459,2033,18523,2011z M17694,1828c-13-45-98-161-138-190c-32-23-48-28-70-24c-35,7-66,33-66,54c0,26,82,96,165,139
		C17678,1856,17705,1861,17694,1828z M17927,1264c139-35,117-103-41-125c-109-15-226,2-268,39c-24,20-23,55,2,77
		C17658,1289,17808,1293,17927,1264z M2325,340c60-16,115-42,115-54c0-41-68-86-130-86c-47,0-209,65-217,87c-3,7,2,24,11,38
		c15,23,22,25,99,25C2248,350,2303,345,2325,340z"/>
</g>
</svg>
