<?xml version="1.0" standalone="no"?>
<!DOCTYPE svg PUBLIC "-//W3C//DTD SVG 20010904//EN"
 "http://www.w3.org/TR/2001/REC-SVG-20010904/DTD/svg10.dtd">
<svg version="1.0" xmlns="http://www.w3.org/2000/svg"
 width="9075.000000pt" height="1658.000000pt" viewBox="0 0 9075.000000 1658.000000"
 preserveAspectRatio="xMidYMid meet">

<g transform="translate(0.000000,1658.000000) scale(0.100000,-0.100000)"
fill="#000000" stroke="none">
<path d="M89555 16489 c-545 -25 -2425 -128 -3640 -199 -2243 -131 -4097 -227
-4983 -260 -161 -6 -413 -20 -560 -30 -339 -26 -873 -54 -1492 -80 -841 -35
-1004 -51 -1187 -119 -123 -45 -163 -48 -253 -17 -156 55 -387 57 -635 6 -185
-38 -300 -82 -393 -152 -29 -22 -60 -37 -67 -34 -13 5 -26 40 -55 154 l-11 43
-92 -6 c-845 -55 -2475 -127 -3852 -170 -1508 -47 -1999 -86 -2441 -190 -56
-13 -198 -52 -315 -85 -117 -34 -220 -62 -229 -63 -8 0 -57 30 -109 66 -118
84 -170 101 -295 95 -162 -8 -316 -74 -698 -299 -133 -78 -247 -142 -253 -143
-7 0 -65 47 -128 106 -63 59 -127 113 -142 120 -25 11 -29 10 -49 -16 -42 -56
-86 -98 -98 -94 -8 3 -13 21 -13 44 0 45 -16 71 -69 113 -59 47 -138 72 -246
78 -157 9 -1309 -61 -2694 -163 l-619 -45 -116 -122 c-64 -67 -143 -150 -175
-185 -33 -34 -60 -61 -61 -60 -2 2 4 55 13 118 24 178 23 182 -18 202 -48 25
-169 23 -722 -7 -551 -30 -1254 -65 -2133 -105 -2463 -113 -3767 -183 -4030
-216 -200 -25 -216 -39 -351 -304 -94 -186 -134 -231 -221 -255 -153 -42 -251
-77 -278 -99 -58 -49 -80 -28 -109 103 -23 102 -21 103 136 112 162 8 226 36
289 122 37 51 38 84 4 93 -33 8 -79 -1 -193 -37 -51 -16 -110 -29 -131 -29
-40 0 -82 25 -101 60 -14 26 6 36 131 61 121 24 218 61 250 95 39 41 16 46
-191 40 -212 -6 -1130 -40 -1515 -56 -743 -31 -1209 -90 -1662 -212 -151 -40
-153 -41 -196 -24 -23 8 -63 33 -89 55 -79 65 -118 69 -383 40 -225 -24 -354
-30 -860 -39 -1009 -18 -2367 -78 -2725 -121 -179 -21 -413 -74 -725 -164 -88
-25 -191 -49 -230 -51 l-70 -6 -50 42 c-137 116 -299 147 -465 91 -112 -38
-391 -184 -797 -417 l-33 -19 -92 91 c-180 176 -196 183 -224 107 -21 -60 -56
-98 -79 -89 -13 5 -16 14 -12 39 11 72 -68 152 -186 189 -77 24 -131 18 -219
-24 -89 -42 -166 -46 -418 -18 -170 19 -238 22 -395 17 -104 -3 -235 -13 -290
-21 -219 -32 -1004 -86 -2065 -141 -1491 -77 -2516 -133 -2900 -160 -426 -29
-550 -34 -850 -33 -302 1 -442 -4 -1685 -63 -2925 -136 -7976 -410 -9220 -500
-453 -32 -503 -46 -593 -161 -141 -181 -177 -216 -207 -204 -20 7 -20 98 0
226 8 52 15 97 15 100 0 3 -35 2 -78 -2 -298 -29 -953 -66 -2212 -123 -2591
-118 -2873 -133 -2985 -160 -93 -22 -376 -40 -1030 -65 -645 -25 -898 -49
-1095 -107 -220 -65 -241 -66 -340 -23 -110 48 -183 63 -280 57 -204 -12 -561
-115 -707 -203 -31 -19 -62 -34 -67 -34 -6 1 -27 29 -47 63 -28 50 -45 67 -84
86 l-48 25 -281 -13 c-758 -32 -2979 -154 -3311 -181 -66 -5 -203 -17 -305
-25 -883 -71 -6125 -342 -7455 -385 -1865 -60 -2749 -136 -3875 -330 -392 -67
-500 -83 -554 -78 l-38 3 41 55 c44 59 50 77 26 87 -23 8 -1015 -27 -1430 -52
-470 -28 -505 -31 -505 -52 0 -9 18 -57 39 -108 47 -108 68 -208 76 -362 6
-119 20 -180 46 -196 28 -17 70 2 118 55 99 109 129 138 146 138 15 0 16 -8
10 -68 -5 -51 -3 -78 10 -112 29 -80 30 -89 4 -94 -13 -3 -55 -7 -94 -9 -82
-5 -237 -53 -313 -98 -65 -37 -66 -27 25 -226 l67 -143 51 0 c77 0 489 28 665
46 220 21 440 50 702 89 278 43 348 45 389 11 41 -35 112 -41 324 -27 477 30
1014 53 1795 76 1134 34 1436 73 1884 244 151 58 196 70 196 54 0 -5 -7 -44
-15 -87 -8 -44 -14 -81 -11 -83 2 -2 127 3 277 12 151 8 1449 74 2884 145
2605 130 4713 239 5895 305 639 36 716 41 1185 75 851 62 2957 172 4995 260
1368 59 1805 85 1944 113 57 11 61 14 84 59 25 49 132 168 152 168 20 0 80
-73 108 -132 31 -65 45 -71 132 -58 207 33 3918 217 4925 245 343 10 1533 75
3085 170 2123 130 3271 186 4980 245 685 23 1108 43 1530 71 197 13 410 20
601 19 163 0 428 7 590 15 340 17 1744 102 1835 111 l62 5 89 137 c50 75 109
156 132 178 22 23 41 49 41 57 0 9 -16 37 -36 62 -25 33 -32 51 -25 58 23 23
431 -24 467 -54 21 -17 17 -86 -11 -180 -25 -82 -25 -84 -7 -108 45 -61 264
-88 627 -77 524 15 927 67 993 128 34 32 29 93 -18 227 -22 63 -40 118 -40
123 0 12 178 10 200 -2 23 -12 37 -79 46 -223 4 -59 10 -109 14 -112 3 -2 89
-12 191 -21 469 -42 1440 22 1567 104 19 12 4 44 -79 174 -80 124 -119 210
-119 263 0 45 11 45 110 -5 138 -69 290 -99 335 -66 27 20 13 46 -81 146 -91
97 -90 98 39 123 112 22 379 57 436 57 58 0 71 -12 71 -67 0 -60 19 -143 41
-179 21 -34 56 -54 97 -54 56 0 59 -10 29 -112 -30 -104 -33 -146 -14 -171 14
-20 112 -40 267 -56 170 -17 610 -44 616 -38 3 3 11 43 18 88 16 107 26 125
79 140 48 14 258 18 300 6 34 -9 33 -36 -1 -53 -41 -21 -47 -32 -28 -53 22
-24 89 -41 166 -41 138 0 196 68 169 198 -6 31 -14 74 -16 95 l-5 37 38 0 c22
0 68 -5 103 -10 81 -14 143 -4 178 27 95 83 403 218 403 176 0 -17 -84 -91
-210 -184 -69 -51 -177 -135 -240 -187 l-115 -95 390 7 c1215 21 1890 54 2685
131 332 32 526 33 653 3 81 -20 117 -22 311 -21 138 1 222 5 229 12 5 5 14 81
18 168 14 289 28 358 80 418 17 19 29 41 26 49 -3 7 -35 21 -71 31 -36 10 -66
21 -66 25 0 16 149 63 176 56 36 -9 124 -94 195 -189 98 -130 72 -141 -83 -36
-31 22 -61 39 -66 39 -8 0 -36 -256 -37 -342 0 -93 64 -123 290 -138 224 -15
595 0 2060 80 1621 89 4105 220 4470 235 468 19 662 31 815 50 143 18 200 37
229 75 25 35 37 37 64 13 49 -45 646 -27 3157 92 2454 117 2980 155 2980 215
0 6 9 19 20 30 39 39 135 21 151 -29 20 -60 706 -15 786 51 28 23 35 96 34
333 0 132 3 246 8 253 5 8 39 20 77 28 100 21 358 53 365 46 3 -4 14 -54 23
-112 32 -192 45 -214 121 -203 54 7 57 1 64 -156 6 -117 7 -125 31 -142 37
-28 109 -37 375 -49 132 -5 281 -13 330 -16 l91 -6 18 78 c26 109 48 150 89
163 51 17 257 18 296 1 28 -11 32 -17 29 -44 -2 -25 -9 -33 -35 -41 -39 -11
-41 -19 -10 -39 34 -22 106 -29 177 -16 125 23 146 46 161 181 6 52 18 104 26
117 14 22 18 23 101 17 104 -8 148 4 259 72 113 68 214 113 271 120 77 9 68
-11 -44 -92 -266 -193 -334 -246 -396 -304 -83 -77 -87 -95 -20 -87 97 12 791
36 1602 56 977 24 2122 63 2340 81 260 21 290 35 290 134 0 46 9 65 36 75 34
13 85 -5 156 -57 91 -67 118 -73 357 -73 215 0 456 11 1381 60 965 52 3141
157 4035 195 784 33 1336 64 1705 95 342 29 770 56 1315 85 904 47 944 53
1069 150 78 60 150 100 215 119 60 18 128 21 150 7 18 -12 -6 -25 -96 -52 -81
-25 -161 -66 -173 -90 -18 -33 14 -43 177 -51 85 -5 247 -7 360 -6 l205 3 110
170 c163 252 192 283 219 234 8 -16 8 -33 -1 -68 -13 -51 -30 -82 -103 -185
l-49 -69 708 6 c390 3 833 11 984 17 1005 38 1691 80 2190 136 273 30 783 102
817 115 24 9 25 11 18 87 -3 42 -18 172 -31 287 -44 375 -54 488 -54 633 l0
142 -177 -2 c-98 0 -254 -5 -348 -9z m-6242 -519 c14 -11 31 -37 38 -57 16
-49 6 -149 -19 -200 -25 -47 -77 -95 -101 -91 -9 2 -27 25 -40 51 -20 41 -25
69 -29 168 -3 87 -1 123 8 134 19 23 111 20 143 -5z m3117 -98 c86 -33 215
-98 268 -134 85 -58 37 -78 -131 -53 -149 22 -291 59 -343 90 -54 32 -59 63
-14 95 63 45 109 46 220 2z m-12022 -498 c3 -34 -28 -70 -53 -61 -18 8 -20 68
-3 85 23 23 53 10 56 -24z m5104 -85 c18 -24 18 -29 5 -60 -29 -69 -118 -134
-199 -145 -49 -7 -98 9 -98 30 0 24 56 81 142 147 89 67 118 72 150 28z
m-10487 -28 c44 -20 115 -92 115 -117 0 -9 -29 -28 -77 -50 -133 -61 -168 -59
-213 13 -17 26 -30 57 -30 69 0 87 105 131 205 85z m11176 -178 c14 -36 4 -94
-18 -111 -13 -10 -56 -12 -168 -10 -178 4 -188 0 -232 -89 -23 -47 -33 -58
-53 -58 -24 0 -25 2 -25 77 0 62 4 82 21 105 20 26 27 28 115 34 104 7 146 17
234 53 82 34 113 34 126 -1z m-11342 -68 c18 -18 7 -43 -24 -55 -14 -5 -25
-14 -25 -19 0 -5 23 -28 51 -52 44 -36 48 -44 34 -52 -24 -13 -97 -2 -143 22
-43 22 -112 93 -112 115 0 20 27 45 53 51 12 2 31 6 42 9 32 7 109 -5 124 -19z
m2034 15 c37 -6 85 -19 106 -29 47 -24 102 -86 95 -106 -7 -17 -58 -37 -184
-70 -136 -36 -155 -34 -205 18 -49 52 -79 110 -71 142 12 46 120 65 259 45z
m-1639 -135 c-2 -50 -32 -145 -57 -180 -18 -24 -55 -14 -102 27 -55 48 -60 62
-36 111 29 59 91 99 151 95 l45 -3 -1 -50z m6880 -133 c72 -40 78 -54 36 -97
-75 -78 -279 -112 -288 -48 -5 31 156 171 198 172 3 0 27 -12 54 -27z m-11501
-188 c18 -9 53 -34 79 -56 60 -50 157 -108 180 -108 26 0 22 -15 -8 -39 -50
-39 -166 -25 -260 31 -65 39 -87 75 -78 125 12 66 30 76 87 47z m-9154 -148
c12 -11 21 -31 21 -44 0 -18 15 -40 50 -72 28 -25 50 -51 50 -58 0 -35 -143
-97 -252 -109 -81 -8 -103 0 -121 46 -40 99 -59 244 -34 255 6 3 69 4 138 3
109 -2 130 -5 148 -21z m-2577 -43 c29 -25 42 -83 42 -188 1 -121 -8 -127 -88
-66 -104 78 -138 212 -67 256 42 26 81 26 113 -2z m4408 -28 c12 -15 12 -22
-6 -150 -7 -50 16 -84 80 -113 56 -27 63 -38 34 -53 -49 -26 -214 -69 -265
-69 -49 0 -57 4 -98 41 -29 27 -45 50 -45 65 0 22 4 24 44 24 61 0 84 22 98
95 20 107 29 136 49 156 23 23 91 26 109 4z m6725 -99 c44 -9 122 -15 173 -16
108 0 161 -20 187 -71 18 -35 17 -120 -2 -126 -20 -7 -61 41 -73 86 -17 64
-32 67 -178 31 -147 -36 -239 -41 -277 -16 -22 14 -25 24 -25 70 0 29 3 56 8
60 8 9 74 3 187 -18z m-10255 -104 c44 -36 -3 -77 -129 -113 -82 -24 -169 -25
-178 -4 -12 34 76 90 187 119 74 20 94 19 120 -2z m-6567 -61 c93 -94 92 -100
-42 -171 -123 -66 -166 -108 -157 -153 8 -40 -8 -57 -56 -57 -75 0 -148 62
-148 125 0 50 24 59 132 50 75 -6 89 -4 94 9 8 22 -12 69 -42 97 -33 31 -30
63 7 96 35 32 107 73 128 73 8 0 46 -31 84 -69z m-1680 -78 c52 -28 277 -237
277 -257 0 -18 -161 -116 -189 -116 -20 0 -53 28 -146 122 -125 128 -163 186
-151 232 15 61 113 70 209 19z m3571 -127 c20 -8 58 -36 86 -62 53 -49 64 -86
33 -103 -29 -15 -265 -74 -301 -75 -31 -1 -34 2 -51 52 -12 33 -34 70 -60 96
-22 23 -41 45 -41 49 0 11 82 46 133 57 55 12 156 5 201 -14z m4549 3 c47 -24
119 -85 139 -117 40 -65 -6 -111 -99 -97 -110 16 -148 53 -147 141 1 30 7 60
14 69 15 18 62 20 93 4z m-6225 -88 c4 -24 -40 -176 -64 -223 -8 -16 -21 -28
-30 -28 -18 0 -164 97 -164 109 0 15 128 130 168 151 49 26 86 23 90 -9z
m-7004 -81 c32 -5 118 -12 190 -16 72 -4 139 -11 149 -16 45 -23 -5 -71 -148
-139 -118 -56 -238 -91 -297 -87 -40 3 -43 5 -44 31 -1 33 -17 47 -57 47 -97
0 -117 86 -35 149 51 38 134 49 242 31z m13133 -114 c13 -13 -20 -24 -121 -40
-160 -24 -315 -38 -396 -34 l-75 3 55 27 c52 24 142 43 250 52 69 6 280 0 287
-8z m-8227 -21 c0 -53 -116 -84 -194 -51 -22 9 -36 19 -32 23 8 8 174 51 204
52 17 1 22 -4 22 -24z m-2104 -114 c77 -35 174 -141 160 -176 -7 -20 -87 -20
-157 1 -69 20 -167 72 -180 95 -11 21 4 68 28 87 25 18 102 14 149 -7z m-532
-24 c18 -13 18 -15 -1 -58 -48 -108 -229 -198 -318 -157 -32 14 -32 25 5 75
76 103 255 183 314 140z m-2694 -208 c73 -16 103 -44 104 -100 1 -38 -2 -44
-21 -47 -13 -2 -81 14 -153 35 -117 34 -129 40 -124 58 17 56 90 76 194 54z
m3028 -94 c74 -18 122 -40 122 -58 0 -15 -86 -100 -117 -116 -30 -15 -88 -14
-207 5 -128 20 -166 35 -166 66 0 94 186 146 368 103z m-15252 -561 c122 -73
180 -124 171 -148 -5 -13 -22 -16 -79 -16 -88 0 -157 28 -206 84 -28 32 -32
44 -32 91 0 73 9 72 146 -11z m-738 -249 c35 -9 133 -20 217 -25 175 -10 207
-20 225 -75 13 -40 5 -91 -18 -117 -29 -33 -42 -22 -42 35 0 75 -14 90 -81 88
-63 -1 -280 -36 -345 -56 -62 -18 -74 -5 -74 84 0 69 12 95 40 87 8 -3 44 -12
78 -21z m-5974 -91 c20 -20 20 -66 0 -105 -19 -39 -121 -105 -180 -117 -63
-14 -116 1 -112 31 6 40 217 205 265 207 6 0 19 -7 27 -16z m-8497 -469 c32
-25 84 -64 115 -88 32 -23 58 -45 58 -48 0 -3 -29 -9 -66 -13 -92 -9 -163 -39
-253 -106 l-78 -58 -6 83 c-3 46 -12 111 -19 145 -15 75 -8 89 58 112 86 30
124 24 191 -27z m-9865 -75 c4 -19 10 -53 14 -74 4 -27 16 -49 39 -70 18 -17
36 -42 40 -56 9 -36 -29 -87 -90 -121 -65 -37 -238 -83 -283 -75 -63 10 -162
110 -162 163 0 50 85 114 304 228 104 54 128 55 138 5z m15003 -4 c28 -12 35
-20 35 -44 0 -33 -38 -74 -90 -95 -44 -18 -167 -40 -198 -36 -23 4 -23 5 16
65 42 65 85 98 148 113 54 13 51 13 89 -3z m-12790 -140 c77 -19 148 -49 174
-75 16 -16 21 -34 21 -79 0 -32 5 -63 12 -70 7 -7 43 -12 90 -12 93 0 107 -14
62 -61 -39 -41 -111 -73 -231 -103 -55 -14 -108 -28 -116 -32 -27 -10 -318
332 -333 393 -8 30 4 42 48 54 43 11 197 2 273 -15z m-3001 -280 c65 -27 56
-108 -21 -176 -25 -22 -64 -45 -86 -51 -60 -16 -68 0 -65 125 3 97 4 100 28
107 43 12 109 10 144 -5z"/>
<path d="M84643 14519 c-142 -13 -166 -40 -191 -210 -24 -160 -149 -309 -259
-309 -30 0 -43 4 -43 14 0 8 30 52 66 98 129 162 150 268 60 298 -94 31 -593
-99 -921 -239 -213 -92 -394 -223 -643 -466 -367 -357 -590 -667 -806 -1117
-316 -659 -456 -1413 -425 -2288 31 -873 188 -1559 499 -2181 152 -302 315
-550 470 -712 354 -371 868 -710 1122 -742 65 -8 83 -23 91 -80 8 -53 33 -83
97 -122 190 -115 605 -196 1250 -245 100 -8 359 -13 655 -13 420 0 507 3 607
18 244 37 427 98 558 187 81 55 221 195 240 239 12 31 12 35 -5 47 -10 8 -41
17 -68 20 -75 10 -91 31 -82 108 8 74 39 134 75 144 71 20 358 1 675 -44 156
-23 188 -25 247 -15 137 23 230 83 401 261 527 545 868 1286 996 2165 93 637
91 1459 -5 2045 -50 306 -193 814 -264 938 -33 57 -82 97 -175 144 -82 41
-125 75 -125 99 0 11 18 50 40 86 24 40 40 79 40 98 0 48 -121 250 -264 440
-236 314 -560 609 -888 808 -434 263 -1029 462 -1518 507 -292 26 -1298 40
-1507 19z m604 -308 c147 -83 35 -221 -179 -221 -112 0 -148 29 -148 117 0
104 46 136 190 131 77 -3 103 -8 137 -27z m-2051 -956 c16 -25 16 -27 -7 -51
-38 -41 -176 -104 -242 -111 -68 -7 -72 3 -28 64 56 77 134 122 213 123 40 0
50 -4 64 -25z m2459 -25 c250 -21 409 -64 625 -171 240 -119 426 -256 625
-460 141 -145 211 -236 318 -414 43 -71 95 -147 115 -168 33 -34 41 -38 72
-33 109 18 116 18 127 5 6 -9 13 -98 16 -234 5 -216 24 -431 73 -830 94 -773
114 -1038 96 -1273 -22 -266 -17 -301 51 -337 20 -11 37 -26 37 -32 0 -7 -37
-37 -83 -66 -210 -136 -305 -296 -327 -551 -15 -181 -21 -192 -164 -310 -186
-154 -365 -348 -407 -442 -41 -92 -89 -124 -183 -124 -169 0 -309 -75 -390
-209 -67 -110 -95 -120 -316 -121 -564 0 -1272 197 -2016 561 -224 109 -233
117 -232 226 1 57 -6 102 -26 168 -55 181 -151 380 -199 409 -20 12 -86 -8
-397 -126 -241 -91 -408 -148 -437 -148 -13 0 -23 6 -23 14 0 26 91 115 171
166 147 94 246 130 391 140 203 14 209 37 108 467 -83 352 -111 555 -130 933
-26 516 26 970 161 1387 218 673 581 1128 1104 1384 235 115 456 172 745 192
106 8 384 6 495 -3z m2484 -751 c35 -5 77 -17 93 -25 28 -14 29 -17 14 -33
-23 -25 -138 -77 -215 -97 -94 -24 -280 -16 -337 13 -75 40 -64 77 32 113 99
36 286 50 413 29z m-6265 -1754 c101 -63 166 -113 166 -126 0 -17 -59 -9 -182
26 -183 53 -215 79 -164 130 40 40 79 34 180 -30z m809 -300 c36 -30 71 -64
77 -76 17 -30 5 -64 -27 -79 -32 -15 -214 -26 -267 -16 -49 9 -47 33 11 115
94 135 106 138 206 56z m5158 -3175 c24 -23 30 -37 27 -62 -3 -30 -7 -33 -38
-36 -19 -2 -86 4 -150 13 -180 26 -186 29 -122 60 66 32 146 54 200 54 46 1
58 -3 83 -29z"/>
<path d="M67930 14403 c-30 -11 -50 -37 -50 -64 0 -22 9 -34 38 -52 60 -38
170 -78 205 -75 31 3 32 4 35 59 3 64 -19 102 -74 125 -33 14 -125 18 -154 7z"/>
<path d="M78450 14144 c-30 -3 -167 -15 -305 -29 -137 -13 -349 -31 -470 -40
-121 -8 -287 -20 -369 -26 -248 -17 -297 -32 -307 -91 -11 -71 -71 -139 -165
-187 -49 -26 -64 -21 -99 29 -53 77 -76 71 -350 -85 -120 -69 -227 -125 -237
-125 -14 0 -18 8 -18 33 0 42 -28 86 -80 128 -89 72 -111 95 -124 134 -11 31
-21 43 -47 52 -65 23 -546 12 -994 -23 -493 -38 -780 -107 -904 -219 -113
-102 -171 -388 -126 -622 19 -99 81 -229 139 -291 136 -146 405 -181 1371
-182 442 0 888 -13 984 -29 31 -5 60 -16 67 -25 35 -49 63 -428 109 -1511 62
-1434 81 -1675 176 -2165 27 -140 55 -307 61 -371 11 -113 11 -119 -21 -280
-50 -259 -53 -516 -6 -649 19 -55 76 -139 159 -235 l69 -80 -74 -5 c-133 -10
-169 -60 -177 -244 -9 -215 33 -436 117 -611 129 -269 332 -428 667 -524 127
-37 208 -40 309 -11 243 68 522 307 409 350 -14 6 -42 10 -63 10 -63 0 -220
-45 -310 -89 -47 -23 -94 -41 -104 -41 -18 0 -19 4 -11 43 15 80 10 108 -24
138 -18 16 -32 31 -32 34 0 9 220 6 410 -6 277 -18 306 -9 349 105 47 126 35
330 -29 491 -34 86 -38 143 -12 182 36 57 10 309 -38 357 -19 19 -20 19 -120
-4 -104 -23 -239 -25 -261 -3 -32 32 68 88 279 158 l143 47 -5 62 c-48 503
-216 3766 -243 4718 l-6 237 29 11 c34 13 138 38 364 86 365 79 406 106 459
304 25 94 45 113 110 104 97 -14 551 -149 551 -164 0 -5 -26 -23 -57 -41 -76
-42 -103 -67 -103 -96 0 -53 156 -75 379 -54 201 20 292 50 415 137 40 28 57
34 100 34 67 0 104 23 162 102 105 143 192 368 201 520 5 81 4 90 -25 151 -53
114 -166 207 -341 283 -122 53 -268 77 -631 105 -140 10 -1187 21 -1300 13z
m-251 -158 c16 -19 -7 -85 -79 -223 -129 -247 -233 -373 -359 -436 -93 -47
-168 -50 -114 -6 9 8 22 29 30 46 11 28 11 38 -3 75 -44 114 -25 193 72 297
80 86 254 201 367 241 63 23 71 24 86 6z m1792 -462 c42 -51 -174 -234 -277
-234 -48 0 -84 16 -84 39 0 53 238 201 336 210 6 1 17 -6 25 -15z m-2801 -26
c28 -9 46 -21 48 -32 6 -28 -43 -91 -85 -111 -81 -39 -193 -16 -193 40 0 30
-50 65 -92 65 -32 0 -58 9 -58 20 0 5 8 16 17 25 15 15 35 17 167 12 87 -3
170 -11 196 -19z m-1212 -393 c46 -20 77 -48 92 -86 17 -39 0 -59 -50 -59 -53
0 -133 -30 -263 -99 -111 -59 -177 -77 -177 -48 0 43 116 197 187 248 82 58
145 71 211 44z m4193 -85 c54 -30 -58 -65 -182 -58 -56 3 -85 10 -97 21 -22
23 -7 36 54 47 60 11 197 5 225 -10z m-2984 -389 c83 -40 98 -63 89 -149 -3
-37 -9 -77 -12 -89 -12 -44 29 -66 196 -106 225 -54 280 -84 280 -151 0 -37
-22 -34 -137 18 -126 56 -222 86 -303 93 -69 6 -103 21 -119 52 -6 10 -22 73
-36 139 -14 67 -32 140 -40 163 -24 68 -10 73 82 30z m146 -817 c226 -92 259
-120 204 -172 -56 -52 -129 -63 -249 -36 -103 23 -118 42 -118 141 0 43 3 88
6 101 8 27 6 27 157 -34z m-36 -610 c111 -28 264 -90 243 -98 -70 -25 -174
-49 -215 -50 l-50 -1 0 43 c0 48 -23 75 -101 119 l-39 22 35 -5 c19 -3 77 -17
127 -30z m208 -429 c132 -49 270 -115 323 -154 88 -65 42 -111 -111 -111 -150
0 -265 34 -341 101 -69 61 -97 129 -76 184 10 26 13 27 58 23 26 -3 92 -22
147 -43z m-206 -1946 c69 -46 132 -114 162 -177 26 -53 20 -92 -15 -92 -31 0
-244 48 -267 61 -34 18 -49 52 -49 111 0 140 56 172 169 97z m598 -561 c16
-16 16 -19 -1 -37 -26 -29 -98 -50 -191 -57 -68 -6 -83 -4 -94 10 -21 25 14
67 75 89 64 22 186 20 211 -5z m-334 -413 c46 -20 -3 -51 -128 -81 -79 -19
-145 -49 -145 -66 0 -18 -93 -2 -155 27 -50 24 -56 30 -53 53 4 34 51 59 134
72 67 10 320 7 347 -5z"/>
<path d="M71485 13724 c-329 -47 -462 -76 -501 -106 -23 -19 -24 -22 -10 -36
8 -8 34 -25 58 -37 24 -12 44 -29 46 -38 5 -27 -56 -47 -146 -47 -106 0 -151
23 -212 110 -26 36 -53 66 -61 68 -8 1 -36 -18 -61 -43 -42 -41 -50 -45 -94
-45 -27 0 -112 12 -189 26 -100 18 -191 27 -321 31 -214 7 -293 -6 -449 -69
-122 -50 -209 -59 -330 -34 -239 48 -999 57 -1347 15 -177 -21 -417 -119 -514
-210 -122 -116 -258 -336 -252 -408 3 -32 7 -37 43 -49 22 -8 100 -18 173 -22
156 -10 234 -30 273 -70 36 -35 36 -54 3 -85 -35 -32 -97 -41 -154 -20 -110
39 -309 57 -345 31 -18 -13 -18 -14 4 -42 27 -34 91 -89 179 -151 35 -25 62
-49 60 -53 -2 -4 -69 -63 -150 -131 -140 -117 -148 -125 -148 -159 0 -20 18
-272 40 -560 62 -821 84 -1202 100 -1710 9 -296 15 -347 46 -381 25 -28 123
-61 159 -55 34 7 96 67 193 187 152 190 177 112 47 -148 -96 -191 -110 -203
-253 -214 -80 -6 -99 -10 -113 -28 -23 -28 -32 -103 -25 -193 32 -380 70 -754
78 -759 5 -3 61 -14 124 -24 85 -13 139 -16 212 -11 243 17 654 134 716 204
14 17 19 40 22 101 2 66 8 90 31 133 37 69 85 102 136 94 43 -7 101 -34 163
-77 66 -45 88 -47 124 -7 17 18 38 57 47 87 13 46 13 65 3 128 -12 79 -4 126
26 137 98 38 1987 180 2562 193 155 3 282 7 282 7 0 1 -7 26 -15 56 -21 80
-19 165 5 216 24 49 91 114 147 142 83 42 184 75 194 65 6 -6 -11 -41 -52
-104 -80 -121 -122 -218 -123 -286 -1 -84 6 -87 192 -91 186 -4 306 13 461 64
302 100 394 218 395 504 0 196 -37 295 -153 410 -59 59 -98 87 -176 127 -166
85 -367 139 -604 164 -145 15 -548 6 -690 -15 -454 -69 -1003 -225 -1041 -296
-17 -32 22 -43 175 -50 203 -9 221 -25 161 -144 -86 -171 -175 -232 -176 -120
0 50 -54 118 -153 193 -114 85 -151 124 -153 159 l-1 27 -169 -3 c-130 -3
-186 0 -244 13 -159 34 -303 55 -515 75 -121 11 -237 22 -257 25 l-38 5 -84
-167 c-120 -240 -207 -356 -252 -339 -23 9 -15 44 62 271 74 221 94 324 94
482 0 137 -19 238 -66 353 -84 204 -85 212 -28 230 132 44 149 162 89 590 -33
232 -37 371 -12 418 24 43 135 97 232 112 127 20 424 29 940 30 534 0 795 10
900 35 34 8 108 33 165 55 60 25 126 44 159 47 l56 4 -53 -48 c-29 -26 -52
-51 -52 -55 0 -17 89 -19 396 -9 760 26 1052 56 1242 127 176 65 344 242 359
377 6 52 -20 89 -83 119 -103 48 -227 237 -240 364 -7 64 5 104 31 104 8 0 43
-14 79 -32 82 -40 100 -35 91 29 -12 88 -56 125 -198 172 -146 47 -285 72
-537 96 -249 25 -395 19 -735 -31z m-876 -320 c118 -30 197 -81 160 -105 -20
-12 -188 -11 -250 2 -28 6 -60 20 -70 30 -22 22 -25 59 -7 77 17 17 90 15 167
-4z m-2594 -69 c253 -33 260 -51 30 -81 -118 -15 -625 -32 -625 -20 0 32 86
102 142 117 46 12 310 3 453 -16z m1920 -364 c29 -13 47 -31 65 -63 23 -44 23
-47 7 -72 -19 -28 -182 -116 -216 -116 -19 0 -70 73 -137 198 -25 45 -27 54
-14 62 8 5 69 10 135 10 95 0 128 -4 160 -19z m-2139 -680 c39 -24 67 -90 62
-152 -3 -42 -5 -44 -36 -47 -43 -4 -132 38 -167 79 -33 40 -35 101 -3 123 31
22 106 20 144 -3z m404 -1940 c125 -107 157 -350 70 -522 -32 -61 -53 -66
-163 -40 -51 12 -155 32 -231 44 l-137 22 96 80 c52 44 121 97 153 117 106 70
100 62 77 88 -11 12 -31 29 -46 37 -33 19 -61 66 -53 87 3 8 22 18 42 21 48 8
66 18 70 39 7 35 -9 68 -56 113 l-47 46 90 -47 c50 -25 110 -63 135 -85z m644
-517 c10 -4 16 -18 16 -39 0 -39 -25 -59 -97 -76 -60 -15 -73 -25 -73 -56 0
-29 31 -92 57 -115 30 -28 89 -48 140 -48 62 -1 132 -15 146 -29 19 -19 -9
-59 -60 -84 -65 -33 -136 -47 -276 -54 -146 -8 -154 -12 -137 -81 19 -72 9
-82 -89 -82 -93 -1 -151 -13 -168 -36 -7 -10 -13 -37 -13 -60 0 -78 -35 -89
-114 -35 -75 50 -81 66 -80 214 0 153 15 229 50 256 14 11 56 31 93 46 66 25
206 102 361 198 109 68 200 98 244 81z m1951 -95 c146 -58 269 -129 273 -158
9 -62 -58 -133 -196 -206 -47 -25 -86 -44 -87 -43 -2 2 3 44 11 93 8 50 15
120 16 157 4 82 -7 96 -114 148 -84 41 -103 67 -42 56 22 -4 84 -25 139 -47z"/>
<path d="M68409 9547 c-134 -59 -203 -116 -197 -161 8 -54 149 -74 251 -36 75
28 112 69 112 125 0 52 -30 99 -66 103 -13 1 -58 -13 -100 -31z"/>
<path d="M61755 13390 c-379 -24 -1129 -130 -1353 -190 -351 -96 -575 -434
-611 -921 -15 -212 8 -389 70 -525 43 -95 46 -137 16 -210 -38 -90 -52 -213
-38 -343 11 -103 49 -269 74 -319 29 -59 72 -54 147 16 45 41 53 53 57 93 7
63 -14 105 -104 200 -80 86 -91 117 -50 144 34 22 139 63 204 80 66 17 83 9
83 -39 0 -54 50 -119 135 -176 42 -29 73 -55 69 -60 -5 -4 -50 -41 -100 -83
-88 -72 -134 -127 -134 -159 0 -24 24 -38 79 -47 28 -4 61 -17 72 -27 28 -26
59 -87 59 -119 0 -24 -3 -25 -54 -25 -29 0 -120 9 -201 20 -200 27 -239 26
-270 -5 -24 -23 -25 -29 -25 -162 0 -76 9 -266 20 -423 25 -372 110 -1462 115
-1477 2 -6 43 -23 92 -38 149 -44 159 -48 143 -53 -29 -9 -255 -93 -258 -96
-5 -6 37 -687 54 -866 8 -90 22 -200 31 -245 21 -107 20 -225 -2 -300 -21 -72
-23 -195 -3 -250 22 -60 48 -73 171 -84 120 -11 180 -33 222 -83 33 -39 34
-90 0 -123 -31 -32 -48 -31 -176 6 -128 38 -153 35 -176 -19 -42 -100 -27
-521 21 -587 12 -16 15 -16 52 3 21 12 75 50 119 86 104 86 203 138 253 134
88 -7 25 -65 -239 -218 -62 -36 -132 -83 -157 -105 l-44 -40 21 -87 c23 -99
88 -267 133 -348 45 -80 82 -124 136 -160 60 -40 113 -38 178 9 24 17 64 45
88 62 25 18 51 29 62 26 15 -3 5 -18 -57 -78 -91 -87 -99 -106 -66 -145 22
-25 33 -29 94 -32 121 -7 233 32 421 146 118 72 206 117 290 149 147 55 184
89 235 218 18 44 48 102 67 128 19 27 44 63 54 79 20 31 20 31 -3 49 -12 10
-47 23 -79 30 -83 17 -190 72 -267 137 -171 145 -176 147 -237 107 -43 -29
-118 -46 -118 -27 0 15 82 72 180 125 167 90 199 123 212 220 8 63 43 147 75
182 45 50 75 65 130 65 53 0 54 1 70 38 27 65 13 328 -54 957 -12 115 -17 253
-17 490 -1 291 1 338 17 395 34 120 65 147 199 174 180 37 418 30 664 -19 226
-46 343 -98 819 -369 132 -75 322 -178 423 -228 196 -98 234 -127 196 -155
-15 -11 -37 -13 -100 -8 -54 5 -88 3 -103 -4 l-21 -12 24 -47 c33 -66 159
-236 367 -497 97 -121 219 -278 273 -350 145 -194 128 -179 189 -172 29 3 112
28 186 56 74 28 136 49 139 46 3 -2 -8 -21 -24 -41 -93 -117 -115 -149 -135
-201 -27 -72 -36 -195 -19 -272 34 -154 124 -267 273 -340 90 -44 127 -81 127
-127 0 -106 103 -234 267 -330 72 -42 96 -76 87 -124 -9 -40 21 -74 94 -106
67 -30 93 -30 131 1 39 33 121 142 133 178 19 51 60 56 141 15 28 -14 43 -31
58 -66 38 -89 70 -92 189 -22 77 45 273 130 303 130 27 1 210 80 243 105 45
34 64 79 64 147 0 123 -52 260 -161 429 -40 62 -79 130 -87 151 -14 37 -14 39
8 63 27 29 23 59 -17 106 -37 43 -96 69 -163 69 -65 0 -160 23 -196 47 -38 25
-47 58 -28 99 9 19 27 43 40 53 58 45 68 115 33 227 -107 347 -588 927 -1249
1505 -359 314 -410 380 -371 482 27 72 94 86 176 37 67 -40 109 -39 171 3 77
51 137 137 242 344 53 106 103 193 110 193 8 0 56 -43 107 -95 118 -120 170
-136 186 -56 10 48 52 103 189 244 139 144 241 274 313 401 98 171 175 404
212 636 22 137 31 563 16 771 -17 244 -37 320 -149 550 -141 288 -331 516
-632 757 -485 387 -807 479 -1795 512 -397 13 -1910 20 -2070 10z m2645 -686
c160 -50 220 -86 220 -130 0 -12 -8 -30 -17 -39 -25 -25 -80 -14 -198 40 -55
25 -109 45 -121 45 -11 0 -28 6 -39 13 -34 26 2 97 50 97 13 0 61 -12 105 -26z
m853 -232 c9 -9 46 -79 83 -156 96 -197 93 -236 -21 -293 -68 -35 -171 -73
-197 -73 -13 0 -42 23 -77 61 -75 82 -148 123 -321 179 l-145 47 220 73 c272
90 361 125 400 155 37 29 38 29 58 7z m-875 -244 c18 -5 31 -15 29 -21 -14
-45 -347 -51 -347 -6 0 38 221 57 318 27z m-1923 -7 c13 -42 111 -58 625 -101
552 -47 1104 -133 1282 -200 80 -30 104 -52 148 -139 58 -116 116 -181 226
-252 l94 -62 -6 -36 c-3 -20 -19 -93 -35 -164 -38 -165 -74 -375 -94 -557 -35
-316 -46 -393 -60 -421 -14 -25 -21 -29 -60 -29 -84 0 -339 -110 -418 -181
-39 -35 -41 -39 -26 -54 10 -10 46 -20 95 -26 43 -6 80 -12 83 -15 9 -9 -22
-52 -46 -63 -36 -16 -124 -13 -269 9 -159 24 -247 26 -268 4 -18 -18 -12 -32
50 -119 21 -29 33 -57 31 -67 -8 -28 21 -37 144 -44 135 -7 213 -20 229 -39
20 -24 -9 -30 -162 -35 -129 -4 -150 -8 -175 -26 -33 -25 -40 -61 -18 -103 42
-82 146 -86 299 -11 117 57 110 61 145 -67 14 -50 60 -93 102 -93 69 0 128
-47 114 -90 -16 -50 -121 -70 -368 -70 -214 0 -230 5 -252 87 -26 93 -37 115
-80 162 -62 68 -123 87 -166 52 -22 -18 -24 -28 -29 -154 -6 -140 -6 -140 -62
-209 -18 -23 -20 -33 -12 -55 15 -44 51 -42 110 7 50 42 85 57 103 45 31 -18
-10 -85 -72 -118 -35 -18 -58 -22 -138 -22 -83 0 -100 3 -119 20 -47 43 -82
143 -100 291 -16 129 0 188 53 198 12 2 49 9 82 15 130 24 285 129 271 185 -8
33 -105 112 -182 148 -34 16 -90 34 -125 39 -108 18 -727 -4 -1437 -51 -160
-11 -298 -18 -305 -16 -6 3 -24 7 -38 10 -24 5 -28 13 -38 68 -6 35 -29 122
-52 193 -116 370 -115 358 -54 398 44 28 50 51 31 113 -43 138 -55 521 -31
1017 18 366 19 378 39 382 12 3 127 27 256 55 395 84 545 130 597 186 28 30
79 33 88 5z m-1545 -405 c0 -7 -24 -62 -54 -123 -64 -130 -106 -251 -106 -303
0 -90 -33 -112 -96 -63 -121 92 -109 233 33 384 37 39 86 79 116 93 56 28 107
34 107 12z m-22 -1136 c35 -21 82 -106 82 -147 0 -28 -9 -30 -175 -38 -71 -3
-152 -10 -180 -15 -71 -13 -183 -12 -191 1 -13 22 54 72 181 134 176 87 227
99 283 65z m5318 -121 c12 -20 -39 -58 -124 -93 -121 -50 -169 -82 -244 -158
-69 -70 -102 -84 -113 -48 -9 30 28 83 97 141 69 58 150 101 263 140 89 31
111 34 121 18z m-5594 -457 c29 -29 -96 -169 -197 -223 -60 -32 -69 -22 -73
89 -3 76 -1 90 17 114 12 15 31 29 44 32 42 9 197 0 209 -12z m437 -1967 c34
-29 67 -108 77 -184 7 -53 -4 -81 -33 -81 -21 0 -128 105 -167 165 -66 98 -57
124 41 125 41 0 58 -5 82 -25z m-771 -940 c35 -30 55 -73 50 -111 -7 -60 -94
-29 -133 47 -40 76 17 120 83 64z m640 -1305 c48 -29 74 -95 76 -189 1 -94
-13 -126 -49 -109 -13 6 -29 23 -35 38 -15 37 -45 43 -111 25 -118 -32 -182
-46 -195 -41 -8 3 -14 17 -14 30 0 31 41 64 131 104 67 30 119 79 119 112 0
53 24 62 78 30z m529 -216 c26 -17 46 -75 41 -124 -3 -30 -7 -35 -32 -38 -35
-4 -168 25 -213 46 -18 9 -33 21 -33 28 0 13 59 62 99 84 59 31 94 32 138 4z"/>
<path d="M46095 13249 c-55 -22 -103 -43 -107 -47 -9 -9 201 -116 252 -130 52
-13 77 0 90 47 8 31 7 48 -3 73 -18 42 -81 98 -110 98 -12 -1 -67 -19 -122
-41z"/>
<path d="M55720 13014 c-249 -21 -324 -29 -446 -49 -549 -92 -1024 -304 -1379
-615 -129 -113 -250 -200 -349 -251 -124 -65 -192 -114 -305 -223 -219 -213
-414 -501 -521 -771 -213 -535 -426 -1458 -495 -2142 -19 -187 -17 -592 4
-655 6 -20 28 -56 47 -79 68 -82 83 -136 108 -390 34 -342 110 -639 251 -984
114 -280 231 -501 400 -755 143 -216 245 -342 414 -511 224 -222 373 -323 601
-404 133 -48 156 -63 164 -114 8 -50 44 -79 156 -127 198 -83 681 -206 975
-248 187 -27 367 -36 710 -36 472 0 548 11 746 100 164 74 228 90 411 100 184
10 250 21 378 62 182 58 343 153 451 265 55 56 119 153 119 179 0 3 -33 3 -74
-1 -80 -8 -104 3 -64 29 32 20 123 42 258 61 96 14 119 21 142 42 32 31 41 58
22 74 -14 12 -55 10 -241 -7 -89 -8 -114 5 -149 79 -35 76 -32 95 14 102 117
17 243 68 421 169 130 75 191 121 191 146 0 25 -80 61 -195 89 -119 29 -145
40 -145 61 0 26 27 50 55 50 12 0 68 -18 123 -40 58 -23 116 -40 139 -40 116
0 127 132 15 183 -39 18 -65 21 -157 21 -60 0 -159 -9 -220 -19 -144 -25 -321
-25 -391 -2 -103 35 -148 130 -75 159 14 5 103 13 197 17 187 8 224 18 224 65
0 54 69 72 146 37 23 -11 82 -46 130 -78 85 -56 174 -109 345 -202 79 -43 105
-64 95 -79 -3 -5 -27 -17 -53 -27 -141 -52 -151 -102 -31 -155 169 -74 216
-24 401 425 209 508 265 978 151 1260 -58 143 -145 254 -253 324 -75 48 -289
137 -300 125 -18 -19 -120 -263 -160 -382 -23 -67 -53 -169 -67 -225 -45 -176
-64 -200 -208 -251 -90 -32 -128 -53 -235 -131 -18 -13 -50 -27 -70 -30 -111
-17 -154 -49 -269 -193 -136 -171 -252 -366 -252 -424 0 -26 -22 -58 -40 -58
-21 0 -34 -51 -39 -149 l-6 -104 -43 61 c-39 55 -76 92 -93 92 -3 0 -19 -12
-35 -26 -16 -14 -80 -59 -143 -101 -120 -80 -181 -129 -181 -145 0 -24 97 -49
302 -78 267 -37 470 -88 507 -125 15 -15 14 -18 -10 -39 -59 -51 -452 -200
-601 -227 -91 -17 -118 -5 -118 49 0 45 40 113 90 156 19 15 67 44 107 64 40
20 73 39 73 43 0 10 -137 47 -220 60 -99 15 -483 5 -613 -15 -229 -37 -395
-84 -522 -149 -73 -37 -163 -45 -287 -28 -149 22 -154 26 -79 59 58 27 86 55
77 78 -6 15 -19 16 -104 11 -53 -3 -142 -17 -197 -32 -55 -14 -110 -23 -122
-20 -12 3 -33 26 -51 57 -32 57 -101 117 -217 188 -98 60 -235 164 -335 254
-50 44 -114 91 -155 111 -62 31 -82 36 -170 41 -122 7 -193 25 -224 58 -34 36
-22 68 39 108 111 73 106 136 -30 408 -94 188 -129 283 -137 370 -6 73 -15 90
-48 90 -12 0 -91 -34 -175 -75 -101 -49 -165 -75 -188 -75 l-35 0 5 45 c3 25
11 52 19 61 23 28 88 55 182 74 74 16 97 25 116 47 22 26 23 32 19 137 -6 143
-21 180 -83 207 -25 11 -45 23 -45 27 0 4 28 17 63 27 86 27 93 45 72 167 -35
210 -78 336 -136 402 -34 38 -52 49 -112 67 -89 26 -127 45 -127 64 0 19 49
52 123 82 78 31 112 63 126 117 6 24 18 121 26 217 28 303 48 382 275 1038 50
146 109 332 131 415 92 345 99 359 205 389 73 20 193 94 304 187 120 100 210
159 272 175 64 16 106 60 140 144 21 51 23 72 23 246 0 105 4 196 8 203 5 6
15 12 22 12 15 0 20 -14 29 -84 13 -97 118 -253 199 -296 38 -20 51 -23 84
-14 32 8 38 13 41 39 2 17 -11 75 -28 129 -45 147 -47 166 -17 194 27 26 71
31 105 13 33 -18 53 -66 68 -164 16 -105 30 -127 86 -127 42 0 94 23 166 74
86 61 107 56 137 -34 23 -69 45 -78 207 -89 285 -20 515 -96 647 -215 119
-105 310 -184 480 -196 72 -5 108 -12 119 -23 11 -11 18 -48 23 -126 18 -251
91 -391 285 -547 112 -90 132 -124 143 -246 5 -53 16 -109 25 -125 22 -43 123
-133 176 -156 127 -56 472 -20 738 79 316 117 432 247 432 484 0 151 -41 238
-212 456 -82 104 -92 137 -83 273 6 113 6 117 -17 138 -13 11 -58 35 -101 51
-125 48 -138 69 -87 136 38 50 38 78 0 152 -60 121 -179 238 -365 359 -167
109 -150 106 -176 27 -45 -137 -96 -212 -144 -212 -22 0 -25 4 -25 38 0 20 9
80 20 132 11 52 20 130 20 174 0 77 -1 79 -35 111 -113 103 -603 327 -931 426
-158 47 -362 84 -614 110 -101 10 -808 21 -900 13z m-283 -683 c46 -21 67 -51
58 -82 -9 -27 -92 -79 -127 -79 l-28 0 0 78 c0 107 15 120 97 83z m3203 -956
c25 -50 58 -93 118 -151 45 -45 82 -88 82 -96 0 -8 -9 -23 -21 -34 -18 -16
-36 -19 -123 -18 -161 0 -212 32 -255 162 -34 101 -26 148 29 177 33 17 97 34
120 32 8 -1 31 -33 50 -72z m-5159 -273 c52 -28 120 -58 152 -67 31 -9 57 -19
57 -23 0 -9 -69 -52 -140 -87 -34 -17 -71 -28 -100 -28 -84 -1 -187 63 -221
138 -25 54 -24 71 7 102 24 23 31 25 89 21 51 -5 81 -15 156 -56z m4536 34
c71 -36 79 -96 21 -162 -32 -36 -131 -99 -172 -110 -21 -5 -24 -1 -29 40 -8
57 -29 99 -74 149 -68 76 -24 110 132 104 59 -3 101 -10 122 -21z m1088 -243
c13 -13 15 -26 10 -62 -13 -90 -67 -111 -282 -112 -170 0 -248 23 -279 83 -15
30 -15 32 2 45 15 11 34 13 84 6 120 -15 209 -9 295 19 44 15 87 29 95 32 31
9 59 6 75 -11z m-6214 -495 c9 -7 21 -32 27 -54 16 -56 118 -164 242 -258 118
-89 190 -125 264 -133 31 -3 56 -9 56 -13 0 -5 -33 -36 -72 -70 -130 -112
-190 -186 -201 -250 -8 -43 -27 -56 -103 -69 -66 -11 -303 -31 -376 -31 -61 0
-61 8 -8 128 43 96 47 126 28 196 -15 56 -10 63 87 111 108 53 146 107 115
166 -16 29 -58 24 -169 -21 -114 -46 -153 -50 -175 -18 -42 59 -3 209 67 262
72 55 183 82 218 54z m689 -743 c0 -18 -105 -210 -131 -239 -32 -38 -73 -48
-97 -24 -31 31 6 155 61 205 36 33 99 63 134 63 18 0 33 -2 33 -5z m-597 -431
c131 -30 200 -74 221 -141 11 -34 -13 -29 -68 12 -58 45 -114 65 -183 65 -74
0 -112 21 -113 63 0 22 46 23 143 1z m301 -462 c0 -22 -8 -52 -17 -66 -33 -50
-59 -58 -205 -67 -75 -5 -209 -16 -297 -24 -193 -20 -283 -17 -299 7 -20 32 6
43 73 30 67 -12 116 -3 160 29 38 27 144 64 296 104 246 65 291 63 289 -13z
m-324 -390 c0 -44 -252 -131 -382 -132 -50 0 -98 14 -98 29 0 17 104 48 355
104 36 8 125 7 125 -1z m100 -732 c116 -28 229 -86 325 -168 137 -117 245
-272 207 -296 -15 -9 -92 14 -183 55 -70 32 -98 40 -123 35 -18 -4 -80 -36
-137 -73 -151 -97 -223 -120 -295 -93 -31 12 -97 78 -89 90 2 4 24 4 47 -1
185 -36 194 25 31 203 -58 64 -78 98 -88 150 -8 43 15 95 48 108 39 16 169 11
257 -10z m-293 -575 c8 -23 -24 -54 -63 -61 -38 -7 -66 9 -57 32 14 36 108 59
120 29z m442 -131 c51 -20 71 -51 81 -128 11 -73 25 -87 112 -109 102 -25 196
-30 251 -14 26 8 47 12 47 8 0 -20 -54 -54 -108 -66 -60 -14 -192 -63 -352
-129 -107 -45 -144 -47 -158 -8 -5 16 -24 40 -41 53 -84 64 -84 64 -76 88 5
15 27 32 71 51 77 35 88 55 74 131 -12 60 -13 123 -3 132 11 12 61 8 102 -9z
m1342 -776 c17 -24 63 -108 103 -186 l71 -144 45 6 c25 3 143 13 262 23 168
13 221 14 230 5 17 -17 -15 -49 -61 -62 -65 -18 -253 -23 -444 -11 -216 14
-297 25 -309 43 -31 49 19 368 58 368 8 0 28 -19 45 -42z m1566 -592 c74 -55
175 -106 283 -141 47 -15 87 -29 89 -31 13 -11 -166 -254 -210 -284 -29 -22
-31 -22 -51 -4 -24 22 -62 97 -108 213 -18 46 -57 120 -87 165 -68 103 -70
126 -7 126 22 0 50 -13 91 -44z m1105 -70 c-10 -88 -126 -206 -235 -237 -36
-10 -67 4 -67 32 0 62 72 141 181 199 89 48 126 50 121 6z m-243 -365 c20 -13
5 -46 -26 -60 -75 -34 -308 -38 -350 -5 -17 13 -17 14 0 28 25 19 158 37 322
44 22 1 46 -2 54 -7z m-2574 -21 c8 -13 -39 -24 -70 -16 -37 9 -21 26 25 26
21 0 42 -4 45 -10z"/>
<path d="M49850 12613 c-264 -21 -674 -105 -719 -148 -11 -11 -10 -17 11 -37
13 -12 39 -31 56 -40 67 -36 25 -93 -67 -93 -73 1 -154 38 -224 103 -50 48
-86 72 -105 72 -5 0 -30 -17 -57 -37 -43 -34 -54 -38 -104 -37 -31 1 -128 20
-216 42 -307 78 -360 77 -638 -14 -159 -53 -180 -57 -287 -62 -76 -3 -154 1
-230 12 -295 42 -834 42 -1200 1 -295 -34 -430 -96 -620 -287 -161 -162 -231
-328 -165 -394 24 -24 26 -24 193 -23 177 1 232 -7 276 -42 35 -28 35 -70 0
-98 -36 -28 -89 -27 -227 5 -201 45 -297 43 -297 -9 0 -27 24 -51 100 -99 74
-47 120 -100 120 -140 0 -36 -64 -104 -145 -153 -84 -51 -90 -70 -89 -280 1
-99 16 -358 33 -575 61 -781 70 -958 80 -1450 9 -457 9 -457 87 -492 66 -29
115 -33 151 -14 17 8 77 65 134 126 114 122 145 148 162 131 15 -15 -39 -174
-103 -308 -68 -140 -73 -143 -252 -143 -75 0 -139 -4 -142 -8 -3 -5 4 -67 14
-138 31 -214 40 -307 54 -577 8 -143 17 -261 20 -264 3 -4 117 -6 253 -7 286
-1 364 10 621 90 156 48 216 74 230 100 5 9 7 49 4 89 -4 64 -1 80 22 131 33
71 71 114 103 114 29 0 78 -24 166 -84 38 -25 80 -46 93 -46 62 0 97 94 110
292 l7 108 31 4 c17 3 90 8 161 11 160 7 566 38 945 71 763 66 1324 89 1585
64 75 -7 138 -11 140 -8 2 2 -5 37 -15 78 -39 149 -16 263 65 324 50 38 175
96 207 96 42 0 36 -27 -36 -164 -76 -144 -90 -185 -81 -232 5 -30 13 -39 53
-56 42 -19 59 -20 172 -15 138 7 324 35 440 67 168 47 297 136 341 235 42 94
48 360 13 500 -34 133 -114 215 -298 305 -223 110 -439 149 -868 157 -385 8
-505 -7 -933 -113 -329 -82 -531 -150 -523 -176 6 -17 70 -37 193 -59 126 -22
175 -37 175 -50 0 -15 -76 -164 -100 -197 -28 -38 -82 -67 -105 -58 -14 5 -17
14 -12 49 9 63 -13 99 -96 153 -40 26 -95 63 -124 82 -63 41 -85 73 -81 115 3
29 0 32 -29 35 -18 2 -67 -7 -110 -19 -94 -27 -109 -26 -287 12 -227 48 -327
60 -587 66 l-245 6 -34 -89 c-61 -165 -139 -303 -212 -376 -40 -40 -83 -52
-74 -20 2 9 8 33 11 52 4 19 34 117 66 217 82 257 103 372 96 543 -5 154 -19
207 -99 388 -27 62 -48 121 -46 130 2 12 17 19 50 22 92 11 124 75 122 250 -1
58 -11 173 -24 255 -12 83 -24 218 -27 300 -5 144 -4 152 19 195 33 61 86 86
208 99 158 17 536 31 1105 41 690 12 740 18 939 104 169 74 215 71 145 -9 -25
-28 -29 -39 -20 -48 42 -42 1233 9 1481 64 57 13 174 75 250 134 83 64 165
159 205 239 53 104 46 158 -22 171 -56 10 -85 29 -141 90 -69 75 -109 148
-133 245 -22 85 -19 127 7 137 8 3 47 -7 85 -22 55 -23 76 -27 97 -19 37 13
40 47 8 94 -64 97 -339 177 -721 210 -111 9 -441 11 -545 3z m-1059 -357 c156
-39 199 -65 169 -101 -48 -58 -358 4 -368 73 -2 13 -1 30 2 38 8 21 89 18 197
-10z m-2661 -52 c313 -58 318 -95 15 -115 -160 -11 -410 -5 -480 11 -85 19
-65 52 66 106 79 33 89 35 169 30 47 -3 150 -17 230 -32z m1969 -359 c16 -8
32 -24 36 -35 8 -26 50 -54 70 -46 30 11 14 -13 -42 -65 -82 -74 -140 -109
-183 -109 -44 0 -66 21 -108 105 -32 65 -54 89 -91 103 -23 8 -22 9 20 26 106
43 238 53 298 21z m-2139 -698 c41 -21 68 -145 38 -175 -22 -22 -84 -13 -149
21 -98 50 -125 117 -61 152 33 18 138 19 172 2z m267 -1856 c67 -34 155 -114
190 -172 68 -114 78 -240 29 -375 -41 -111 -57 -118 -198 -88 -40 8 -121 19
-180 24 -58 6 -113 13 -122 16 -44 17 2 68 149 167 80 53 125 97 125 120 0 11
-15 38 -33 61 -66 81 -72 116 -18 116 111 0 104 80 -10 130 -35 15 -48 24 -39
30 15 9 51 0 107 -29z m777 -622 c14 -11 26 -27 26 -34 0 -25 -42 -55 -102
-71 -32 -9 -63 -23 -69 -30 -25 -30 38 -127 96 -149 11 -4 67 -11 123 -15 119
-10 135 -18 121 -60 -23 -64 -101 -90 -303 -99 -140 -6 -160 -10 -173 -27 -8
-10 -11 -28 -8 -39 3 -11 8 -41 12 -67 7 -61 1 -64 -125 -48 -126 16 -138 11
-144 -64 -3 -30 -10 -62 -17 -70 -29 -35 -129 -8 -154 41 -50 95 -47 398 3
424 8 4 55 26 103 48 49 22 157 81 240 130 183 107 188 109 252 132 65 24 87
23 119 -2z m2001 -94 c150 -75 245 -136 245 -156 0 -33 -207 -209 -246 -209
-25 0 -39 61 -59 243 -8 73 -39 113 -95 122 -22 4 -50 15 -62 25 -23 18 -23
18 -3 40 26 29 41 24 220 -65z"/>
<path d="M46573 8401 c-28 -9 -69 -30 -90 -46 -53 -40 -163 -137 -163 -144 0
-10 294 7 338 18 50 14 68 31 81 77 18 66 -19 115 -87 114 -15 -1 -50 -9 -79
-19z"/>
<path d="M40934 12220 c-383 -26 -833 -160 -1214 -362 -670 -355 -1149 -911
-1264 -1469 -71 -345 -36 -850 85 -1229 40 -126 162 -375 193 -395 23 -15 28
-14 95 19 38 20 72 32 76 27 3 -5 1 -21 -5 -36 -25 -66 -1 -126 95 -239 362
-424 757 -611 1555 -736 322 -51 493 -94 890 -226 329 -110 485 -156 666 -194
178 -38 312 -77 444 -130 222 -88 404 -196 503 -296 267 -270 327 -766 137
-1144 -185 -369 -533 -588 -1069 -671 -109 -17 -198 -22 -452 -26 -443 -7
-514 4 -751 122 -308 152 -431 279 -658 674 -288 503 -567 859 -738 943 l-67
33 -170 -1 c-140 0 -185 -4 -257 -22 -204 -51 -337 -160 -438 -362 -90 -179
-130 -351 -110 -475 13 -79 29 -120 74 -189 45 -70 68 -129 147 -367 104 -318
180 -451 373 -658 371 -397 693 -599 1263 -789 185 -63 285 -88 411 -107 254
-38 976 -49 1247 -20 178 19 357 53 526 99 101 28 570 174 576 179 4 4 -38
367 -47 410 -15 70 -47 141 -78 170 -29 27 -86 46 -142 48 l-35 1 43 19 c97
45 407 81 712 83 177 1 210 -1 245 -17 98 -44 101 -96 5 -97 -101 0 -260 -183
-260 -297 0 -135 77 -152 208 -46 23 19 42 39 42 46 0 6 -12 24 -27 39 -24 25
-25 30 -13 42 8 8 57 28 108 45 109 35 211 96 331 197 225 188 435 450 518
646 113 268 148 593 94 864 -28 140 -23 169 35 205 75 46 80 67 34 141 -47 76
-60 144 -70 358 -7 144 -15 217 -31 279 -63 247 -245 577 -401 727 -122 117
-219 161 -378 171 -131 8 -134 10 -126 88 8 79 -8 102 -107 148 -85 40 -395
158 -658 250 -637 224 -1276 369 -1695 384 -182 7 -234 1 -234 -25 0 -28 86
-118 262 -274 l161 -143 -39 -3 c-21 -2 -138 -2 -259 0 -200 3 -224 5 -267 25
-43 20 -48 25 -48 55 0 19 6 43 14 54 42 60 39 150 -10 300 -35 110 -62 147
-128 178 -155 73 -374 93 -796 72 -162 -8 -296 -14 -298 -12 -2 2 -8 45 -15
96 -15 120 -8 132 101 186 97 48 145 91 168 150 15 38 15 45 0 76 -15 31 -79
82 -139 109 -14 6 -27 19 -30 28 -15 59 74 242 243 501 59 91 117 183 128 205
35 70 53 145 46 196 -8 60 23 132 101 233 74 98 77 108 69 252 -7 126 1 176
31 188 8 3 51 -18 97 -46 46 -28 96 -51 113 -52 27 -1 30 2 35 40 10 68 93
160 189 208 60 31 157 37 167 11 11 -26 -22 -61 -153 -163 -129 -100 -226
-191 -249 -234 -22 -40 -17 -85 11 -104 39 -25 111 -12 224 41 54 25 107 45
120 45 35 0 22 -29 -28 -64 -63 -44 -72 -63 -43 -86 36 -30 125 -43 252 -38
130 6 172 19 232 73 23 21 44 33 51 28 7 -3 33 -21 59 -39 59 -40 157 -81 368
-154 186 -65 260 -95 375 -152 182 -92 309 -194 354 -287 35 -72 46 -78 118
-62 32 7 85 19 118 27 72 16 244 18 300 3 22 -6 80 -29 128 -51 107 -49 117
-45 117 46 0 67 18 106 49 106 10 0 25 -7 32 -16 23 -28 60 -36 222 -44 164
-9 227 -22 227 -45 0 -20 -30 -26 -114 -23 -51 2 -79 -1 -88 -10 -10 -10 -12
-49 -10 -156 3 -116 0 -150 -14 -185 -37 -94 -110 -71 -229 72 -56 67 -80 84
-99 67 -32 -26 -226 -443 -226 -486 0 -31 33 -39 108 -28 31 4 82 8 112 8 l55
1 0 -73 c1 -53 5 -76 15 -82 20 -13 149 -12 230 0 86 14 203 53 266 89 266
153 412 546 330 886 -55 226 -154 458 -245 576 -83 107 -172 159 -273 159 -67
0 -83 -11 -114 -76 -30 -64 -188 -235 -262 -284 -49 -32 -99 -39 -149 -19 -72
29 -412 3 -543 -41 -34 -12 -63 -20 -64 -18 -32 51 -40 58 -98 77 -82 28 -145
75 -214 160 -80 97 -110 112 -253 122 -130 9 -188 24 -159 40 84 47 735 104
1368 119 341 9 492 19 508 34 13 14 -15 65 -66 115 -192 192 -697 472 -1021
567 -98 29 -293 45 -305 26 -4 -6 -1 -39 6 -72 7 -38 8 -63 3 -69 -6 -6 -31
-2 -65 11 -290 108 -624 174 -1005 198 -175 11 -234 11 -401 0z m770 -176 c38
-13 79 -33 90 -44 21 -21 21 -21 2 -36 -24 -17 -191 -20 -248 -3 -54 14 -92
50 -84 76 15 48 112 51 240 7z m452 -209 c77 -13 152 -29 167 -36 27 -12 41
-34 32 -50 -12 -18 -112 -39 -189 -39 -151 0 -232 -22 -269 -72 -19 -25 -19
-32 -8 -85 13 -54 12 -58 -8 -74 -21 -17 -122 -39 -180 -39 l-33 0 41 73 c74
128 110 211 122 272 7 33 19 66 28 73 20 17 96 11 297 -23z m-733 -207 c31
-11 57 -26 57 -33 0 -18 -63 -66 -129 -100 -51 -25 -171 -47 -171 -31 0 3 15
20 33 36 l32 30 -35 29 -35 30 21 21 c29 29 92 50 134 44 19 -3 61 -15 93 -26z
m-1518 -93 c76 -39 88 -59 55 -87 -72 -60 -351 -171 -326 -130 4 7 18 12 30
12 82 0 46 115 -59 191 -25 18 -45 37 -45 42 0 5 60 7 143 5 136 -3 146 -4
202 -33z m325 -2430 c52 -8 128 -24 168 -35 127 -35 292 -129 292 -165 0 -34
-217 -169 -351 -219 -217 -81 -480 -76 -692 14 -74 32 -137 74 -137 91 0 6 17
18 38 27 32 15 80 17 367 18 329 1 376 4 428 30 81 42 -41 187 -141 169 -21
-3 -66 -15 -101 -26 -86 -26 -182 -26 -206 1 -22 24 -14 65 18 81 57 31 173
36 317 14z m2048 -377 c19 -19 15 -34 -18 -72 -38 -43 -98 -64 -204 -72 -105
-9 -139 -23 -171 -74 -14 -22 -32 -43 -41 -47 -37 -14 -57 51 -34 111 5 14 28
46 51 71 40 43 88 65 194 88 47 11 211 7 223 -5z m935 -314 c18 -20 53 -46 78
-59 56 -29 119 -97 119 -129 0 -46 -19 -51 -224 -54 -277 -5 -306 2 -306 78 0
52 22 75 105 107 50 20 71 34 73 48 7 42 11 45 68 45 51 0 58 -3 87 -36z
m-1456 -29 c40 -9 83 -25 95 -36 l23 -19 -28 -24 c-36 -29 -170 -76 -218 -76
-47 0 -131 43 -169 86 -16 19 -30 38 -30 42 0 15 16 31 40 42 34 14 198 6 287
-15z m-495 -291 c46 -14 117 -42 158 -60 125 -58 152 -101 83 -132 -33 -15
-74 -17 -285 -17 -135 0 -250 4 -254 8 -14 14 39 100 101 165 71 72 77 74 197
36z m2391 -68 c91 -40 147 -80 147 -105 0 -19 -31 -51 -67 -70 -29 -15 -105
-14 -125 2 -9 6 -23 46 -32 87 -8 41 -18 85 -22 98 -9 30 5 29 99 -12z m-915
-151 l-3 -70 -39 -3 c-36 -3 -164 22 -194 38 -9 4 26 40 105 108 l118 102 8
-52 c4 -29 6 -84 5 -123z m575 103 c14 -7 17 -16 12 -35 -14 -57 -115 -172
-163 -187 -45 -15 -101 35 -142 126 -34 75 -24 92 69 108 54 10 198 2 224 -12z"/>
<path d="M33697 11844 c-218 -39 -456 -185 -703 -429 -165 -163 -247 -270
-314 -409 -77 -161 -110 -321 -110 -528 0 -122 1 -130 23 -152 16 -16 41 -26
78 -30 93 -12 222 -37 241 -47 10 -5 18 -17 18 -25 0 -26 -69 -46 -192 -54
-152 -11 -211 -30 -244 -79 -109 -165 -513 -1294 -863 -2411 -260 -827 -415
-1276 -633 -1835 -414 -1056 -571 -1599 -529 -1830 23 -129 140 -304 314 -472
174 -168 246 -192 562 -192 273 -1 331 15 443 123 181 173 259 330 343 693
116 499 291 1010 403 1179 79 118 197 138 1021 169 220 8 641 24 935 35 752
28 961 38 1154 56 92 8 170 13 173 11 2 -3 39 -110 83 -238 90 -268 159 -438
267 -653 179 -357 363 -633 549 -819 103 -104 176 -154 287 -199 77 -31 89
-33 207 -33 144 0 236 21 355 81 185 94 414 302 431 391 9 46 -31 109 -109
175 -95 81 -177 166 -177 183 0 23 14 18 62 -20 80 -65 132 -96 158 -93 101
12 45 310 -135 728 -66 153 -155 401 -155 432 0 8 -9 27 -21 42 -25 32 -59 33
-214 7 -60 -10 -111 -18 -112 -17 -1 1 44 58 101 126 75 90 102 129 96 140
-35 66 -423 882 -547 1150 -456 985 -1086 2421 -1333 3035 -332 829 -512 1156
-789 1433 -206 206 -439 330 -707 377 -107 19 -312 18 -417 -1z m260 -1904
c19 -55 33 -75 93 -131 80 -76 109 -131 110 -204 0 -72 16 -159 37 -202 10
-21 57 -79 106 -130 112 -118 146 -187 182 -368 65 -324 130 -502 433 -1190
264 -600 335 -774 326 -798 -22 -59 -221 -80 -1149 -122 -867 -39 -1165 -44
-1165 -21 0 49 73 294 243 816 227 697 236 734 247 1086 9 297 12 311 83 342
52 23 111 88 143 156 27 58 29 77 12 94 -20 20 -52 14 -97 -19 -29 -22 -46
-28 -53 -21 -18 18 3 54 86 141 95 101 133 172 200 374 57 175 102 269 124
265 11 -2 25 -27 39 -68z m-487 -3388 c0 -44 -72 -183 -114 -220 -44 -38 -78
-41 -111 -7 -33 32 -32 70 4 127 45 70 130 127 194 128 23 0 27 -4 27 -28z"/>
<path d="M25275 11474 c-1105 -53 -1653 -135 -1955 -290 -117 -60 -194 -125
-255 -214 -143 -210 -230 -580 -204 -861 10 -108 34 -196 79 -291 39 -81 38
-129 -1 -254 -42 -137 -46 -212 -20 -354 26 -139 57 -236 82 -261 25 -25 75
-24 123 4 56 32 81 70 80 120 -1 59 -25 99 -115 193 -79 82 -92 111 -64 134
14 12 183 65 242 76 43 8 59 -6 73 -66 18 -74 59 -122 137 -159 l67 -32 -50
-42 c-97 -82 -173 -159 -189 -193 -24 -50 -9 -64 70 -64 79 0 96 -13 134 -105
17 -38 29 -70 28 -71 -1 -1 -58 4 -127 12 -330 36 -420 35 -447 -2 -9 -12 -13
-53 -13 -123 0 -171 53 -887 110 -1496 42 -444 52 -475 159 -475 20 0 46 -6
57 -14 18 -14 18 -15 -10 -44 -15 -17 -66 -47 -112 -68 -59 -26 -84 -42 -84
-55 0 -133 55 -847 76 -999 26 -180 29 -280 9 -361 -21 -84 -23 -181 -6 -260
19 -91 23 -93 142 -94 97 0 108 -2 165 -32 71 -37 106 -76 102 -112 -5 -42
-44 -53 -216 -59 l-155 -5 6 -296 c12 -628 61 -793 300 -1030 l86 -84 98 90
c87 81 130 113 147 113 3 0 6 -11 6 -24 0 -34 -35 -73 -78 -87 -78 -24 -103
-79 -62 -132 40 -51 158 -66 260 -32 80 26 130 53 268 144 154 102 259 155
359 181 101 27 118 45 149 155 30 105 55 157 100 208 19 20 34 43 34 51 0 29
-49 54 -118 60 -94 9 -174 51 -280 149 -92 84 -137 117 -163 117 -8 0 -31 -16
-50 -36 -36 -38 -93 -69 -109 -59 -41 26 37 89 215 176 54 26 108 61 136 89
43 42 47 49 53 111 7 76 29 144 55 176 28 33 83 63 117 63 53 0 91 19 105 51
19 47 5 341 -35 749 -50 507 -59 663 -53 839 8 238 49 336 166 396 124 62 463
69 717 14 215 -46 434 -142 854 -376 327 -181 435 -237 507 -263 60 -22 103
-51 103 -71 0 -17 -67 -39 -122 -39 -57 0 -128 -16 -128 -29 0 -20 146 -217
435 -586 185 -235 355 -464 355 -476 0 -20 76 -7 210 36 77 25 147 45 155 45
27 0 15 -24 -50 -99 -86 -99 -100 -140 -100 -301 0 -115 2 -130 27 -183 48
-102 226 -262 319 -287 45 -12 63 -45 78 -144 12 -82 42 -131 111 -183 27 -21
72 -55 100 -76 59 -44 110 -110 110 -143 0 -39 46 -82 107 -100 88 -26 104
-18 223 105 109 113 140 132 189 115 20 -7 32 -25 52 -74 30 -75 40 -80 127
-55 94 28 351 125 449 170 127 59 181 99 204 149 47 103 0 280 -126 476 -55
86 -95 167 -95 193 0 11 9 30 20 44 26 33 25 45 -5 82 -37 43 -114 76 -240
101 -188 37 -207 63 -136 193 91 164 76 235 -108 509 -277 413 -758 927 -1277
1366 -183 155 -208 180 -219 225 -13 49 52 207 83 207 10 0 36 -15 58 -33 21
-19 49 -39 61 -45 56 -30 134 0 210 80 66 71 183 248 235 357 23 48 43 88 44
90 11 13 63 -19 135 -82 77 -67 118 -97 133 -97 3 0 17 22 30 48 33 66 91 137
219 271 322 336 476 669 532 1148 17 147 20 444 5 594 -47 477 -222 839 -562
1165 -211 202 -409 345 -623 450 -356 174 -661 233 -1425 275 -184 10 -1454
20 -1605 13z m2222 -709 c96 -26 180 -62 202 -89 15 -18 1 -50 -29 -66 -39
-21 -83 -10 -292 69 -78 30 -88 75 -23 101 31 13 43 12 142 -15z m850 -250
c27 -19 70 -110 118 -250 l38 -109 -34 -28 c-41 -34 -191 -99 -244 -105 -38
-4 -43 -1 -107 61 -77 75 -168 123 -346 181 -62 20 -112 39 -110 41 2 2 71 23
154 48 190 57 276 88 377 137 88 42 121 47 154 24z m-949 -206 c28 -5 58 -17
68 -24 17 -13 17 -16 4 -25 -55 -38 -289 -60 -324 -31 -22 18 -20 41 6 68 19
21 30 23 109 23 49 0 110 -5 137 -11z m-1848 -39 c33 -47 94 -59 345 -70 436
-19 1217 -116 1453 -180 138 -38 173 -66 239 -193 45 -87 150 -195 240 -249
80 -47 83 -60 50 -202 -62 -265 -127 -698 -127 -854 0 -88 -11 -157 -27 -173
-5 -5 -43 -13 -85 -19 -152 -19 -428 -159 -428 -216 0 -19 41 -34 94 -34 65 0
108 -18 104 -44 -8 -56 -160 -73 -339 -37 -181 36 -234 33 -267 -16 -13 -22
-11 -25 38 -73 52 -50 52 -52 46 -96 -4 -36 -2 -46 10 -51 9 -3 67 0 130 7 87
10 123 11 152 2 45 -14 87 -54 79 -76 -5 -14 -30 -16 -151 -16 -188 0 -223
-12 -210 -75 13 -65 80 -102 165 -92 26 3 91 24 144 47 54 23 103 39 110 36 7
-2 15 -27 17 -56 7 -67 45 -108 136 -144 117 -47 137 -80 75 -122 -63 -42
-162 -59 -353 -59 -218 0 -218 0 -254 117 -30 97 -61 153 -98 181 -33 25 -116
34 -141 15 -20 -15 -37 -103 -37 -194 0 -75 -14 -116 -43 -129 -29 -13 -44
-57 -31 -92 14 -38 37 -34 126 22 117 73 160 50 76 -41 -69 -75 -156 -106
-236 -84 -89 23 -129 91 -157 263 -16 101 -20 224 -6 245 4 8 40 18 79 22 90
12 196 64 269 132 81 77 73 98 -67 176 -156 87 -314 108 -689 92 -237 -10
-655 -37 -1025 -65 -255 -20 -246 -25 -317 168 -60 163 -109 344 -109 401 0
45 4 56 31 82 27 26 30 34 26 74 -2 25 -12 74 -23 110 -17 58 -19 97 -18 345
2 429 19 915 34 947 17 35 32 40 255 88 334 71 549 135 623 185 48 32 66 31
92 -5z m-1570 -412 c0 -6 -13 -32 -29 -57 -33 -51 -54 -101 -99 -236 -35 -106
-66 -162 -93 -170 -56 -18 -104 48 -103 141 1 111 97 264 196 313 46 23 128
29 128 9z m-29 -1091 c21 -16 99 -136 99 -153 0 -7 -8 -18 -19 -23 -33 -18
-310 -53 -391 -50 -169 8 -132 67 110 175 152 67 173 73 201 51z m5327 -156
c18 -11 -2 -23 -158 -99 -143 -69 -200 -113 -236 -183 -19 -38 -30 -49 -48
-49 -31 0 -54 57 -37 89 29 53 207 177 327 226 59 25 128 32 152 16z m-5629
-523 c-78 -87 -176 -170 -197 -166 -43 9 -76 111 -52 167 21 52 77 71 204 71
l108 0 -63 -72z m477 -1905 c45 -29 102 -169 90 -219 -14 -54 -93 -12 -182 95
-56 67 -71 99 -60 126 8 22 118 21 152 -2z m-800 -914 c39 -24 89 -102 80
-124 -8 -22 -27 -19 -79 15 -56 35 -88 90 -67 115 16 20 26 19 66 -6z m344
-1084 c17 -21 -13 -53 -102 -112 -129 -84 -268 -138 -268 -103 0 28 155 150
265 209 47 25 88 27 105 6z m339 -236 c13 -12 32 -40 42 -63 24 -54 26 -183 3
-228 l-16 -32 -45 52 c-39 45 -50 52 -82 52 -21 0 -64 -9 -96 -20 -32 -11 -76
-20 -98 -20 -41 0 -77 22 -77 45 0 14 68 45 152 69 42 12 64 25 83 50 14 18
25 37 25 42 0 5 9 24 20 42 23 38 55 42 89 11z m548 -231 c45 -42 21 -110 -47
-128 -49 -13 -121 2 -172 36 -42 27 -47 43 -20 66 67 59 190 73 239 26z"/>
<path d="M20410 11103 c-30 -2 -341 -26 -690 -54 -349 -27 -738 -54 -865 -61
-185 -9 -234 -14 -249 -27 -10 -9 -35 -50 -56 -92 -39 -76 -98 -141 -146 -159
-51 -20 -89 -12 -130 26 -61 56 -80 51 -409 -126 -82 -44 -159 -79 -170 -78
-14 2 -21 13 -26 40 -8 53 -50 110 -114 159 -54 41 -85 82 -85 113 0 33 -72
39 -425 32 -940 -17 -1352 -82 -1511 -241 -97 -98 -129 -222 -121 -474 7 -242
38 -338 142 -445 126 -130 295 -154 1220 -176 673 -16 1112 -36 1191 -56 28
-7 30 -14 43 -139 24 -232 44 -590 71 -1265 55 -1387 97 -1869 206 -2417 54
-274 56 -337 14 -500 -94 -360 -44 -696 129 -869 84 -85 83 -124 -4 -124 -79
0 -137 -46 -156 -123 -17 -70 -6 -307 20 -424 59 -267 158 -444 325 -581 171
-140 323 -214 501 -243 203 -32 426 35 583 176 91 82 116 131 83 164 -40 40
-137 24 -337 -54 -114 -44 -184 -59 -191 -39 -2 5 12 28 32 51 43 51 44 68 4
89 -18 9 -28 19 -23 24 14 14 173 29 452 44 139 8 255 16 257 18 5 4 -14 1110
-18 1114 -1 1 -49 -7 -107 -17 -171 -30 -291 -22 -334 20 -20 21 -20 21 -1 35
11 9 76 33 145 56 137 44 223 88 241 122 13 24 10 138 -17 813 -55 1389 -155
3310 -204 3939 -11 137 -18 251 -17 252 2 2 121 24 266 49 487 84 587 141 642
370 18 75 26 94 38 90 9 -2 126 -37 261 -76 264 -78 334 -103 328 -120 -2 -6
-30 -25 -63 -42 -101 -55 -119 -107 -52 -148 39 -23 128 -25 272 -4 223 31
418 85 464 128 35 33 84 57 118 57 115 1 249 171 319 405 23 77 27 109 28 225
1 124 -1 139 -24 185 -90 184 -360 295 -880 361 -91 11 -233 16 -520 19 -217
1 -420 1 -450 -2z m-670 -197 c0 -37 -47 -172 -95 -272 -92 -192 -269 -384
-353 -384 -48 0 -71 73 -72 221 0 83 3 102 26 147 38 77 177 177 379 273 95
46 115 48 115 15z m-1105 -447 c73 -13 123 -37 143 -66 13 -21 12 -25 -20 -57
-35 -35 -102 -61 -187 -73 -53 -7 -71 10 -71 68 0 51 -27 81 -81 89 l-44 7 45
21 c51 24 123 28 215 11z m2855 -112 c-142 -139 -197 -162 -250 -105 -31 34
-24 58 33 114 71 68 136 93 242 93 l80 1 -105 -103z m-3915 -331 c51 -27 57
-56 16 -85 -41 -30 -243 -126 -315 -151 -81 -28 -116 -27 -116 3 0 49 123 197
195 234 72 38 149 38 220 -1z m4138 -51 c80 -28 67 -40 -74 -61 -95 -14 -170
-12 -198 5 -21 13 -1 38 47 60 55 25 145 23 225 -4z m-2917 -416 c32 -30 44
-77 44 -175 0 -107 4 -110 176 -145 185 -38 314 -100 314 -151 0 -32 -69 -22
-198 28 -64 25 -169 59 -232 75 -63 16 -126 37 -139 47 -21 15 -29 38 -48 133
-45 219 -45 225 18 216 23 -3 52 -16 65 -28z m79 -795 c156 -63 218 -99 223
-131 7 -47 -104 -76 -268 -71 -92 3 -95 4 -108 30 -14 31 -28 187 -19 212 4 9
12 16 20 16 7 0 76 -25 152 -56z m24 -630 c101 -25 156 -52 156 -75 0 -27 -72
-52 -154 -53 l-76 -1 0 53 c0 61 -15 79 -77 89 -21 3 -41 10 -45 15 -8 14 80
1 196 -28z m118 -394 c202 -78 312 -131 358 -174 42 -40 43 -65 2 -84 -62 -30
-242 -41 -322 -21 -82 21 -174 124 -210 236 -17 51 -14 103 5 103 5 0 80 -27
167 -60z m-195 -1954 c53 -19 131 -80 178 -138 73 -92 63 -128 -35 -128 -133
0 -250 44 -280 105 -27 59 -3 144 48 165 30 12 46 11 89 -4z m614 -590 c15
-12 17 -18 8 -33 -33 -53 -178 -82 -242 -49 -39 20 -43 57 -10 80 31 22 215
23 244 2z m-311 -380 c27 -19 13 -42 -45 -71 -120 -61 -335 -88 -397 -50 -46
27 -44 57 5 78 58 25 77 29 206 42 164 17 209 17 231 1z"/>
<path d="M9895 10479 c-112 -11 -169 -30 -244 -80 -183 -122 -356 -418 -422
-722 -83 -381 -75 -975 31 -2152 79 -875 124 -1603 155 -2490 52 -1467 120
-2094 259 -2391 43 -92 152 -208 235 -253 153 -81 265 -101 605 -108 291 -6
504 3 976 42 673 56 1158 88 1650 110 980 44 1778 137 1956 228 288 146 322
541 82 960 -66 115 -128 181 -186 197 -50 13 -69 10 -210 -32 -137 -40 -161
-37 -247 36 -37 32 -78 61 -91 67 -33 12 -133 12 -209 -1 -252 -41 -1754 -114
-2637 -127 l-418 -6 0 24 c0 13 -7 121 -15 239 -19 280 -46 765 -95 1725 -80
1568 -95 1736 -157 1785 -14 11 -34 20 -44 20 -34 0 -68 23 -83 55 -17 35 -41
215 -52 389 -6 96 -5 106 11 112 13 5 24 -1 39 -22 36 -51 75 -86 92 -82 10 2
24 21 33 43 37 95 5 1253 -45 1605 -39 274 -147 583 -244 692 -49 56 -136 102
-235 123 -86 19 -367 27 -490 14z"/>
<path d="M7289 10414 c-73 -49 -119 -94 -119 -116 0 -23 -11 -22 230 -22 184
-1 209 -3 245 -21 l40 -20 -3 -133 c-5 -157 7 -201 67 -255 66 -59 122 -72
311 -71 205 0 220 5 220 71 0 94 -87 365 -137 423 -29 34 -61 44 -198 60 -55
7 -198 36 -318 66 -120 30 -233 54 -251 54 -22 0 -52 -12 -87 -36z"/>
<path d="M6987 10196 c-110 -40 -189 -169 -134 -223 23 -23 95 -21 150 6 59
29 131 92 147 131 17 40 -6 75 -57 89 -48 14 -59 13 -106 -3z"/>
<path d="M2232 10150 c-142 -20 -229 -58 -316 -139 -128 -120 -222 -312 -246
-500 -11 -82 -5 -121 17 -121 9 0 42 12 74 26 33 15 62 24 65 21 11 -11 -29
-56 -102 -117 -42 -35 -72 -66 -67 -70 4 -4 42 -19 83 -34 42 -15 81 -30 88
-35 7 -4 -31 -29 -100 -66 l-112 -59 110 -35 c171 -56 246 -108 497 -348 81
-78 174 -160 208 -182 60 -40 61 -40 97 -25 39 16 88 48 211 139 72 54 112 67
127 43 14 -23 5 -122 -16 -183 -26 -76 -77 -161 -110 -183 -56 -37 -211 -11
-360 60 -139 67 -233 180 -276 335 -26 93 -46 107 -155 111 -155 7 -290 -54
-319 -142 -10 -30 -8 -41 15 -85 14 -28 47 -85 74 -126 60 -91 91 -170 98
-247 8 -80 -2 -117 -47 -185 -65 -97 -83 -182 -84 -403 0 -208 14 -275 66
-313 71 -53 637 -23 933 49 169 41 204 29 123 -41 -102 -88 -229 -137 -404
-156 -174 -18 -325 -2 -553 62 -79 22 -146 38 -148 35 -3 -2 2 -53 11 -113 16
-116 30 -340 46 -770 26 -708 32 -832 45 -1033 41 -594 108 -1048 174 -1178
26 -51 53 -60 131 -44 127 27 140 20 185 -99 39 -101 63 -118 176 -129 140
-14 196 -35 243 -90 45 -54 30 -141 -28 -159 -17 -5 -116 -12 -221 -15 -189
-7 -258 -15 -278 -35 -15 -15 32 -141 118 -314 83 -167 168 -300 220 -346 55
-48 85 -43 200 34 54 36 121 72 149 81 72 23 331 29 601 15 566 -29 827 -55
894 -88 36 -18 80 -88 81 -127 0 -17 -6 -18 -72 -12 -40 3 -210 30 -378 59
l-305 52 -335 0 c-416 0 -537 -17 -610 -85 -46 -43 -40 -64 43 -143 286 -278
623 -478 1032 -612 236 -78 429 -108 796 -126 460 -23 956 22 1244 111 129 40
124 39 311 50 252 15 462 57 751 151 354 115 583 245 805 458 345 330 590 792
742 1400 44 176 97 465 116 636 23 207 33 641 27 1160 -8 682 -30 1094 -63
1223 -19 72 -68 140 -119 164 -67 33 -70 35 -67 54 2 10 21 48 42 84 48 81 65
141 81 272 24 211 -24 623 -90 774 -24 54 -52 72 -124 80 -64 8 -76 -6 -36
-42 12 -10 28 -32 36 -48 24 -47 1 -60 -108 -65 -105 -4 -168 4 -195 24 -18
13 -17 16 21 55 22 23 96 79 165 125 162 108 191 138 195 201 2 27 20 101 40
164 53 165 59 290 13 290 -5 0 -31 -22 -59 -50 -59 -59 -93 -64 -150 -26 -41
28 -153 186 -141 198 5 5 46 1 93 -7 115 -20 151 -19 183 6 33 26 53 64 67
129 15 69 0 104 -50 122 -87 31 -948 -13 -1022 -52 -37 -20 -21 -49 81 -150
55 -53 100 -104 100 -113 0 -91 -402 108 -450 223 -16 39 -3 56 49 63 51 6
132 61 214 143 77 76 104 126 89 159 -15 33 -63 38 -213 20 -242 -28 -400 -77
-430 -131 -19 -36 -20 -293 -1 -346 7 -21 30 -50 50 -67 93 -73 414 -229 550
-267 102 -28 176 3 201 85 6 23 18 41 25 41 16 0 51 -38 110 -119 38 -53 45
-67 34 -77 -16 -16 -206 -90 -343 -134 -219 -70 -357 -84 -530 -56 -44 8 -82
12 -84 10 -2 -2 1 -120 8 -261 34 -731 48 -829 157 -1045 l46 -92 -33 -26
c-19 -13 -50 -41 -71 -60 -89 -88 -47 -237 123 -438 93 -109 141 -187 147
-239 4 -40 3 -43 -19 -43 -13 0 -48 9 -78 20 -34 13 -71 20 -100 18 l-46 -3 1
-40 c0 -22 5 -157 12 -300 19 -431 35 -1103 36 -1580 1 -416 0 -453 -17 -478
-12 -19 -26 -27 -45 -27 -90 0 -130 -179 -99 -440 9 -69 15 -126 14 -126 -1
-1 -103 -34 -227 -74 -124 -40 -257 -87 -295 -104 -102 -47 -149 -111 -110
-150 16 -16 62 -22 229 -31 126 -7 292 -33 439 -71 56 -14 103 -27 105 -29 6
-6 -162 -54 -232 -66 -39 -6 -103 -9 -145 -6 -95 7 -182 -10 -325 -64 -60 -22
-110 -38 -113 -35 -6 6 55 45 136 86 35 17 60 35 55 39 -5 5 -94 40 -197 80
-149 57 -192 69 -207 61 -29 -16 -7 -54 51 -90 59 -36 71 -69 42 -108 -15 -21
-30 -28 -62 -30 -56 -4 -71 10 -71 68 0 27 -6 52 -13 58 -30 25 -126 33 -577
47 -261 8 -522 19 -580 25 -187 19 -316 57 -490 144 -169 85 -270 166 -360
286 -79 108 -128 208 -229 467 -125 321 -121 313 -140 313 -9 0 -63 -32 -120
-70 -57 -39 -108 -69 -115 -67 -21 7 -17 44 10 76 30 37 75 61 157 87 45 14
57 22 57 38 -1 63 -21 493 -30 626 -14 200 -27 330 -47 460 -11 77 -13 131 -8
205 12 154 7 233 -19 336 -31 122 -63 190 -123 270 -52 68 -73 101 -73 118 0
6 19 21 43 35 179 105 204 294 118 891 -22 154 -46 348 -54 432 -8 90 -19 158
-27 167 -20 25 -80 19 -172 -15 -127 -47 -190 -63 -221 -55 -23 5 -27 11 -27
44 0 54 47 128 129 204 81 75 172 123 251 132 112 12 135 79 135 396 -1 240
-13 322 -80 527 -163 496 -467 759 -900 778 -49 2 -118 0 -153 -5z m5388
-1645 c49 -26 48 -85 -2 -85 -30 0 -72 -26 -87 -53 -18 -35 -68 -55 -164 -67
-46 -6 -108 -17 -137 -26 -67 -20 -100 -13 -100 23 0 81 156 197 300 222 67
12 152 6 190 -14z m676 -360 c25 -10 35 -20 32 -32 -3 -15 -14 -18 -64 -18
-53 0 -69 -5 -122 -38 -129 -79 -257 -71 -212 14 36 66 272 114 366 74z
m-6222 -1783 c167 -78 269 -260 190 -339 -23 -23 -31 -25 -77 -20 -88 9 -152
36 -196 81 -52 53 -108 147 -127 214 -14 49 -14 55 1 79 16 24 21 25 81 20 41
-3 86 -15 128 -35z m6281 -178 c21 -22 12 -62 -19 -90 -53 -48 -248 -36 -276
17 -17 31 18 55 101 68 41 7 81 14 89 15 42 10 90 5 105 -10z"/>
<path d="M68773 8444 c-60 -15 -138 -53 -201 -96 -175 -120 -407 -165 -917
-178 -377 -9 -405 -14 -405 -71 0 -44 30 -104 85 -168 25 -29 48 -65 52 -79 6
-26 -2 -84 -32 -212 -65 -285 -33 -1009 65 -1500 60 -297 108 -418 205 -516
94 -95 210 -138 445 -166 138 -17 988 -17 1240 0 511 34 837 80 1095 153 109
31 111 32 280 25 94 -3 202 -10 240 -15 182 -24 489 -35 970 -35 656 0 889 16
1124 80 267 72 450 201 536 377 55 114 69 182 69 342 0 183 -12 212 -134 328
-165 157 -335 219 -680 246 -218 18 -652 23 -1035 12 -420 -11 -460 -17 -510
-74 -53 -61 -54 -61 -375 -68 -313 -7 -334 -10 -429 -60 -63 -34 -114 -37
-267 -14 -137 20 -418 35 -658 35 -263 0 -412 13 -473 42 -58 27 -178 139
-204 190 -27 52 -25 107 6 149 53 73 70 150 85 379 20 295 -23 868 -68 893
-23 13 -63 14 -109 1z m-538 -1008 c16 -12 17 -18 6 -61 -21 -85 -95 -207
-181 -299 -49 -53 -146 -106 -194 -106 l-28 0 4 103 c3 89 8 111 35 169 48
102 121 174 203 199 42 12 135 10 155 -5z m833 -1126 c26 -10 32 -17 32 -41 0
-69 -161 -320 -239 -371 -55 -37 -55 -11 -1 80 59 99 60 117 15 227 -51 126
-49 129 68 122 50 -3 107 -10 125 -17z m3168 -264 c43 -50 75 -197 51 -231
-15 -19 -16 -19 -52 -2 -44 21 -137 107 -166 153 -44 72 -7 118 90 111 44 -3
59 -9 77 -31z"/>
<path d="M58140 7773 c-92 -48 -64 -123 53 -139 49 -7 174 11 226 32 l34 14
-23 25 c-65 69 -219 105 -290 68z"/>
<path d="M46880 7297 c-30 -13 -93 -49 -140 -79 -216 -142 -353 -170 -904
-188 -333 -11 -394 -20 -413 -61 -17 -36 4 -106 57 -183 39 -57 40 -61 40
-142 0 -46 -10 -145 -22 -221 -29 -185 -32 -631 -5 -883 49 -453 145 -899 216
-997 32 -45 109 -95 225 -148 109 -49 176 -64 343 -75 191 -12 846 -12 1217 0
326 11 457 25 707 74 383 76 363 75 1564 62 1063 -11 1246 -1 1492 85 223 78
380 204 463 374 59 119 73 185 68 334 -3 114 -6 132 -31 183 -34 69 -174 206
-268 261 -120 70 -300 116 -539 137 -144 12 -994 13 -1195 0 -202 -12 -243
-22 -314 -75 -32 -25 -71 -50 -87 -56 -19 -9 -132 -15 -334 -20 -319 -7 -356
-12 -419 -55 -45 -31 -130 -32 -309 -5 -188 29 -343 40 -682 51 -252 7 -318
12 -382 29 -98 25 -151 60 -179 118 -19 39 -21 56 -16 136 3 52 19 145 36 212
44 169 55 273 47 455 -8 200 -33 474 -51 574 -23 128 -67 152 -185 103z m-489
-991 c24 -52 -72 -272 -161 -369 -78 -86 -164 -122 -210 -90 -21 15 -22 22
-18 93 6 105 56 208 138 284 105 97 226 137 251 82z m814 -1131 c88 -23 92
-30 55 -101 -40 -76 -146 -236 -205 -308 -48 -58 -79 -71 -90 -36 -7 22 17 75
39 83 29 12 39 83 26 202 -6 61 -9 118 -5 128 3 9 7 24 10 32 6 20 92 20 170
0z m3187 -242 c10 -9 18 -29 18 -44 0 -62 22 -130 56 -170 38 -46 38 -44 24
-70 -30 -55 -128 1 -237 134 -81 100 -81 113 7 144 78 27 107 28 132 6z"/>
<path d="M90085 5949 c-690 -15 -1621 -53 -1915 -80 -174 -15 -378 -46 -482
-73 -126 -33 -204 -62 -398 -149 l-165 -74 -106 97 c-136 123 -150 128 -333
112 -237 -22 -941 -59 -2226 -117 -1106 -50 -2250 -112 -2410 -130 -45 -5
-432 -26 -830 -45 -118 -6 -498 -21 -845 -35 -1527 -60 -2016 -100 -2695 -217
-210 -36 -257 -41 -445 -45 -150 -3 -264 0 -400 12 -285 26 -836 31 -1170 11
-434 -26 -686 -36 -905 -36 -236 0 -452 -12 -695 -40 -298 -34 -874 -67 -1560
-90 -1167 -39 -1995 -109 -2266 -190 -84 -25 -100 -42 -70 -73 11 -13 21 -28
21 -34 0 -48 -253 -23 -280 28 -7 11 -8 38 -4 64 12 86 -15 92 -328 76 -392
-21 -605 -49 -741 -98 -78 -28 -102 -41 -162 -88 -68 -54 -80 -58 -117 -39
-18 9 -78 54 -132 100 -55 46 -103 84 -107 84 -3 0 -12 -13 -19 -30 -18 -43
-68 -120 -79 -120 -5 0 -14 14 -21 30 -27 64 -91 86 -164 56 -19 -8 -70 -39
-114 -69 -84 -58 -137 -81 -174 -75 -19 2 -22 8 -20 34 4 46 -39 78 -135 101
-69 16 -125 18 -473 18 -217 0 -478 -6 -580 -13 -580 -40 -1027 -78 -1930
-167 -1123 -111 -1967 -185 -2104 -185 -81 0 -197 -17 -210 -30 -17 -17 23
-47 154 -116 71 -37 139 -77 151 -90 31 -34 19 -54 -33 -54 -54 0 -109 25
-173 79 -27 23 -56 40 -64 39 -8 -2 -38 -37 -66 -78 -63 -91 -171 -185 -234
-204 -27 -8 -47 -20 -49 -30 -2 -9 15 -57 39 -107 48 -106 52 -154 20 -259
-50 -164 -69 -228 -75 -262 l-7 -37 47 -7 c126 -19 2557 67 3139 111 39 3 187
14 330 25 527 40 1085 71 1630 90 613 22 1853 84 2705 135 223 13 652 39 953
57 l548 33 91 83 c135 123 261 192 349 192 27 0 39 -4 39 -14 0 -25 -48 -54
-144 -86 -50 -16 -102 -37 -114 -46 -88 -62 84 -88 539 -81 312 4 354 9 401
46 21 18 23 26 20 102 -3 75 0 88 27 143 17 34 63 104 102 156 81 108 129 187
129 212 0 50 87 41 176 -18 89 -59 89 -69 4 -93 -60 -17 -90 -37 -90 -61 0
-26 15 -33 89 -41 90 -9 100 -22 111 -145 5 -54 12 -143 16 -198 l6 -98 137 6
c75 3 244 11 376 16 645 28 1421 80 1845 125 221 24 453 35 858 42 l382 6 10
41 c33 132 43 166 61 195 39 65 55 25 45 -120 l-6 -99 182 0 c214 0 343 12
392 35 20 10 51 39 70 65 19 27 44 51 54 55 11 3 47 -4 79 -16 168 -61 209
-72 283 -73 91 -1 125 14 196 90 36 39 58 54 77 54 35 0 49 -27 37 -71 -8 -26
-7 -37 5 -48 23 -23 170 -30 465 -20 350 11 615 25 2255 114 2421 132 3505
211 3505 255 0 40 202 157 309 179 49 10 59 9 100 -11 67 -34 64 -70 -11 -122
-77 -55 108 -56 1257 -6 1372 60 3299 153 4155 200 319 18 522 38 538 54 2 3
-3 87 -12 188 -24 273 -36 515 -36 781 l0 237 -117 -2 c-65 -1 -275 -5 -468
-9z m-13163 -855 c106 -38 268 -118 301 -148 31 -29 32 -59 4 -64 -10 -2 -55
8 -99 23 -85 27 -123 27 -163 -1 -57 -40 -111 3 -146 117 -17 56 -19 72 -9 84
17 20 27 19 112 -11z m7736 -9 c4 -39 -43 -96 -112 -135 -76 -44 -166 -38
-166 11 0 30 16 55 51 80 36 25 186 80 209 76 9 -1 16 -15 18 -32z m-8538
-203 c0 -37 -67 -141 -112 -176 -23 -17 -47 -26 -72 -26 -38 0 -96 24 -96 39
0 14 129 131 179 162 25 16 58 29 73 29 24 0 28 -4 28 -28z m-7630 -269 c0 -4
-18 -28 -40 -54 -54 -64 -58 -90 -26 -169 27 -66 33 -114 16 -125 -31 -19
-160 95 -237 211 -41 62 -39 78 14 101 62 26 273 54 273 36z m3041 -8 c60 -21
118 -61 128 -88 22 -57 -43 -89 -236 -118 -76 -11 -175 -29 -220 -39 -46 -11
-89 -17 -98 -14 -32 13 -10 64 28 64 38 0 86 40 111 93 24 51 52 84 91 105 29
17 146 14 196 -3z m4856 -258 c18 -10 40 -29 50 -43 15 -23 15 -30 2 -67 -21
-63 -48 -72 -175 -58 -123 14 -200 35 -213 59 -22 41 13 98 74 120 46 17 223
10 262 -11z m-7209 -293 c43 -17 66 -48 60 -85 -5 -39 -41 -49 -178 -49 -170
1 -229 15 -214 53 12 33 178 94 261 96 18 1 50 -6 71 -15z m565 -50 c3 -4 2
-14 -3 -24 -28 -53 -343 -118 -357 -73 -6 18 36 51 86 68 79 26 258 45 274 29z
m2567 -44 c-21 -29 -57 -46 -82 -38 -15 5 68 68 89 68 11 0 9 -7 -7 -30z
m-9403 -125 c55 -33 56 -56 2 -106 -68 -62 -280 -159 -349 -159 -26 0 -30 5
-49 63 -46 139 -45 178 1 193 32 10 220 31 292 33 47 1 68 -4 103 -24z"/>
<path d="M61370 4490 c-74 -5 -184 -16 -245 -25 -164 -23 -318 -29 -418 -16
-118 16 -158 5 -193 -52 -71 -113 -134 -130 -134 -36 0 21 -5 50 -10 65 -12
30 3 30 -240 0 -128 -16 -418 -37 -780 -57 -113 -7 -410 -13 -660 -14 -344 -2
-487 -6 -585 -18 -237 -29 -547 -51 -945 -67 -815 -32 -2335 -163 -2985 -257
-113 -16 -227 -26 -305 -26 -114 -1 -137 2 -265 36 -184 50 -265 55 -428 28
-154 -25 -297 -27 -375 -5 -119 35 -242 10 -632 -126 -107 -38 -204 -70 -214
-72 -13 -2 -24 6 -32 21 -17 33 -27 38 -124 52 -108 16 -752 16 -1125 0 -1037
-45 -2001 -129 -2279 -201 -114 -29 -126 -42 -76 -87 17 -14 30 -32 30 -39 0
-19 -62 -28 -150 -21 -128 10 -153 33 -131 121 14 58 7 74 -37 82 -40 8 -636
-30 -808 -51 -189 -23 -242 -41 -407 -139 l-79 -47 -120 87 -120 87 -92 -92
c-119 -120 -166 -150 -253 -162 -37 -5 -90 -15 -117 -21 -44 -11 -49 -11 -62
7 -8 10 -14 39 -14 64 0 56 -30 125 -61 142 -33 17 -479 6 -1024 -26 -602 -35
-1708 -93 -3320 -175 -1454 -74 -3763 -193 -5515 -285 -3108 -163 -4865 -244
-5740 -265 -885 -21 -1176 -43 -2885 -214 -1067 -107 -1742 -166 -1908 -168
-97 -1 -120 -4 -125 -16 -8 -22 60 -79 157 -130 45 -24 95 -55 111 -69 47 -39
37 -73 -21 -73 -28 0 -91 34 -171 92 -38 28 -70 49 -72 47 -2 -2 -17 -33 -34
-69 -41 -86 -97 -148 -182 -205 -117 -78 -121 -88 -64 -171 49 -71 53 -115 19
-224 -47 -154 -78 -288 -71 -305 6 -17 35 -18 509 -12 916 11 2449 77 3312
143 190 14 468 20 665 13 41 -1 131 5 200 14 137 18 363 32 770 47 932 35
1209 63 1452 146 143 49 206 52 348 20 159 -36 301 -56 395 -56 224 0 675 85
675 128 0 17 -37 42 -63 42 -16 0 -27 6 -27 14 0 21 58 43 135 50 38 4 115 16
170 26 133 26 160 26 190 -5 27 -26 33 -72 11 -81 -7 -3 -56 2 -109 10 -53 9
-101 16 -106 16 -33 0 -56 -79 -28 -97 43 -27 286 -23 1557 27 2683 106 3539
150 4725 245 763 61 1590 108 4220 240 1729 87 3044 155 3660 190 237 13 727
41 1090 61 l660 37 70 67 c85 80 141 120 240 166 76 37 141 52 171 40 16 -6
16 -8 0 -25 -17 -18 -87 -52 -176 -85 -52 -18 -117 -73 -104 -86 35 -35 439
-59 707 -42 283 17 296 27 273 214 l-9 66 55 54 c36 36 86 107 152 218 54 91
100 167 102 169 7 8 107 -45 142 -74 18 -15 32 -32 32 -39 0 -22 -35 -46 -111
-75 l-74 -29 40 -7 c85 -15 115 -26 127 -48 6 -12 15 -76 19 -142 9 -140 29
-216 65 -244 16 -12 49 -22 92 -27 156 -17 994 28 3287 176 2343 152 3831 231
4675 250 1112 25 1514 52 1784 121 44 11 138 44 210 74 167 68 202 77 306 80
101 2 176 28 239 82 91 77 64 126 -51 91 -60 -18 -64 -7 -44 116 24 148 23
150 -138 181 -96 17 -166 42 -166 57 0 13 65 107 194 283 115 156 176 250 176
271 0 25 -176 36 -380 24z m-6163 -617 c11 -17 17 -46 18 -84 0 -78 -19 -97
-110 -110 -160 -22 -189 25 -80 133 54 55 105 87 137 88 10 0 25 -12 35 -27z
m3096 -203 c44 -17 57 -26 57 -43 0 -34 -166 -189 -243 -227 -115 -56 -139
-17 -65 106 35 57 43 78 44 122 0 34 6 57 15 63 22 15 127 4 192 -21z m-11663
-193 c0 -7 -18 -36 -40 -66 -49 -65 -50 -90 -9 -182 34 -78 34 -103 2 -107
-33 -5 -77 23 -158 99 -137 131 -124 178 65 245 74 26 140 31 140 11z m3075
-39 c46 -12 118 -78 113 -105 -4 -24 -59 -42 -133 -43 -53 -1 -138 -20 -325
-74 -63 -18 -106 -20 -115 -6 -9 14 41 58 74 65 42 9 82 56 88 104 3 22 12 46
21 53 31 26 185 29 277 6z m6575 -154 c0 -42 -29 -74 -67 -74 -28 0 -198 -44
-367 -94 -140 -41 -163 -36 -254 57 -94 95 -62 113 168 96 80 -6 199 -10 265
-7 111 4 125 6 180 35 33 17 63 29 68 26 4 -2 7 -20 7 -39z m-12943 -140 c3
-9 1 -32 -5 -52 -18 -58 -4 -60 112 -14 102 41 126 48 126 36 0 -14 -82 -124
-115 -152 -48 -43 -84 -42 -128 1 -62 63 -84 141 -50 179 20 22 52 23 60 2z
m4029 -270 c38 -28 40 -40 8 -61 -23 -15 -50 -17 -184 -17 -86 0 -162 4 -169
8 -23 15 38 64 109 87 14 5 66 7 117 6 75 -2 97 -6 119 -23z m512 -13 c21 -13
-4 -48 -50 -72 -79 -40 -259 -49 -288 -14 -16 19 2 49 39 65 61 25 270 40 299
21z m2561 -49 c12 -22 3 -64 -12 -59 -19 6 -50 55 -43 66 11 17 44 13 55 -7z
m-24496 -911 c67 -11 76 -23 52 -67 -42 -78 -241 -195 -338 -198 -50 -1 -53 0
-70 35 -24 50 -42 139 -34 171 8 29 37 44 117 57 70 11 211 12 273 2z"/>
<path d="M24490 2564 c-63 -8 -180 -25 -260 -39 -270 -48 -369 -55 -830 -65
-245 -5 -515 -11 -600 -15 -1362 -54 -2937 -169 -3420 -250 -300 -51 -498 -77
-580 -76 -47 0 -227 8 -400 17 -364 20 -905 22 -1270 5 -235 -11 -419 -22
-1325 -76 -1209 -72 -6996 -386 -7862 -426 -228 -11 -263 -15 -263 -28 0 -9 5
-61 12 -117 13 -119 10 -139 -37 -187 -29 -30 -34 -40 -26 -56 13 -23 65 -45
146 -60 168 -34 207 -67 256 -220 17 -53 33 -119 36 -148 6 -51 5 -52 -23 -60
-43 -12 -383 -8 -509 6 -289 31 -485 78 -485 115 0 19 42 53 123 100 127 75
287 243 287 303 0 40 -30 46 -200 38 -104 -4 -160 -3 -164 3 -8 13 30 40 124
87 145 72 175 115 108 152 -29 16 -60 18 -258 17 -124 -1 -371 -9 -550 -18
-1538 -78 -3460 -187 -4085 -232 -249 -18 -249 -18 -270 -100 -18 -72 -63 -87
-85 -29 -13 35 -62 62 -138 75 -92 16 -425 13 -687 -5 -437 -31 -597 -44 -603
-49 -15 -16 25 -1136 43 -1183 8 -22 198 -18 1205 27 688 31 1521 73 3164 160
l1509 80 106 103 c191 185 283 247 367 247 104 0 92 -42 -38 -136 -180 -131
-217 -167 -183 -180 88 -34 9723 477 10105 536 173 27 317 33 780 36 l494 2
12 38 c7 22 22 71 33 111 24 82 62 136 82 116 7 -7 15 -55 19 -108 10 -132 14
-135 144 -135 141 1 291 16 352 34 29 9 76 36 106 60 92 76 94 76 291 20 158
-45 191 -44 282 6 73 40 127 51 141 28 5 -7 7 -25 6 -40 -2 -23 3 -31 25 -39
31 -12 84 -11 618 20 193 11 663 36 1045 56 1608 81 1806 92 2135 121 461 39
652 81 905 199 149 70 165 74 192 45 17 -18 27 -21 60 -16 90 14 223 83 254
132 15 22 15 27 2 40 -8 8 -37 17 -66 21 -74 8 -84 23 -91 142 -8 135 -12 139
-173 166 -51 8 -107 18 -125 20 l-32 6 128 163 c211 266 287 390 261 421 -30
37 -127 42 -320 19z m-472 -579 c2 -28 -2 -93 -8 -146 -16 -120 -7 -153 56
-204 24 -20 44 -41 44 -46 0 -13 -63 -39 -94 -39 -35 0 -82 44 -102 95 -33 88
4 355 54 385 33 19 47 7 50 -45z m-5495 26 c141 -49 307 -144 307 -176 0 -20
-57 -20 -130 0 -73 20 -141 19 -185 -2 -33 -16 -39 -16 -63 -2 -43 24 -72 76
-72 128 0 26 5 52 12 59 17 17 67 15 131 -7z m-829 -183 c-13 -45 -98 -161
-138 -190 -32 -23 -48 -28 -70 -24 -35 7 -66 33 -66 54 0 26 82 96 165 139 93
49 120 54 109 21z m233 -564 c139 -35 117 -103 -41 -125 -109 -15 -226 2 -268
39 -24 20 -23 55 2 77 38 34 188 38 307 9z m-15602 -924 c60 -16 115 -42 115
-54 0 -41 -68 -86 -130 -86 -47 0 -209 65 -217 87 -3 7 2 24 11 38 15 23 22
25 99 25 45 0 100 -5 122 -10z"/>
</g>
</svg>
