<?xml version="1.0" standalone="no"?>
<!DOCTYPE svg PUBLIC "-//W3C//DTD SVG 20010904//EN"
 "http://www.w3.org/TR/2001/REC-SVG-20010904/DTD/svg10.dtd">
<svg version="1.0" xmlns="http://www.w3.org/2000/svg"
 width="2178.000000pt" height="398.000000pt" viewBox="0 0 2178.000000 398.000000"
 preserveAspectRatio="xMidYMid meet">

<g transform="translate(0.000000,398.000000) scale(0.100000,-0.100000)"
fill="#000000" stroke="none">
<path d="M20520 3904 c-509 -29 -968 -53 -1020 -54 -52 0 -149 -5 -215 -10
-66 -6 -226 -14 -355 -19 -183 -7 -245 -13 -278 -26 -34 -14 -48 -15 -68 -6
-53 24 -203 2 -246 -36 -16 -14 -18 -13 -24 12 l-7 27 -116 -6 c-235 -14 -514
-26 -836 -36 -394 -12 -500 -22 -622 -56 l-91 -26 -31 22 c-45 34 -99 24 -206
-39 l-88 -52 -34 33 c-31 30 -35 31 -44 16 -11 -21 -31 -25 -23 -5 2 7 -9 20
-25 30 -22 13 -45 16 -107 12 -44 -2 -110 -6 -149 -8 -38 -2 -187 -12 -330
-22 l-260 -19 -43 -45 -43 -46 5 43 c7 50 33 46 -234 32 -102 -6 -383 -19
-625 -30 -586 -28 -773 -38 -815 -46 -31 -5 -39 -13 -65 -67 -27 -55 -34 -62
-69 -69 -22 -5 -46 -13 -53 -20 -16 -13 -18 -11 -27 25 -6 26 -5 27 34 27 27
0 47 7 60 20 30 30 16 41 -32 24 -36 -12 -44 -13 -56 0 -12 12 -9 15 26 21 22
3 48 13 59 21 16 13 6 14 -92 9 -60 -2 -184 -7 -275 -10 -227 -8 -341 -23
-471 -61 -8 -2 -24 4 -36 15 -18 17 -28 18 -99 10 -43 -5 -117 -9 -164 -9
-139 2 -630 -19 -701 -30 -36 -5 -103 -20 -148 -34 -81 -23 -84 -23 -102 -5
-10 10 -34 21 -54 25 -38 7 -71 -7 -212 -87 l-42 -24 -34 34 c-34 32 -35 32
-42 12 -3 -12 -11 -21 -17 -21 -5 0 -8 6 -5 14 7 17 -33 46 -63 46 -11 0 -29
-5 -39 -12 -13 -8 -41 -9 -102 -1 -60 7 -107 6 -173 -4 -50 -7 -314 -24 -586
-37 -272 -14 -552 -30 -621 -35 -69 -6 -141 -8 -160 -5 -49 8 -2528 -122
-2704 -142 -44 -5 -53 -10 -78 -45 -37 -51 -51 -51 -43 2 l6 41 -62 -6 c-35
-3 -209 -13 -388 -21 -682 -31 -805 -37 -813 -42 -10 -6 -74 -10 -287 -18
-126 -5 -190 -12 -229 -25 -46 -15 -57 -16 -80 -4 -14 8 -40 14 -56 14 -42 0
-145 -28 -173 -46 -13 -9 -24 -14 -25 -12 -21 41 -24 43 -83 40 -286 -13 -827
-43 -859 -48 -74 -10 -1507 -86 -1785 -94 -491 -15 -719 -35 -988 -84 -67 -12
-122 -19 -122 -16 0 3 5 11 12 18 6 6 9 14 6 17 -5 5 -459 -15 -466 -21 -2 -1
4 -16 12 -33 9 -16 16 -53 16 -81 0 -57 16 -66 48 -25 23 30 36 32 29 6 -2
-10 0 -26 5 -35 7 -13 4 -16 -22 -16 -28 0 -90 -24 -90 -35 0 -2 8 -21 18 -41
l17 -37 110 7 c61 4 156 15 213 24 82 14 105 15 110 5 6 -10 34 -10 127 -3 66
4 235 11 375 15 262 6 355 18 452 56 60 23 56 24 51 -3 l-4 -23 148 8 c81 4
596 30 1143 57 547 28 1045 55 1105 60 131 12 720 44 1210 65 454 19 535 25
535 36 0 6 9 20 20 31 20 21 20 21 35 2 8 -10 15 -23 15 -28 0 -4 15 -6 33 -2
37 7 1118 60 1192 58 28 0 334 17 680 38 564 35 853 49 1340 65 83 3 206 9
275 14 68 5 130 7 137 4 8 -3 144 3 304 13 l291 18 24 37 c13 21 28 40 34 44
8 5 6 12 -4 24 -15 17 -13 17 41 13 32 -2 62 -8 67 -12 5 -5 4 -22 -2 -40 -10
-28 -9 -32 14 -40 50 -19 342 -3 370 21 10 8 10 18 -1 50 l-14 39 29 0 c27 0
29 -3 32 -42 l3 -43 70 -6 c108 -9 355 11 355 30 0 3 -11 23 -25 43 -22 32
-33 68 -21 68 2 0 17 -7 32 -15 32 -16 74 -20 74 -7 0 5 -9 17 -20 27 -11 10
-20 21 -20 25 0 4 34 11 75 16 74 10 75 9 75 -12 0 -35 11 -54 31 -54 16 0 17
-4 7 -31 -6 -17 -7 -34 -2 -39 5 -5 55 -12 111 -15 l101 -7 4 28 c3 27 6 29
51 32 27 1 47 -2 47 -8 0 -5 -5 -10 -11 -10 -5 0 -7 -4 -4 -10 3 -5 21 -10 40
-10 37 0 49 17 39 57 -7 25 -6 26 29 20 20 -3 39 -1 42 4 10 14 85 51 98 46 6
-2 -9 -18 -34 -35 -24 -17 -56 -42 -71 -55 l-28 -23 198 4 c200 3 405 15 567
32 60 6 102 6 125 -1 19 -6 58 -9 85 -7 l50 3 3 65 c2 43 8 69 18 76 12 10 11
13 -8 18 l-23 7 25 10 c22 9 29 6 58 -27 36 -42 36 -54 -1 -29 l-25 16 -4 -47
c-7 -87 -70 -84 734 -40 392 21 745 40 783 42 296 11 355 16 365 33 7 12 12
13 18 4 6 -9 127 -6 522 12 815 38 950 47 950 62 0 7 9 13 20 13 11 0 20 -5
20 -11 0 -17 180 -5 192 13 5 7 7 41 6 75 -2 34 -1 64 2 66 3 2 28 7 56 11
l51 6 7 -41 c5 -33 10 -40 25 -36 15 3 17 -2 17 -36 -1 -45 -7 -43 114 -48
l84 -4 7 30 c8 28 12 30 54 31 31 1 45 -3 45 -13 0 -7 -6 -13 -12 -13 -10 0
-10 -2 0 -9 8 -4 28 -5 45 -2 28 6 32 11 35 43 3 35 5 37 31 32 20 -4 38 2 66
20 32 22 75 35 75 23 0 -2 -24 -20 -54 -41 -58 -40 -100 -80 -75 -72 8 3 201
10 429 15 228 6 454 14 503 17 83 6 87 7 87 30 0 29 19 31 53 4 25 -20 25 -20
488 5 255 13 628 31 829 40 201 8 410 19 465 25 55 5 201 15 325 21 214 11
226 12 253 35 31 26 68 39 89 31 7 -3 -2 -8 -19 -12 -18 -4 -38 -14 -44 -21
-10 -12 4 -14 82 -14 l94 0 37 57 c28 44 38 53 43 40 4 -9 -2 -29 -15 -47
l-21 -30 128 0 c273 1 655 19 823 40 96 12 177 24 179 26 2 2 -2 50 -9 106 -8
57 -13 118 -12 136 l2 32 -88 -1 c-48 -1 -503 -25 -1012 -55z m-514 -88 c7
-28 -11 -66 -30 -66 -9 0 -15 15 -18 45 -3 41 -1 45 19 45 16 0 25 -8 29 -24z
m760 -15 c79 -36 66 -50 -25 -30 -54 11 -72 26 -50 40 20 12 29 11 75 -10z
m-2906 -110 c0 -6 -4 -13 -10 -16 -5 -3 -10 1 -10 9 0 9 5 16 10 16 6 0 10 -4
10 -9z m1225 -22 c10 -16 -25 -49 -52 -49 -30 0 -29 9 5 37 31 25 38 27 47 12z
m-2501 -18 c16 -17 15 -19 -15 -31 -28 -12 -33 -12 -45 5 -28 38 27 62 60 26z
m2666 -42 c0 -18 -5 -20 -47 -18 -40 3 -47 0 -54 -20 -11 -29 -28 -19 -21 14
3 20 10 25 31 24 14 -1 37 3 51 9 36 15 40 14 40 -9z m-2720 -9 c0 -5 -5 -10
-12 -10 -6 0 -3 -7 8 -15 19 -14 19 -14 -3 -15 -24 0 -56 27 -48 41 8 12 55
12 55 -1z m524 -9 c16 -17 15 -19 -29 -31 -42 -12 -47 -11 -60 6 -25 33 -18
44 28 44 30 0 49 -6 61 -19z m-436 -35 c-10 -30 -13 -33 -29 -23 -11 7 -19 17
-19 22 0 17 22 35 41 35 15 0 16 -5 7 -34z m1662 -16 c13 -9 12 -12 -4 -25
-22 -17 -66 -20 -66 -6 0 10 39 41 50 41 3 0 12 -5 20 -10z m-2707 -80 c8 0 8
-3 0 -11 -17 -17 -83 7 -83 30 0 30 12 31 42 6 16 -14 35 -25 41 -25z m-2253
-5 c0 -7 7 -18 16 -23 20 -11 2 -27 -43 -36 -35 -8 -38 -5 -48 42 -7 32 -7 32
34 32 29 0 41 -4 41 -15z m-612 -38 c4 -41 -2 -45 -30 -20 -29 26 -22 67 12
61 9 -2 16 -16 18 -41z m1047 5 c-5 -23 -2 -30 17 -39 22 -10 21 -11 -19 -23
-34 -11 -45 -11 -58 0 -20 17 -19 28 3 26 12 -1 18 8 20 32 3 24 8 32 23 32
17 0 20 -5 14 -28z m1659 -3 c29 2 46 -12 46 -36 0 -20 -17 -15 -23 7 -4 17
-9 18 -38 10 -56 -16 -79 -13 -79 11 0 19 4 21 33 14 17 -4 45 -7 61 -6z
m-2510 -39 c-5 -4 -24 -10 -42 -14 -45 -8 -38 15 9 30 33 12 52 2 33 -16z
m-1569 0 c21 -23 21 -22 -23 -44 -22 -11 -32 -22 -28 -32 7 -19 -28 -19 -44 1
-17 20 -3 36 26 29 26 -7 31 4 12 25 -11 10 -9 15 6 27 26 18 29 18 51 -6z
m-365 -50 l27 -29 -25 -17 c-25 -17 -26 -16 -65 25 -31 33 -36 45 -27 56 16
19 54 4 90 -35z m832 -7 c25 -22 23 -30 -9 -36 -16 -3 -36 -9 -45 -12 -12 -5
-18 -2 -18 8 0 8 -7 21 -16 28 -14 12 -14 14 3 20 31 13 66 10 85 -8z m1097
-4 c29 -24 16 -45 -23 -35 -19 5 -26 13 -26 31 0 30 17 31 49 4z m-1521 -31
c-14 -43 -13 -42 -38 -25 l-22 15 21 21 c12 12 28 21 35 21 12 0 13 -6 4 -32z
m-1622 2 c46 0 43 -14 -9 -39 -45 -22 -93 -28 -82 -11 3 6 -3 10 -14 10 -12 0
-21 7 -21 15 0 21 31 36 64 30 16 -3 44 -5 62 -5z m1124 -29 c0 -13 -28 -21
-47 -13 -14 5 -12 8 12 13 17 4 31 7 33 8 1 0 2 -3 2 -8z m1976 2 c-7 -7 -146
-22 -146 -15 0 1 10 7 23 12 27 11 133 13 123 3z m-2457 -47 c17 -18 19 -25 9
-29 -17 -6 -78 18 -78 31 0 30 40 29 69 -2z m-149 7 c-1 -25 -53 -58 -77 -49
-14 6 -13 10 7 31 22 23 70 35 70 18z m-626 -59 c9 -23 2 -27 -26 -18 -21 7
-27 9 -44 13 -3 0 -2 6 1 11 10 17 62 12 69 -6z m720 -13 c17 -7 17 -8 2 -24
-19 -19 -24 -20 -78 -11 -33 6 -36 9 -27 25 10 20 65 25 103 10z m-3667 -136
c38 -23 42 -35 12 -35 -32 0 -59 19 -59 41 0 23 0 23 47 -6z m-129 -60 c33 0
43 -4 48 -18 3 -11 1 -24 -5 -30 -8 -8 -11 -5 -11 12 0 22 -3 23 -46 16 -26
-3 -53 -9 -60 -12 -10 -4 -14 3 -14 22 0 23 3 25 23 18 12 -4 41 -8 65 -8z
m-1488 -30 c0 -21 -47 -48 -67 -40 -16 5 -13 10 17 35 35 29 50 30 50 5z
m-2047 -95 c7 -6 21 -17 32 -25 19 -14 19 -14 -6 -15 -15 0 -38 -9 -53 -21
l-26 -20 0 24 c0 14 -3 32 -6 40 -3 10 2 17 13 20 30 8 33 7 46 -3z m-2363
-29 c0 -11 5 -23 10 -26 25 -16 9 -41 -35 -54 -41 -12 -48 -12 -65 4 -30 27
-25 39 28 68 57 32 62 33 62 8z m3608 -8 c-2 -10 -17 -20 -38 -24 -19 -4 -36
-6 -37 -5 -1 1 4 12 13 24 19 27 67 31 62 5z m-3060 -24 c24 -8 31 -16 29 -32
-2 -18 3 -21 21 -19 43 6 24 -25 -24 -37 l-46 -12 -38 43 c-22 24 -39 49 -40
56 0 15 55 16 98 1z m-728 -79 c0 -18 -26 -40 -47 -40 -7 0 -9 41 -4 58 1 1
12 2 26 2 18 0 25 -5 25 -20z"/>
<path d="M20288 3480 c-10 -6 -18 -23 -18 -39 0 -35 -35 -81 -62 -81 -19 0
-18 2 6 31 33 39 34 69 3 69 -46 0 -179 -40 -240 -72 -78 -41 -189 -150 -254
-250 -132 -202 -185 -437 -164 -729 16 -233 73 -409 185 -577 63 -96 250 -232
319 -232 10 0 17 -8 17 -20 0 -52 206 -91 490 -92 159 -1 240 19 296 73 40 39
42 47 12 51 -18 2 -22 8 -19 28 1 14 8 28 15 32 11 8 107 1 182 -12 55 -9 88
6 144 66 170 183 250 423 250 754 0 172 -15 280 -55 409 -24 75 -29 83 -66
101 -38 20 -39 21 -23 45 15 23 15 27 -7 62 -111 183 -273 301 -496 360 -86
23 -123 26 -298 30 -133 2 -206 0 -217 -7z m182 -76 c19 -21 -7 -45 -51 -47
-34 -2 -48 16 -35 49 7 19 70 18 86 -2z m-500 -228 c0 -14 -67 -43 -77 -33 -2
3 5 15 16 26 24 24 61 28 61 7z m639 -6 c122 -23 260 -127 327 -248 20 -36 33
-50 44 -46 32 12 35 8 32 -36 -2 -25 8 -135 22 -246 19 -144 24 -222 20 -276
-6 -67 -5 -76 12 -82 16 -6 14 -9 -13 -25 -47 -29 -75 -75 -76 -129 -2 -37 -7
-51 -27 -66 -52 -40 -99 -90 -111 -117 -9 -22 -18 -29 -40 -29 -44 0 -78 -17
-97 -50 -16 -28 -21 -30 -78 -30 -126 0 -283 42 -452 120 -85 40 -91 44 -86
67 7 25 -41 143 -57 143 -4 0 -49 -16 -99 -35 -107 -41 -120 -43 -94 -14 26
29 87 59 121 59 54 0 56 7 26 126 -35 140 -39 342 -9 469 57 250 195 402 401
445 57 11 174 12 234 0z m565 -179 c15 -6 11 -10 -22 -25 -42 -19 -104 -16
-117 4 -14 23 94 39 139 21z m-1508 -426 c40 -27 32 -31 -27 -13 -38 11 -46
18 -32 31 11 11 20 8 59 -18z m182 -65 c31 -25 20 -40 -29 -40 -44 0 -46 2
-21 35 21 29 21 29 50 5z m1239 -765 c8 -22 4 -23 -47 -15 -43 6 -44 7 -20 18
36 15 60 14 67 -3z"/>
<path d="M16297 3454 c-12 -13 -8 -20 18 -32 37 -17 47 -15 43 11 -2 15 -11
23 -28 25 -14 2 -29 0 -33 -4z"/>
<path d="M18785 3391 c-38 -5 -123 -12 -187 -16 -106 -6 -118 -9 -118 -26 0
-10 -12 -26 -26 -36 -25 -16 -27 -16 -39 1 -13 17 -17 16 -75 -18 -70 -41 -70
-41 -70 -21 0 8 -11 22 -25 31 -14 9 -25 23 -25 31 0 13 -21 14 -162 8 -195
-9 -282 -28 -311 -67 -27 -36 -34 -121 -13 -169 32 -75 65 -83 358 -84 164 0
240 -4 248 -11 8 -8 17 -122 25 -330 17 -397 21 -445 46 -567 16 -78 17 -106
9 -137 -15 -55 -15 -143 0 -171 7 -13 22 -34 33 -46 l20 -23 -20 0 c-36 0 -46
-24 -41 -98 9 -117 67 -195 172 -228 47 -15 61 -16 96 -5 47 14 106 62 97 78
-8 12 -59 3 -94 -15 -30 -16 -35 -15 -28 7 4 13 0 23 -12 30 -13 8 6 9 73 5
86 -6 93 -5 103 14 15 28 14 86 -3 126 -10 23 -11 37 -4 44 6 6 7 27 3 52 -7
39 -9 41 -33 35 -31 -8 -32 -8 -54 -6 -34 2 -18 19 33 36 l52 17 -7 92 c-18
266 -58 1108 -53 1113 3 3 45 13 93 23 89 18 100 26 111 73 7 32 9 32 82 11
31 -9 63 -18 71 -21 10 -3 8 -7 -9 -16 -55 -28 -11 -44 87 -32 32 4 61 14 73
26 10 10 25 16 33 13 29 -11 86 94 86 158 0 41 -45 82 -111 103 -62 20 -363
29 -484 16z m-15 -36 c0 -23 -54 -116 -79 -138 -32 -27 -78 -40 -53 -15 7 7 8
17 2 29 -16 29 6 67 57 99 42 27 73 38 73 25z m-232 -120 c3 -2 -1 -11 -8 -20
-16 -20 -60 -20 -60 0 0 8 -9 15 -21 15 -12 0 -18 4 -13 11 6 11 91 6 102 -6z
m662 8 c0 -17 -46 -53 -67 -53 -33 0 -29 17 10 40 32 20 57 26 57 13z m-952
-105 c18 -18 15 -28 -8 -28 -11 0 -34 -9 -52 -20 -55 -34 -65 -21 -22 29 27
32 61 40 82 19z m997 -18 c-3 -5 -22 -10 -41 -10 -19 0 -34 5 -34 10 0 6 18
10 41 10 24 0 38 -4 34 -10z m-713 -91 c16 -8 19 -17 14 -40 -5 -25 -2 -29 22
-34 70 -15 87 -22 90 -38 3 -15 -1 -15 -40 3 -24 11 -55 20 -69 20 -22 0 -27
6 -32 33 -3 17 -8 40 -12 50 -8 20 -2 21 27 6z m44 -199 c43 -19 46 -22 32
-37 -12 -11 -26 -14 -52 -9 -32 6 -36 10 -36 36 0 17 2 30 4 30 2 0 26 -9 52
-20z m11 -151 l28 -12 -25 -7 c-39 -12 -50 -11 -44 3 3 8 -5 19 -18 25 -22 12
-22 12 4 7 15 -3 40 -10 55 -16z m35 -100 c82 -32 92 -59 21 -57 -52 2 -93 28
-93 60 0 23 7 23 72 -3z m-48 -478 c27 -28 29 -54 3 -46 -7 2 -24 6 -39 9 -21
5 -28 12 -28 30 0 45 25 48 64 7z m124 -123 c-3 -7 -21 -14 -41 -16 -30 -3
-36 0 -31 12 8 20 78 23 72 4z m-78 -97 c0 -5 -16 -12 -35 -15 -19 -4 -35 -11
-35 -16 0 -4 -13 -3 -30 3 -22 8 -27 14 -18 24 12 15 118 18 118 4z"/>
<path d="M17230 3304 c-14 -2 -62 -9 -108 -15 -81 -11 -108 -23 -78 -35 28
-11 17 -24 -19 -24 -26 0 -39 6 -51 25 -15 23 -18 24 -29 9 -9 -13 -20 -15
-46 -10 -95 19 -156 18 -202 -2 -38 -17 -53 -19 -89 -10 -59 13 -296 12 -349
-2 -24 -7 -59 -21 -77 -32 -35 -22 -87 -101 -77 -118 3 -5 28 -10 54 -10 54 0
88 -23 60 -41 -8 -5 -21 -6 -29 -3 -30 12 -90 16 -90 7 0 -5 14 -20 32 -33
l32 -23 -38 -32 -37 -31 16 -212 c9 -116 17 -261 18 -322 2 -109 2 -110 29
-119 24 -9 30 -5 62 36 42 55 50 34 14 -37 -21 -40 -27 -45 -58 -46 -40 0 -39
3 -24 -156 l7 -78 33 -6 c42 -8 107 2 177 25 43 15 51 22 49 39 -4 29 15 62
36 62 10 0 28 -7 41 -17 22 -15 25 -15 37 2 8 10 11 30 7 46 -4 19 -1 30 8 33
26 9 515 46 598 46 l83 0 -6 25 c-9 35 9 64 49 81 47 19 48 19 20 -22 -14 -20
-25 -47 -25 -60 0 -23 4 -24 58 -24 73 1 150 28 174 61 22 29 26 95 9 138 -37
89 -213 131 -406 98 -166 -29 -285 -77 -191 -77 61 0 67 -7 44 -46 -22 -38
-38 -44 -38 -15 0 10 -17 30 -40 45 -23 15 -38 32 -34 37 4 8 -6 9 -32 5 -22
-4 -55 -2 -74 4 -19 5 -69 13 -111 16 l-76 7 -29 -59 c-16 -32 -37 -60 -46
-62 -14 -3 -12 7 9 65 30 82 31 146 5 206 -20 45 -20 46 -2 52 28 9 32 36 21
120 -17 119 -16 124 24 141 26 11 84 14 247 14 191 0 218 2 257 20 42 19 72
19 41 0 -8 -5 -12 -11 -10 -13 3 -3 82 -1 175 3 188 8 237 21 280 72 30 36 32
64 4 73 -25 8 -59 61 -59 93 0 25 3 26 31 11 18 -9 20 -8 17 13 -2 18 -14 27
-53 39 -50 16 -177 29 -225 23z m-242 -109 c-3 -11 -69 -7 -82 5 -4 5 -5 13
-2 18 8 14 89 -9 84 -23z m-615 -4 c4 -4 -36 -11 -90 -14 -54 -3 -100 -4 -102
-1 -3 2 4 11 15 20 15 12 35 14 94 9 41 -3 78 -9 83 -14z m427 -91 c9 -16 6
-22 -21 -35 -17 -9 -32 -15 -33 -13 -21 32 -36 58 -36 63 0 3 18 5 40 5 29 0
42 -5 50 -20z m-515 -169 c8 -31 0 -37 -30 -23 -34 16 -34 50 0 48 16 -1 26
-8 30 -25z m87 -449 c24 -21 33 -76 18 -112 -10 -25 -17 -29 -34 -23 -11 3
-39 9 -60 12 l-40 6 32 27 c17 14 37 29 44 31 10 4 8 9 -4 17 -22 13 -23 30
-3 30 20 0 19 20 -2 37 -16 13 -15 13 7 2 14 -6 33 -18 42 -27z m155 -136 c-2
-6 -13 -12 -25 -14 -15 -2 -19 -8 -15 -20 9 -23 23 -32 56 -32 15 0 27 -4 27
-10 0 -16 -37 -30 -80 -30 -37 0 -41 -2 -35 -20 6 -17 2 -20 -29 -20 -29 0
-36 -4 -36 -20 0 -23 -9 -25 -34 -7 -13 10 -17 24 -14 62 3 44 6 49 33 58 17
6 52 25 79 43 45 30 81 36 73 10z m486 -17 c52 -27 49 -23 41 -43 -4 -9 -20
-24 -37 -32 l-30 -16 6 42 c5 39 4 42 -26 55 -20 9 -25 14 -14 15 10 0 37 -10
60 -21z"/>
<path d="M16403 2284 c-44 -22 -43 -44 1 -44 37 0 62 21 52 45 -7 19 -13 19
-53 -1z"/>
<path d="M14825 3214 c-111 -7 -310 -36 -345 -51 -52 -21 -88 -60 -111 -122
-25 -68 -27 -166 -4 -215 13 -26 14 -39 6 -55 -14 -25 -14 -85 0 -133 11 -41
15 -44 42 -24 24 19 21 43 -10 72 -29 27 -27 33 22 50 32 11 35 10 35 -7 0
-10 12 -26 26 -36 l26 -17 -33 -27 c-33 -27 -34 -44 -2 -44 9 0 19 -10 24 -23
8 -22 8 -23 -44 -16 -81 11 -82 11 -86 -16 -2 -14 5 -127 15 -253 l18 -227 30
-9 31 -9 -34 -12 -33 -13 7 -117 c3 -65 10 -135 15 -155 5 -22 5 -48 -1 -63
-5 -14 -7 -38 -4 -54 6 -24 12 -28 39 -28 41 0 71 -21 63 -44 -5 -12 -14 -15
-27 -12 -11 3 -29 9 -40 12 -15 4 -21 -1 -26 -21 -7 -28 -1 -122 9 -132 4 -3
22 8 42 26 20 17 45 31 56 31 29 0 16 -14 -46 -49 -30 -17 -55 -35 -55 -39 0
-28 32 -108 51 -128 28 -29 39 -30 73 -3 14 11 26 16 26 11 0 -5 -10 -16 -22
-24 -12 -8 -18 -19 -14 -26 13 -22 68 -13 118 19 27 18 65 37 86 44 26 9 39
21 45 41 5 16 16 36 23 45 20 22 18 26 -18 33 -18 3 -47 21 -65 38 -27 26 -35
29 -47 19 -9 -7 -21 -11 -28 -9 -7 3 11 17 40 32 39 20 52 32 52 49 0 34 29
70 51 64 24 -6 25 22 4 224 -15 152 -10 244 16 259 26 17 107 21 168 10 76
-14 90 -19 217 -92 56 -32 113 -62 128 -68 34 -12 34 -34 1 -28 -14 3 -28 2
-31 -3 -3 -5 32 -55 78 -112 46 -57 90 -114 99 -127 16 -25 14 -25 94 6 16 6
15 2 -7 -23 -50 -53 -30 -151 38 -179 25 -10 34 -21 34 -37 0 -24 28 -56 67
-76 13 -7 20 -17 17 -26 -4 -9 3 -19 20 -26 22 -11 28 -9 45 12 11 13 20 27
21 32 0 17 42 6 47 -13 6 -23 21 -25 47 -5 11 8 43 21 71 30 29 8 58 22 65 30
19 23 5 83 -31 134 -19 27 -27 47 -20 49 19 6 -8 42 -32 42 -61 1 -84 23 -51
51 51 42 -93 242 -301 419 -63 54 -85 78 -85 96 0 29 24 41 45 24 26 -22 59 3
91 66 16 33 31 61 32 64 2 3 14 -7 27 -22 26 -30 45 -36 45 -15 0 7 16 29 36
48 106 100 148 216 142 390 -3 103 -6 121 -35 180 -35 76 -83 132 -165 196
-128 98 -203 114 -573 117 -154 2 -307 2 -340 0z m663 -175 c12 -5 22 -13 22
-18 0 -19 -18 -21 -46 -6 -16 8 -34 15 -41 15 -7 0 -10 7 -7 15 6 16 16 15 72
-6z m192 -79 c27 -54 26 -63 -18 -81 -37 -15 -38 -15 -55 7 -10 13 -39 30 -64
37 l-47 14 69 23 c39 12 74 26 80 31 13 13 13 13 35 -31z m-690 -29 c0 -5 39
-12 88 -16 138 -10 251 -25 325 -41 61 -14 69 -19 81 -49 8 -18 27 -41 43 -51
15 -10 30 -19 32 -20 1 -2 -4 -31 -13 -66 -8 -35 -18 -100 -22 -146 -6 -69
-10 -82 -23 -79 -19 4 -111 -39 -111 -53 0 -6 12 -10 26 -10 21 0 24 -3 15
-13 -8 -11 -24 -12 -71 -4 -68 11 -81 6 -57 -21 10 -10 14 -22 10 -25 -3 -4
14 -7 40 -7 25 0 49 -5 52 -10 4 -7 -7 -10 -32 -9 -45 3 -64 -6 -57 -26 9 -22
34 -26 67 -10 37 19 34 20 41 -10 4 -16 13 -25 26 -25 24 0 37 -20 19 -31 -8
-5 -42 -9 -76 -9 -60 0 -62 1 -68 30 -7 31 -38 56 -56 44 -6 -3 -9 -22 -7 -41
1 -21 -3 -37 -11 -42 -7 -5 -10 -14 -6 -21 5 -8 12 -7 26 6 22 20 38 12 19
-11 -7 -8 -27 -15 -45 -15 -28 0 -35 5 -44 31 -6 18 -11 46 -11 63 0 26 4 31
25 32 29 2 75 29 75 44 0 6 -15 20 -32 31 -31 19 -43 20 -173 15 -77 -3 -177
-9 -222 -12 -73 -6 -83 -5 -83 9 0 10 -10 45 -21 78 -20 57 -20 63 -5 71 10 5
13 14 9 21 -7 11 -12 62 -13 142 -1 17 1 68 4 114 l4 85 58 12 c92 19 143 34
149 44 8 13 25 13 25 1z m470 -1 c0 -5 -21 -10 -46 -10 -27 0 -43 4 -39 10 3
6 24 10 46 10 21 0 39 -4 39 -10z m-840 -93 c0 -1 -9 -20 -20 -42 -11 -22 -20
-50 -20 -62 0 -28 -11 -29 -34 -4 -20 22 -10 57 25 90 19 18 49 29 49 18z m8
-292 c11 -24 10 -25 -21 -25 -17 0 -49 -3 -69 -6 -51 -9 -49 9 5 34 56 28 72
27 85 -3z m1262 -14 c0 -5 -16 -15 -35 -21 -19 -6 -43 -23 -54 -36 -14 -17
-22 -21 -27 -13 -9 15 39 56 81 68 17 5 31 10 33 10 1 1 2 -3 2 -8z m-1340
-109 c0 -14 -56 -63 -63 -55 -9 8 -9 48 0 56 9 10 63 9 63 -1z m117 -497 c14
-44 -5 -48 -36 -9 -27 34 -26 44 2 44 18 0 26 -8 34 -35z m-187 -221 c0 -18
-14 -18 -30 1 -16 19 -3 40 16 24 8 -6 14 -18 14 -25z m148 -296 c14 -14 16
-68 3 -68 -5 0 -11 5 -13 12 -4 10 -13 10 -41 1 -30 -9 -37 -8 -37 2 0 7 14
18 30 24 17 5 30 17 30 25 0 19 12 20 28 4z m130 -67 c3 -21 1 -22 -30 -16
-44 10 -47 14 -23 31 27 20 49 14 53 -15z"/>
<path d="M11060 3179 l-25 -11 35 -18 c39 -20 50 -18 50 10 0 14 -22 34 -33
29 -1 0 -13 -5 -27 -10z"/>
<path d="M13329 3120 c-159 -14 -307 -74 -400 -161 -24 -22 -62 -49 -84 -59
-56 -24 -134 -113 -177 -201 -64 -131 -138 -467 -138 -626 0 -67 3 -86 19
-100 13 -13 20 -39 24 -94 21 -257 224 -581 397 -633 30 -9 44 -18 42 -29 -3
-18 45 -38 155 -66 112 -27 163 -33 297 -32 106 0 125 3 170 25 36 17 67 25
106 24 81 -1 181 49 211 104 10 19 9 20 -10 15 -11 -3 -21 -1 -21 3 0 8 30 16
89 23 8 1 16 8 19 16 4 11 -4 13 -40 8 -41 -6 -46 -4 -56 18 -10 23 -9 25 11
25 28 1 143 62 140 75 0 6 -18 14 -40 19 -45 10 -47 12 -39 25 5 7 19 5 41 -6
38 -18 63 -8 52 20 -8 21 -45 25 -115 13 -67 -11 -112 1 -112 29 0 12 12 15
55 15 42 0 55 3 55 15 0 21 27 19 59 -4 14 -11 48 -31 75 -45 48 -26 48 -26
22 -36 -34 -13 -33 -26 3 -38 35 -12 44 -2 85 96 56 132 69 248 37 317 -22 47
-44 69 -93 89 l-36 15 -22 -50 c-12 -28 -27 -73 -33 -99 -10 -43 -15 -49 -48
-59 -20 -6 -42 -18 -49 -26 -7 -8 -23 -15 -35 -15 -17 0 -36 -18 -69 -62 -25
-34 -46 -70 -46 -80 0 -10 -4 -18 -10 -18 -5 0 -10 -15 -10 -32 l0 -32 -16 23
c-9 13 -19 19 -23 14 -3 -5 -23 -19 -43 -32 -21 -12 -38 -26 -38 -31 0 -4 24
-11 53 -15 86 -10 148 -27 144 -38 -5 -15 -153 -68 -171 -61 -21 8 -1 48 33
64 l26 13 -25 8 c-73 21 -240 3 -304 -35 -13 -8 -37 -10 -66 -5 -38 5 -41 7
-22 14 12 4 22 12 22 17 0 10 -45 6 -87 -7 -15 -5 -23 -2 -27 12 -3 10 -25 29
-47 42 -23 13 -61 41 -84 62 -34 32 -50 39 -82 39 -50 0 -75 23 -44 40 29 15
26 41 -9 103 -16 30 -30 66 -30 80 0 33 -4 33 -57 5 -44 -24 -58 -22 -47 6 3
9 22 19 43 22 36 6 37 7 36 47 -1 30 -6 42 -20 47 -17 6 -17 7 4 13 21 5 23
10 17 44 -14 75 -28 102 -58 108 -40 9 -42 20 -4 35 33 13 33 14 39 89 4 54
17 107 45 182 22 59 48 138 57 177 15 63 20 70 45 75 15 4 49 24 74 47 26 22
54 40 61 40 28 0 48 47 42 95 -4 25 -2 47 3 50 6 3 10 -2 10 -12 0 -30 38 -83
60 -83 23 0 24 5 9 50 -9 26 -9 34 2 41 20 12 39 -9 39 -42 0 -33 22 -38 54
-14 26 20 33 19 39 -5 4 -16 14 -20 44 -20 51 0 137 -26 154 -46 21 -25 86
-54 122 -54 32 0 34 -1 35 -40 2 -53 23 -92 67 -126 28 -21 35 -33 35 -59 0
-25 7 -39 28 -55 23 -19 36 -21 92 -18 76 6 162 40 190 76 22 28 26 82 8 115
-6 12 -24 37 -39 56 -22 27 -26 40 -22 67 5 31 3 35 -26 45 -33 12 -37 19 -20
36 18 18 -20 73 -76 111 l-50 32 -11 -32 c-6 -18 -18 -34 -26 -36 -13 -3 -14
3 -5 42 5 24 7 51 4 59 -9 23 -159 93 -252 117 -94 24 -249 32 -386 20z m-9
-175 c0 -11 -20 -25 -36 -25 -2 0 -4 11 -4 24 0 19 4 23 20 19 11 -3 20 -11
20 -18z m755 -215 c3 -11 17 -28 30 -38 31 -24 17 -39 -31 -34 -26 3 -38 11
-45 29 -17 44 -11 54 33 62 4 0 9 -8 13 -19z m-1240 -64 c11 -7 29 -15 40 -18
17 -3 15 -6 -13 -21 -28 -15 -36 -16 -60 -5 -36 17 -43 58 -10 58 13 0 32 -6
43 -14z m1089 8 c25 -10 18 -38 -14 -56 -29 -16 -30 -16 -30 1 0 10 -7 24 -15
31 -8 7 -12 16 -9 21 6 10 45 12 68 3z m264 -76 c-3 -20 -10 -23 -56 -26 -51
-3 -82 8 -82 30 0 5 15 6 33 3 17 -4 43 -2 57 4 40 16 52 13 48 -11z m-1488
-112 c0 -23 89 -96 118 -96 26 0 26 0 -11 -31 -20 -17 -37 -39 -37 -49 0 -15
-11 -18 -62 -22 -35 -3 -64 -4 -66 -3 -2 2 3 16 11 32 10 19 12 34 6 45 -7 12
-2 18 21 28 28 12 38 29 24 43 -4 3 -20 -1 -36 -9 -16 -8 -33 -12 -38 -9 -18
11 -10 54 12 69 28 20 58 21 58 2z m158 -173 c-24 -51 -33 -63 -45 -63 -18 0
-16 30 4 52 15 17 49 26 41 11z m-101 -114 c7 -6 13 -16 13 -22 0 -5 -9 -2
-19 7 -11 10 -29 16 -42 14 -12 -2 -24 3 -27 11 -4 11 3 13 28 7 18 -3 39 -11
47 -17z m33 -91 c0 -22 -15 -37 -35 -36 -11 0 -53 -3 -92 -7 -54 -6 -73 -5
-73 4 0 8 8 10 20 6 12 -4 28 -1 36 6 13 11 100 36 132 38 6 1 12 -5 12 -11z
m-83 -104 c-12 -13 -81 -31 -99 -26 -26 7 -17 12 44 26 52 12 67 12 55 0z m70
-185 c42 -20 103 -91 84 -97 -5 -2 -23 4 -40 12 -29 15 -32 15 -67 -9 -42 -29
-66 -31 -85 -9 -11 13 -9 14 14 9 35 -9 36 13 2 45 -24 23 -32 50 -18 63 13
14 68 7 110 -14z m-112 -129 c-3 -5 -13 -10 -21 -10 -8 0 -12 5 -9 10 3 6 13
10 21 10 8 0 12 -4 9 -10z m109 -26 c9 -3 16 -17 16 -29 0 -19 7 -24 40 -30
21 -4 45 -3 51 1 8 4 9 3 5 -4 -4 -7 -14 -12 -21 -12 -8 0 -39 -11 -70 -24
-40 -18 -55 -21 -55 -12 0 8 -7 16 -15 20 -21 8 -19 24 6 31 16 6 19 12 14 36
-7 29 0 34 29 23z m338 -219 l22 -45 70 6 c60 6 69 4 58 -7 -9 -10 -36 -13
-100 -11 -48 2 -90 6 -94 10 -9 10 3 92 13 92 5 0 19 -20 31 -45z m358 -110
c9 -8 33 -21 53 -28 l37 -12 -26 -38 c-14 -21 -30 -37 -36 -35 -6 2 -17 22
-25 43 -7 21 -20 46 -28 55 -24 27 -3 40 25 15z m261 -27 c-9 -26 -56 -56 -68
-45 -10 11 9 40 38 54 34 18 39 16 30 -9z m-56 -87 c-8 -14 -95 -15 -95 -2 0
6 21 11 48 13 54 3 56 3 47 -11z m-618 3 c-3 -3 -12 -4 -19 -1 -8 3 -5 6 6 6
11 1 17 -2 13 -5z"/>
<path d="M11925 3023 c-68 -9 -135 -25 -135 -33 0 -4 7 -11 16 -14 8 -3 12
-10 9 -16 -11 -18 -52 -10 -76 14 -21 22 -26 23 -40 10 -14 -13 -23 -13 -75 1
-76 20 -93 19 -161 -5 -50 -17 -64 -18 -127 -9 -81 13 -282 6 -339 -11 -67
-20 -147 -109 -133 -147 5 -12 17 -14 51 -11 51 6 89 -12 68 -33 -9 -9 -23 -9
-63 1 -65 16 -87 1 -41 -26 39 -23 39 -45 1 -67 -36 -21 -35 -11 -15 -267 8
-102 15 -233 15 -293 0 -107 0 -108 27 -118 24 -9 30 -6 64 33 43 49 49 39 18
-33 -21 -47 -23 -49 -62 -49 l-40 0 8 -57 c5 -32 9 -85 10 -118 l3 -60 62 -3
c42 -2 86 4 136 19 65 19 74 24 68 42 -7 22 14 67 31 67 7 0 24 -9 38 -20 31
-24 44 -12 49 45 l3 40 55 3 c30 1 156 11 280 22 125 10 253 16 289 13 l64 -6
-7 27 c-10 39 1 64 34 81 47 24 52 18 24 -30 -35 -60 -23 -76 49 -69 83 8 134
24 159 51 19 20 23 35 23 88 0 76 -18 101 -98 136 -62 27 -227 38 -321 20 -90
-17 -216 -52 -216 -61 0 -4 20 -11 45 -14 25 -4 45 -9 45 -12 0 -3 -7 -18 -15
-34 -17 -33 -46 -42 -38 -12 3 13 -7 24 -37 41 -27 15 -39 28 -36 37 4 11 -1
13 -22 8 -15 -4 -28 -8 -30 -9 -1 -1 -28 4 -60 11 -31 8 -87 14 -123 14 l-66
0 -17 -44 c-16 -40 -51 -85 -60 -75 -2 2 6 36 20 74 29 85 30 146 4 204 -24
52 -24 51 -5 51 27 0 36 35 25 107 -17 116 -14 139 18 152 16 7 112 12 247 14
202 2 224 4 268 24 46 22 59 19 35 -6 -11 -11 15 -13 152 -7 91 3 183 11 205
17 22 6 57 28 77 49 38 38 50 80 23 80 -20 0 -54 39 -64 75 -10 39 -5 48 21
34 29 -16 43 3 19 25 -40 36 -207 56 -336 39z m-201 -84 c26 -7 35 -14 28 -21
-15 -15 -92 0 -92 18 0 17 12 17 64 3z m-646 -10 c86 -15 62 -29 -51 -29 -88
0 -104 9 -53 30 28 12 30 12 104 -1z m476 -95 c3 -8 12 -12 18 -9 7 4 0 -5
-15 -19 -35 -33 -55 -33 -67 -1 -5 14 -15 25 -22 26 -22 1 26 18 53 18 16 1
29 -6 33 -15z m-512 -179 c6 -27 -9 -33 -43 -15 -29 16 -24 40 10 40 23 0 30
-5 33 -25z m76 -440 c35 -29 46 -71 30 -115 -10 -29 -13 -31 -42 -24 -17 4
-43 8 -58 8 -38 1 -35 11 12 42 37 25 39 28 25 44 -19 21 -19 30 0 30 23 0 18
19 -7 30 -17 6 -18 9 -6 9 9 1 30 -10 46 -24z m169 -141 c2 -7 -8 -15 -22 -18
-22 -6 -24 -9 -15 -26 8 -14 21 -20 45 -20 19 0 35 -4 35 -8 0 -20 -28 -32
-73 -32 -47 0 -49 -1 -43 -24 6 -23 4 -24 -29 -19 -31 5 -35 3 -35 -16 0 -22
-7 -25 -34 -15 -21 8 -23 114 -3 114 7 0 42 18 78 40 64 39 89 45 96 24z m483
-19 c28 -14 50 -29 50 -34 0 -11 -48 -51 -61 -51 -4 0 -9 19 -11 43 -2 35 -7
43 -26 45 -12 2 -20 8 -17 13 8 12 9 12 65 -16z"/>
<path d="M11143 1995 l-28 -25 50 2 c43 3 50 6 53 26 5 31 -38 30 -75 -3z"/>
<path d="M9759 2925 c-262 -49 -483 -228 -528 -426 -23 -100 -5 -263 39 -350
28 -55 25 -53 50 -39 20 11 21 10 15 -9 -5 -16 6 -33 46 -76 81 -86 187 -130
371 -155 45 -6 129 -29 187 -49 58 -21 135 -44 171 -50 69 -13 151 -46 200
-81 85 -60 109 -199 53 -302 -58 -109 -179 -162 -368 -163 -98 0 -116 3 -165
26 -81 38 -113 70 -165 162 -56 100 -120 187 -160 219 -24 19 -41 23 -86 21
-93 -2 -141 -39 -175 -135 -16 -46 -12 -92 10 -117 7 -9 21 -43 31 -76 25 -88
48 -126 115 -193 78 -78 153 -123 271 -163 84 -29 110 -33 235 -37 155 -5 230
4 356 44 l81 26 -6 59 c-6 66 -19 89 -51 90 -20 0 -20 1 2 10 32 12 183 23
216 15 27 -7 36 -26 12 -26 -28 0 -66 -41 -66 -71 0 -32 15 -37 46 -14 16 12
17 16 5 24 -11 7 -4 12 28 21 58 15 162 118 197 194 30 65 40 152 26 212 -8
36 -7 43 10 53 18 11 18 14 4 36 -10 15 -15 45 -15 84 1 44 -6 74 -25 118 -54
117 -103 163 -174 163 -25 0 -29 3 -25 23 4 22 -4 27 -89 59 -136 52 -244 85
-357 108 -100 20 -201 26 -201 13 0 -5 23 -29 52 -55 l53 -47 -65 -1 c-77 0
-97 9 -81 36 9 14 9 30 -1 64 -12 40 -18 46 -58 58 -31 9 -76 12 -142 9 l-96
-5 -4 29 c-4 23 0 30 24 40 40 16 56 48 33 65 -10 7 -23 15 -28 17 -16 5 9 60
59 133 30 44 40 68 37 86 -3 17 4 34 22 56 19 23 24 37 19 56 -3 14 -3 33 0
42 6 15 8 15 31 0 30 -19 35 -20 35 -3 0 21 44 57 68 57 32 0 27 -11 -23 -48
-55 -40 -73 -69 -49 -79 10 -3 31 1 47 11 16 9 32 14 36 11 3 -4 -2 -11 -12
-16 -28 -16 -9 -29 42 -29 31 0 53 5 61 15 11 14 15 14 29 1 9 -8 53 -26 97
-40 86 -28 158 -72 169 -105 5 -17 10 -18 38 -10 46 13 84 11 117 -6 29 -15
30 -15 30 10 0 25 10 32 24 18 4 -5 29 -8 54 -8 26 0 49 -4 51 -10 1 -6 -10
-9 -26 -7 -28 3 -28 2 -25 -42 5 -60 -20 -74 -54 -31 -13 16 -25 27 -27 25
-10 -11 -57 -110 -57 -120 0 -7 13 -9 36 -4 33 6 35 5 32 -17 -3 -23 0 -24 42
-21 86 7 141 57 159 144 9 43 8 63 -5 108 -32 109 -71 160 -121 160 -13 0 -23
-6 -23 -13 0 -7 -17 -30 -38 -50 -33 -32 -42 -36 -63 -29 -23 9 -118 0 -139
-13 -5 -3 -10 -2 -10 3 0 6 -11 13 -25 16 -13 3 -35 20 -47 36 -17 24 -29 30
-59 30 -21 0 -40 4 -43 8 -7 12 215 32 347 32 59 0 107 4 107 8 0 40 -208 160
-293 169 -44 5 -46 4 -40 -17 5 -20 3 -22 -13 -16 -109 45 -288 63 -405 41z
m258 -36 c35 -13 16 -26 -32 -21 -21 3 -35 10 -35 18 0 17 28 18 67 3z m138
-55 c26 -11 5 -24 -38 -24 -53 0 -71 -11 -63 -38 5 -16 1 -20 -24 -24 -16 -3
-30 -3 -30 -2 0 2 9 18 20 36 11 18 20 41 20 52 0 17 5 18 50 12 28 -4 57 -9
65 -12z m-211 -43 c18 -7 18 -8 -5 -24 -13 -9 -33 -17 -44 -17 -15 0 -17 2 -6
9 10 6 10 10 1 16 -9 6 -9 10 1 16 16 10 27 10 53 0z m-359 -25 c18 -13 16
-15 -24 -35 -24 -13 -46 -20 -49 -17 -3 3 0 6 6 6 20 0 13 27 -10 43 -23 16
-22 16 18 16 22 1 49 -5 59 -13z m136 -597 c27 -12 48 -27 46 -33 -2 -6 -27
-23 -56 -38 -62 -33 -129 -37 -191 -12 -67 27 -45 39 62 36 101 -4 125 5 95
36 -14 13 -22 14 -54 4 -38 -12 -61 -3 -49 17 12 18 94 12 147 -10z m429 -77
c0 -18 -26 -32 -57 -32 -21 0 -36 -6 -39 -15 -9 -23 -26 -18 -22 7 2 12 14 28
28 35 28 14 90 17 90 5z m220 -70 c0 -4 10 -12 22 -17 13 -6 24 -18 26 -27 3
-16 -5 -18 -62 -18 -59 0 -66 2 -66 20 0 13 9 22 25 26 14 3 22 10 19 15 -3 5
4 9 15 9 12 0 21 -3 21 -8z m-351 -8 c40 -8 39 -19 -1 -33 -25 -9 -36 -8 -55
4 -42 28 -13 43 56 29z m-89 -80 c65 -26 52 -44 -30 -44 -38 0 -70 2 -70 5 0
15 34 55 46 55 7 0 32 -7 54 -16z m579 -41 c-15 -17 -49 -17 -49 1 0 8 -3 22
-6 31 -6 14 -3 14 30 -1 28 -14 33 -20 25 -31z m-253 -20 c-3 -3 -18 -2 -33 2
l-28 7 30 26 30 26 3 -28 c2 -15 1 -30 -2 -33z m144 39 c0 -16 -32 -52 -45
-52 -14 0 -35 29 -35 49 0 6 18 11 40 11 22 0 40 -3 40 -8z"/>
<path d="M8079 2841 c-82 -17 -202 -121 -240 -207 -11 -24 -21 -70 -22 -102
-2 -54 -1 -57 23 -60 14 -1 36 -5 49 -8 35 -8 8 -24 -40 -24 -20 0 -41 -6 -46
-12 -29 -37 -133 -331 -233 -653 -32 -105 -85 -258 -118 -341 -84 -211 -133
-360 -139 -424 -4 -48 -1 -60 25 -101 17 -26 47 -59 68 -75 34 -26 45 -29 115
-29 73 0 80 2 109 30 41 39 65 86 80 160 17 85 58 212 86 267 29 57 12 54 409
68 160 6 313 12 341 15 l51 5 22 -68 c56 -170 165 -343 241 -382 45 -23 76
-25 132 -8 47 14 128 82 128 108 0 10 -16 30 -35 44 -19 15 -35 32 -35 38 0 6
11 1 25 -12 55 -52 53 30 -5 160 -16 36 -31 78 -35 94 -6 27 -8 28 -47 22
l-40 -7 25 31 26 30 -76 158 c-105 219 -308 677 -382 863 -72 182 -117 263
-183 331 -75 77 -179 110 -279 89z m71 -456 c0 -7 11 -22 25 -33 19 -15 25
-29 25 -57 0 -30 7 -44 34 -70 28 -26 35 -43 46 -103 8 -50 37 -127 96 -259
46 -103 84 -193 84 -200 0 -7 -15 -14 -32 -17 -57 -9 -519 -29 -525 -23 -3 4
17 75 45 159 68 205 74 231 73 309 0 60 2 69 20 74 21 7 47 51 36 61 -4 4 -13
1 -22 -6 -12 -10 -15 -10 -15 0 0 7 11 21 25 32 16 12 32 44 46 89 11 38 25
66 30 63 5 -3 9 -11 9 -19z m-125 -837 c-15 -37 -42 -48 -52 -22 -7 18 28 54
53 54 11 0 11 -5 -1 -32z"/>
<path d="M5990 2750 c-299 -18 -413 -48 -458 -122 -47 -78 -61 -204 -29 -264
14 -27 14 -36 2 -70 -10 -30 -11 -52 -3 -89 12 -61 20 -70 47 -56 28 15 27 42
-4 71 -31 29 -31 36 -1 44 13 3 31 9 39 12 11 4 16 -2 19 -17 2 -13 13 -29 26
-35 l23 -11 -30 -26 c-36 -30 -40 -50 -10 -45 15 2 24 -4 30 -21 l9 -23 -69 7
c-61 6 -69 5 -73 -12 -2 -10 5 -125 16 -255 20 -236 20 -238 43 -238 31 0 29
-14 -3 -29 l-27 -12 7 -117 c4 -64 11 -133 15 -152 4 -20 4 -47 -1 -60 -5 -14
-7 -40 -3 -58 5 -27 9 -31 28 -27 27 6 72 -15 72 -35 0 -11 -12 -15 -45 -15
l-45 0 1 -65 c3 -153 16 -201 68 -249 l26 -25 30 29 c22 21 30 24 30 13 0 -9
-9 -18 -20 -21 -28 -7 -25 -34 4 -41 31 -8 63 5 117 43 23 17 56 33 74 37 28
5 34 11 39 39 4 18 13 38 21 45 20 17 10 30 -23 30 -17 0 -39 13 -62 35 -32
32 -38 34 -50 20 -13 -16 -30 -20 -30 -7 0 5 22 20 50 33 38 18 49 29 50 47 0
37 19 62 45 62 31 0 31 6 10 222 -25 250 -14 278 116 278 91 0 156 -22 284
-95 61 -34 120 -66 133 -69 32 -10 27 -26 -8 -26 -16 0 -30 -3 -30 -7 0 -5 43
-62 95 -128 52 -66 95 -123 95 -127 0 -4 19 -1 41 7 57 20 62 19 34 -10 -19
-19 -25 -35 -25 -71 0 -39 5 -51 34 -80 19 -19 41 -34 49 -34 10 0 17 -11 19
-32 2 -25 12 -39 41 -57 20 -13 37 -32 37 -42 0 -12 10 -21 26 -25 22 -6 31
-1 51 25 28 36 52 40 60 10 6 -23 5 -23 101 13 34 13 70 31 78 40 22 22 12 73
-26 129 -16 25 -25 46 -19 50 22 13 -4 38 -47 45 -54 8 -61 17 -39 50 9 15 14
35 11 48 -18 72 -196 279 -343 398 -58 48 -61 51 -51 79 11 33 15 35 37 14 14
-11 21 -12 41 -2 20 10 65 76 83 122 3 6 18 -3 35 -19 29 -27 32 -28 38 -10 4
10 25 36 46 57 95 93 138 204 138 357 0 170 -49 276 -178 383 -82 69 -161 104
-272 122 -116 19 -443 27 -640 15z m629 -171 c17 -6 31 -15 31 -19 0 -16 -18
-20 -42 -11 -13 5 -31 12 -41 15 -20 6 -14 26 7 26 7 0 27 -5 45 -11z m205
-92 c9 -23 16 -46 16 -50 0 -4 -17 -14 -37 -22 -35 -15 -38 -15 -53 4 -8 12
-37 28 -65 38 l-50 17 55 16 c31 9 65 22 75 28 33 19 42 14 59 -31z m-626 -37
c73 0 292 -26 357 -42 43 -11 52 -18 67 -50 10 -21 32 -45 49 -53 25 -13 30
-21 24 -38 -14 -49 -34 -175 -35 -219 0 -45 -2 -48 -26 -48 -26 0 -104 -39
-104 -52 0 -5 11 -8 25 -8 14 0 25 -4 25 -9 0 -17 -37 -22 -85 -11 -35 8 -51
8 -59 0 -8 -8 -6 -14 6 -21 10 -5 15 -16 11 -25 -4 -12 1 -14 34 -8 28 4 42 2
52 -9 10 -13 6 -15 -36 -14 -35 2 -48 -2 -48 -12 0 -28 32 -36 69 -18 35 16
36 16 36 -4 0 -14 10 -25 30 -32 17 -6 30 -15 30 -19 0 -16 -41 -28 -93 -28
-51 0 -55 2 -62 27 -9 37 -23 53 -46 53 -15 0 -19 -8 -19 -40 0 -22 -4 -40
-10 -40 -5 0 -10 -7 -10 -15 0 -19 5 -19 35 1 28 18 34 4 9 -20 -20 -20 -58
-21 -74 -1 -7 9 -15 38 -18 65 -4 48 -3 50 20 50 26 0 78 34 78 51 0 6 -21 19
-47 31 -47 21 -92 20 -432 -5 -21 -2 -26 6 -48 73 -20 63 -22 76 -10 85 10 7
12 17 5 34 -9 25 -11 72 -7 156 1 28 3 78 3 112 1 61 2 63 31 68 87 17 166 38
182 50 15 11 19 11 26 -1 5 -9 26 -14 65 -14z m397 15 c0 -5 -19 -11 -42 -13
-40 -3 -53 5 -36 22 11 10 78 3 78 -9z m-845 -110 c-6 -8 -18 -33 -24 -57 -15
-48 -30 -58 -46 -29 -17 33 25 101 63 101 16 0 17 -3 7 -15z m13 -269 c16 -23
15 -24 -21 -30 -103 -17 -126 0 -48 34 53 24 51 24 69 -4z m1267 -21 c0 -2
-21 -13 -46 -24 -27 -12 -48 -29 -51 -41 -6 -21 -23 -18 -23 5 0 16 77 65 103
65 9 0 17 -2 17 -5z m-1365 -135 c-33 -34 -40 -36 -49 -15 -11 28 5 45 42 45
l36 0 -29 -30z m142 -470 c15 -40 -1 -48 -32 -14 -31 33 -32 44 -2 44 16 0 26
-9 34 -30z m-197 -205 c7 -9 10 -18 7 -22 -8 -7 -37 15 -37 28 0 14 16 11 30
-6z m74 -253 c2 -4 -18 -21 -46 -36 -57 -32 -63 -15 -8 22 35 24 46 27 54 14z
m92 -78 c3 -13 3 -31 0 -41 -6 -15 -8 -15 -19 1 -10 14 -17 15 -41 6 -20 -7
-33 -7 -39 -1 -10 10 -5 13 41 27 8 2 16 13 19 23 7 26 31 16 39 -15z m124
-44 c0 -22 -33 -27 -60 -10 -13 9 -13 11 0 20 27 17 60 12 60 -10z"/>
<path d="M4875 2663 c-27 -2 -126 -10 -219 -17 -93 -8 -174 -12 -180 -10 -6 2
-17 -9 -23 -26 -14 -37 -52 -55 -69 -32 -10 13 -20 10 -78 -22 -59 -33 -66
-35 -66 -18 0 11 -12 27 -26 37 -14 9 -24 22 -21 28 3 9 -36 11 -162 6 -228
-8 -299 -27 -323 -87 -16 -42 -12 -137 8 -167 36 -55 57 -59 336 -65 152 -3
261 -9 266 -15 5 -5 15 -147 21 -315 13 -345 25 -481 49 -596 15 -65 16 -86 6
-119 -25 -83 -12 -180 29 -214 22 -18 21 -31 -2 -31 -34 0 -44 -25 -37 -93 10
-83 35 -137 84 -177 83 -70 177 -79 249 -24 64 49 32 70 -51 34 -45 -19 -58
-16 -34 8 9 9 7 13 -8 19 -12 5 16 10 76 13 l95 5 -2 70 c-1 39 -2 99 -2 134
l0 64 -39 -7 c-40 -6 -72 0 -72 13 0 4 20 12 45 19 25 7 48 19 52 28 6 15 -40
979 -54 1135 l-5 66 82 14 c92 14 125 34 135 79 4 17 7 30 8 30 1 -1 37 -11
80 -24 73 -21 76 -23 52 -34 -28 -13 -33 -30 -9 -39 24 -9 158 16 170 32 6 8
21 15 32 15 33 0 75 70 80 133 3 42 0 57 -17 79 -46 58 -231 87 -456 71z
m-150 -89 c-20 -54 -70 -114 -94 -114 -12 0 -17 11 -19 43 -2 34 2 47 20 64
25 23 101 63 107 57 2 -2 -4 -24 -14 -50z m-220 -75 c12 -12 -3 -26 -37 -34
-24 -6 -28 -4 -28 14 0 13 -6 21 -17 21 -15 0 -16 2 -3 9 15 10 69 4 85 -10z
m650 -19 c-30 -32 -49 -37 -61 -18 -10 16 33 48 64 48 l26 0 -29 -30z m-925
-88 c0 -11 -97 -55 -110 -50 -15 5 26 57 54 68 21 7 56 -4 56 -18z m985 -1
c15 -6 12 -9 -19 -14 -43 -7 -66 1 -45 14 17 10 37 10 64 0z m-699 -103 c5 -7
7 -24 6 -39 -2 -24 2 -27 42 -33 46 -7 86 -29 74 -41 -4 -4 -22 -1 -40 8 -18
8 -49 18 -68 22 -24 4 -36 12 -36 23 -1 9 -4 29 -9 45 -5 21 -4 27 8 27 9 0
19 -5 23 -12z m32 -193 c53 -22 49 -39 -10 -43 -46 -3 -46 -3 -50 33 -3 22 0
34 6 31 6 -2 30 -12 54 -21z m-5 -146 c42 -11 42 -25 -1 -31 -24 -3 -28 -1
-25 13 4 12 -2 19 -19 22 -12 2 -16 5 -8 6 8 0 32 -4 53 -10z m52 -105 c79
-32 85 -55 15 -58 -36 -2 -49 2 -67 22 -20 22 -32 62 -18 62 3 0 34 -12 70
-26z m-41 -483 c32 -34 22 -46 -30 -36 -36 6 -50 24 -40 50 9 24 40 18 70 -14z
m114 -123 c-7 -20 -68 -23 -68 -4 0 12 10 16 36 16 24 0 34 -4 32 -12z m-74
-87 c10 -15 -85 -41 -107 -29 -26 13 -11 26 38 31 22 2 45 4 52 5 6 1 14 -2
17 -7z"/>
<path d="M2344 2510 c-43 -13 -87 -66 -114 -137 -36 -92 -37 -244 -6 -578 15
-157 31 -412 36 -580 12 -376 32 -541 72 -598 51 -72 130 -83 430 -58 128 11
303 23 388 26 214 8 428 33 470 53 67 32 80 119 33 212 -36 69 -50 78 -102 60
-38 -12 -43 -12 -64 9 -22 20 -28 21 -93 11 -70 -10 -702 -35 -710 -28 -2 2
-13 184 -24 404 -26 507 -25 502 -53 506 -19 3 -23 11 -28 68 -8 73 -5 82 15
54 28 -37 33 -1 25 196 -6 164 -11 207 -31 269 -30 96 -54 114 -146 118 -37 1
-81 -2 -98 -7z"/>
<path d="M1742 2494 c-33 -23 -27 -33 17 -27 22 3 51 3 65 -1 24 -6 26 -10 20
-44 -8 -52 20 -77 86 -77 27 0 52 4 56 8 5 4 -1 34 -11 65 -18 52 -23 57 -50
59 -16 0 -58 8 -91 17 -75 19 -65 19 -92 0z"/>
<path d="M1656 2434 c-22 -21 -20 -44 3 -44 26 0 66 34 57 48 -10 17 -42 15
-60 -4z"/>
<path d="M503 2429 c-53 -15 -103 -94 -103 -162 0 -15 3 -16 20 -7 27 14 25 3
-2 -20 l-23 -19 25 -9 24 -9 -28 -15 -28 -14 39 -12 c24 -7 60 -33 98 -72 33
-33 66 -60 73 -60 8 0 27 11 44 25 16 14 34 25 39 25 24 0 -1 -84 -28 -95 -25
-9 -94 15 -118 41 -13 14 -27 39 -30 55 -6 26 -11 29 -45 29 -37 0 -70 -20
-70 -42 0 -5 9 -23 20 -38 31 -43 36 -87 14 -111 -25 -27 -28 -154 -4 -170 17
-12 164 -4 223 12 51 14 56 7 16 -22 -41 -29 -124 -36 -197 -16 l-54 15 6 -42
c3 -22 8 -135 12 -251 5 -202 25 -389 45 -441 8 -22 13 -25 39 -19 27 6 32 4
41 -24 8 -23 17 -31 34 -31 45 0 77 -18 73 -43 -3 -20 -8 -22 -65 -22 -33 0
-64 -3 -68 -7 -8 -7 48 -123 73 -150 20 -23 27 -23 61 3 34 25 61 27 254 15
121 -8 139 -11 148 -28 6 -11 9 -21 7 -24 -3 -2 -45 4 -94 12 -100 18 -109 19
-215 16 -49 -1 -82 -7 -95 -17 -18 -15 -17 -17 31 -60 65 -59 165 -111 262
-136 120 -30 364 -25 458 11 15 6 48 10 74 10 64 0 190 34 264 72 164 82 273
278 307 553 15 116 8 543 -9 588 -6 16 -20 31 -30 34 -19 5 -19 5 0 36 22 37
24 118 6 207 -10 47 -15 55 -37 58 -20 3 -23 1 -12 -9 21 -22 14 -29 -28 -29
-22 0 -40 5 -40 10 0 6 22 25 50 42 27 17 47 34 45 38 -3 4 2 27 10 51 19 52
12 85 -11 54 -17 -22 -37 -15 -62 24 -15 22 -15 22 20 16 31 -6 38 -4 48 15 6
12 9 29 6 37 -6 14 -23 15 -126 10 -66 -3 -126 -9 -132 -13 -8 -5 -1 -17 21
-35 44 -37 23 -46 -37 -15 -45 23 -66 56 -36 56 19 0 74 50 74 67 0 13 -9 15
-52 10 -29 -3 -65 -10 -80 -16 -25 -9 -28 -16 -28 -53 0 -24 4 -48 8 -53 13
-19 130 -75 155 -75 17 0 28 7 32 20 6 20 7 20 26 -4 10 -13 19 -26 19 -29 0
-3 -35 -17 -77 -31 -57 -19 -89 -24 -117 -19 l-39 6 6 -127 c5 -99 10 -137 26
-169 l20 -41 -20 -14 c-29 -20 -19 -64 26 -113 38 -42 47 -76 18 -64 -31 13
-48 11 -44 -5 4 -15 8 -139 14 -430 2 -128 1 -140 -15 -140 -22 0 -32 -37 -26
-94 l5 -42 -76 -25 c-52 -16 -77 -29 -79 -42 -3 -14 5 -17 45 -18 26 0 71 -6
98 -13 l50 -12 -39 -12 c-22 -6 -50 -9 -61 -6 -12 3 -39 -2 -60 -10 -48 -20
-59 -20 -21 1 l29 15 -34 13 c-19 7 -42 16 -51 20 -10 4 -18 3 -18 -3 0 -5 7
-12 15 -16 22 -8 18 -36 -5 -36 -14 0 -19 6 -17 20 2 19 -4 20 -153 23 -131 3
-164 7 -211 25 -92 37 -131 77 -169 179 -18 48 -34 90 -37 92 -2 3 -17 -5 -33
-18 -25 -18 -30 -19 -30 -6 0 9 13 21 28 26 l29 10 -4 102 c-3 56 -8 126 -13
155 -5 28 -7 59 -4 67 11 29 -7 105 -32 134 -24 29 -24 30 -5 41 38 20 46 77
27 194 -9 57 -16 119 -16 135 0 35 -11 38 -63 16 -22 -9 -38 -11 -42 -5 -15
25 51 90 91 90 19 0 24 7 30 46 16 112 -30 253 -103 313 -54 45 -131 60 -200
40z m1335 -396 c2 -7 -3 -13 -11 -13 -9 0 -17 -6 -19 -12 -3 -7 -16 -14 -29
-15 -13 0 -34 -4 -46 -8 -36 -11 -29 22 10 45 34 22 88 23 95 3z m162 -84 c0
-6 -6 -9 -13 -6 -7 3 -21 -1 -32 -9 -22 -16 -55 -19 -55 -4 0 15 32 29 68 30
17 0 32 -5 32 -11z m-1472 -441 c29 -28 30 -68 1 -68 -11 0 -29 5 -40 10 -23
13 -52 67 -43 81 9 15 55 2 82 -23z m1480 -35 c-2 -13 -13 -18 -37 -18 -39 0
-54 21 -19 28 49 9 60 7 56 -10z"/>
<path d="M16460 2005 c-44 -31 -118 -45 -231 -45 -77 0 -89 -2 -89 -17 0 -9 9
-26 20 -38 17 -18 18 -25 8 -60 -18 -62 -12 -245 12 -365 32 -163 57 -176 330
-173 165 1 335 20 398 44 14 5 58 5 110 -1 114 -13 380 -13 462 1 127 20 190
79 190 176 0 48 -4 58 -30 83 -58 54 -113 65 -329 64 -175 -1 -195 -2 -207
-19 -11 -15 -26 -18 -89 -16 -54 2 -83 -2 -99 -12 -17 -11 -33 -13 -67 -6 -24
4 -94 8 -156 9 -105 0 -113 1 -142 26 -32 27 -39 52 -20 71 16 16 23 118 14
217 -6 80 -8 86 -28 85 -12 0 -38 -11 -57 -24z m-80 -225 c0 -26 -41 -87 -65
-98 -35 -16 -35 -16 -35 14 0 29 16 64 39 81 20 15 61 17 61 3z m205 -270 c7
-12 -44 -92 -63 -98 -10 -3 -9 3 3 22 15 22 16 31 6 52 -6 14 -11 27 -11 29 0
10 59 5 65 -5z m763 -82 c11 -41 -2 -47 -34 -17 -31 29 -31 49 1 49 19 0 26
-7 33 -32z"/>
<path d="M13944 1859 c-12 -20 13 -32 53 -24 35 6 37 8 18 21 -22 17 -61 18
-71 3z"/>
<path d="M11221 1734 c-48 -34 -98 -45 -217 -47 -95 -2 -104 -4 -104 -21 0
-11 7 -27 16 -37 13 -15 14 -27 3 -97 -14 -92 -1 -256 29 -377 17 -68 19 -71
67 -95 49 -24 55 -25 260 -24 169 0 227 4 295 20 47 10 114 18 150 17 362 -7
490 -6 542 6 107 23 168 87 168 173 0 43 -5 55 -33 83 -57 57 -122 70 -331 67
-162 -2 -182 -4 -200 -21 -18 -17 -34 -20 -102 -18 -56 1 -86 -2 -97 -12 -13
-10 -29 -11 -80 -2 -35 6 -105 11 -156 11 -139 0 -162 20 -135 118 13 47 15
78 8 167 -8 100 -11 110 -29 112 -11 1 -35 -9 -54 -23z m-87 -236 c-18 -60
-50 -98 -83 -98 -24 0 -11 62 18 91 37 36 76 40 65 7z m215 -263 c6 -6 -60
-105 -70 -105 -13 0 -11 17 2 26 7 4 9 22 6 45 -3 21 -2 41 1 44 6 6 53 -2 61
-10z m751 -69 c0 -14 5 -28 10 -31 15 -9 12 -25 -4 -25 -8 0 -26 14 -41 32
-25 30 -26 33 -9 39 33 13 44 9 44 -15z"/>
<path d="M21350 1419 c-240 -10 -299 -18 -380 -55 l-61 -27 -29 28 c-27 26
-33 27 -87 21 -32 -3 -260 -15 -508 -26 -247 -11 -504 -25 -570 -30 -66 -6
-244 -14 -395 -20 -357 -13 -521 -25 -659 -50 -101 -18 -126 -19 -238 -10 -88
8 -172 8 -286 0 -89 -5 -191 -9 -227 -8 -36 1 -101 -4 -145 -10 -44 -6 -217
-16 -385 -21 -340 -11 -577 -38 -540 -61 19 -12 -4 -21 -37 -14 -24 5 -29 10
-26 27 4 22 3 22 -109 16 -114 -7 -159 -18 -190 -46 -16 -14 -20 -13 -49 12
l-32 27 -12 -22 c-10 -19 -13 -20 -18 -6 -9 22 -34 20 -64 -4 -27 -21 -59 -27
-48 -10 3 6 -6 15 -20 20 -54 20 -277 10 -724 -35 -248 -25 -475 -45 -506 -45
-30 0 -55 -4 -55 -8 0 -5 18 -17 40 -27 22 -10 40 -22 40 -27 0 -14 -33 -9
-53 9 -18 17 -19 17 -28 0 -15 -26 -51 -57 -66 -57 -11 0 -10 -6 2 -31 15 -28
15 -34 0 -80 -10 -28 -15 -52 -13 -54 8 -8 652 15 828 30 102 9 298 20 435 24
138 5 414 19 615 31 l365 22 30 28 c31 29 85 50 85 33 0 -6 -14 -14 -32 -19
-66 -19 -41 -31 69 -32 118 -2 139 4 130 38 -4 15 5 35 29 67 19 24 34 49 34
54 0 14 24 11 46 -6 19 -14 19 -15 -3 -21 -30 -8 -29 -24 1 -24 23 0 25 -4 28
-52 l3 -53 75 3 c170 6 420 23 490 32 41 5 125 9 187 10 l111 0 7 30 c9 42 26
48 23 8 l-3 -33 69 1 c59 1 72 4 84 22 12 19 16 19 47 6 48 -20 81 -18 99 7
16 23 39 18 29 -6 -7 -20 19 -20 562 10 635 34 929 55 933 65 7 20 72 51 92
45 25 -8 26 -20 3 -35 -14 -8 21 -10 137 -6 338 13 1227 56 1259 61 l34 6 -7
76 c-3 42 -6 107 -6 145 l0 68 -102 -2 c-57 0 -195 -5 -308 -9z m-2856 -209
c25 -10 46 -24 46 -30 0 -12 -7 -12 -35 -1 -12 5 -25 4 -33 -2 -15 -12 -27 -2
-37 31 -8 27 0 28 59 2z m1826 11 c0 -16 -31 -41 -51 -41 -29 0 -23 27 9 38
35 14 42 14 42 3z m-2050 -50 c0 -5 -8 -19 -18 -32 -14 -16 -24 -20 -38 -15
-18 7 -17 9 9 32 29 25 47 31 47 15z m-1842 -77 c-13 -13 -14 -22 -6 -40 18
-38 -1 -42 -33 -6 -16 18 -29 36 -29 41 0 9 25 17 65 20 18 1 18 0 3 -15z
m753 6 c34 -19 22 -37 -28 -43 -27 -3 -58 -9 -70 -12 -15 -5 -23 -3 -23 4 0 6
7 11 15 11 9 0 20 11 25 25 10 27 45 34 81 15z m1158 -59 c8 -5 11 -16 7 -26
-5 -14 -14 -16 -47 -12 -47 6 -54 11 -46 32 7 17 63 21 86 6z m-1721 -83 c3
-15 -4 -18 -47 -18 -56 0 -66 13 -23 29 38 14 66 9 70 -11z m116 -7 c-5 -5
-26 -12 -48 -15 -29 -6 -37 -4 -34 6 3 7 22 15 44 18 43 6 52 4 38 -9z m621
-1 c-3 -5 -12 -10 -18 -10 -7 0 -6 4 3 10 19 12 23 12 15 0z m-2255 -30 c13
-8 13 -11 0 -24 -20 -20 -88 -48 -93 -38 -2 4 -7 19 -11 34 -6 25 -4 27 31 31
21 2 43 4 48 5 6 1 17 -3 25 -8z"/>
<path d="M14660 1070 c-25 -4 -64 -6 -86 -3 -36 5 -44 2 -53 -16 -15 -27 -31
-27 -31 0 0 18 -4 20 -27 15 -46 -11 -365 -27 -408 -21 -22 3 -76 0 -120 -6
-44 -5 -136 -12 -205 -14 -151 -4 -577 -40 -714 -60 -88 -13 -104 -13 -152 1
-42 12 -65 13 -108 5 -37 -7 -65 -7 -84 0 -23 8 -44 5 -103 -14 -41 -14 -82
-28 -91 -32 -12 -5 -18 -3 -18 7 0 35 -833 -12 -869 -48 -3 -3 1 -9 8 -13 18
-12 -3 -18 -41 -13 -24 4 -27 8 -22 28 6 23 5 23 -68 18 -160 -10 -180 -13
-215 -34 l-36 -21 -29 21 -29 21 -28 -30 c-16 -17 -38 -31 -49 -31 -11 0 -27
-3 -36 -6 -12 -5 -16 0 -16 20 0 15 -7 29 -16 33 -8 3 -93 1 -187 -4 -95 -6
-449 -25 -787 -42 -338 -17 -1051 -54 -1585 -82 -533 -28 -1069 -52 -1190 -54
-172 -2 -319 -13 -675 -50 -250 -25 -465 -44 -477 -42 -36 7 -27 -11 18 -34
29 -14 38 -24 31 -31 -7 -7 -19 -4 -40 10 l-29 21 -11 -24 c-7 -14 -25 -33
-41 -43 -29 -17 -30 -20 -15 -40 14 -20 14 -27 -1 -73 -10 -28 -14 -53 -11
-56 9 -10 704 16 891 32 88 7 164 10 169 5 4 -4 21 -4 37 0 15 5 104 11 196
14 239 9 312 16 363 35 38 14 52 14 90 4 25 -6 63 -12 84 -12 54 -1 166 19
166 30 0 5 -4 9 -10 9 -21 0 -9 15 13 16 12 1 38 5 58 9 29 6 37 4 43 -10 5
-15 2 -16 -29 -11 -28 6 -35 4 -35 -9 0 -19 -34 -19 570 5 503 20 695 31 990
55 91 8 446 28 790 45 344 17 816 41 1049 54 l423 24 27 26 c28 27 91 52 91
36 0 -5 -16 -14 -35 -20 -19 -6 -35 -17 -35 -23 0 -14 207 -17 228 -3 9 5 11
18 7 37 -4 17 -2 29 4 29 5 0 22 21 37 48 15 26 29 48 30 50 4 6 44 -19 44
-27 0 -5 -10 -12 -22 -16 l-23 -8 23 -4 c19 -4 22 -11 22 -47 0 -28 6 -48 16
-57 14 -11 146 -5 823 39 443 29 916 55 1051 58 372 7 464 15 532 46 32 15 66
24 77 21 22 -6 71 20 71 38 0 6 -9 8 -21 4 -20 -7 -21 -5 -15 28 6 35 6 35
-34 42 -22 4 -40 10 -40 13 0 4 21 34 45 66 25 33 45 63 45 68 0 10 -98 8
-160 -2z m-1405 -161 c0 -20 -6 -25 -32 -27 -38 -4 -42 9 -11 38 27 25 43 21
43 -11z m740 -28 c19 -7 18 -10 -12 -39 -45 -45 -83 -43 -49 3 8 11 12 25 9
32 -6 14 20 16 52 4z m-2809 -60 c-14 -16 -15 -23 -6 -41 19 -36 6 -44 -28
-15 -39 33 -40 50 -4 63 46 17 58 15 38 -7z m762 -3 c19 -19 14 -28 -17 -28
-16 0 -47 -7 -70 -15 -26 -9 -41 -10 -41 -4 0 6 9 13 20 16 11 3 20 14 20 24
0 15 7 19 38 19 21 0 43 -5 50 -12z m1562 -33 c0 -8 -7 -15 -17 -15 -9 0 -40
-8 -69 -17 -51 -16 -55 -16 -74 2 -34 30 -24 37 49 29 43 -4 75 -2 87 5 24 14
24 14 24 -4z m-3107 -42 c-5 -12 -2 -15 8 -11 58 24 55 24 38 -2 -9 -14 -23
-26 -30 -28 -16 -3 -42 34 -34 48 10 17 25 11 18 -7z m975 -60 c3 -9 -11 -13
-50 -13 -49 1 -52 2 -33 16 23 17 76 15 83 -3z m112 -8 c-13 -16 -80 -21 -80
-6 0 13 19 19 59 20 29 1 32 -1 21 -14z m620 -5 c0 -5 -2 -10 -4 -10 -3 0 -8
5 -11 10 -3 6 -1 10 4 10 6 0 11 -4 11 -10z m-5865 -219 c7 -12 -40 -49 -72
-57 -28 -7 -28 -7 -37 28 -5 20 -2 28 11 31 33 9 92 7 98 -2z"/>
<path d="M5800 603 c-47 -9 -127 -15 -178 -14 -185 3 -831 -38 -962 -61 -69
-12 -134 -21 -145 -21 -11 1 -83 4 -160 8 -102 5 -229 1 -465 -14 -228 -15
-2001 -111 -2046 -111 -1 0 0 -15 3 -34 3 -19 1 -36 -6 -40 -21 -13 -11 -24
30 -31 41 -7 49 -17 65 -80 6 -25 5 -25 -57 -25 -74 0 -189 19 -189 31 0 4 10
14 22 20 34 17 78 61 78 77 0 11 -10 13 -45 10 -53 -6 -57 1 -12 22 56 26 41
44 -33 41 -230 -8 -1162 -61 -1170 -66 -6 -3 -10 -13 -10 -21 0 -16 -17 -19
-22 -3 -7 20 -68 24 -205 14 l-137 -10 3 -140 c1 -77 6 -143 9 -147 4 -4 323
10 709 30 l702 37 43 43 c25 24 53 42 66 42 33 0 27 -14 -20 -45 -24 -16 -37
-30 -31 -32 22 -8 2356 116 2422 128 36 7 120 11 187 10 l123 -1 9 32 c11 42
27 46 27 6 0 -25 4 -33 18 -32 9 0 37 1 62 2 29 1 52 9 64 21 18 18 23 19 67
5 40 -12 51 -12 68 0 26 16 42 15 38 -3 -3 -11 12 -13 85 -7 48 3 273 15 498
26 420 21 470 27 557 71 23 12 38 15 40 8 3 -8 16 -6 41 4 40 17 49 37 17 37
-16 0 -20 7 -20 34 0 31 -2 34 -40 40 l-40 6 51 65 c28 35 48 69 44 75 -8 13
-52 11 -155 -7z m-1322 -133 c50 -23 57 -43 10 -30 -19 6 -36 6 -43 0 -14 -12
-35 7 -35 32 0 23 14 22 68 -2z m1286 -22 c-6 -33 -4 -44 11 -54 17 -13 17
-14 0 -20 -27 -11 -47 22 -39 66 8 41 12 50 25 50 5 0 6 -17 3 -42z m-1533
-37 c-13 -18 -27 -28 -36 -24 -23 8 -18 22 17 43 41 24 46 19 19 -19z m94
-121 c0 -10 -12 -16 -40 -18 -44 -3 -71 10 -60 27 11 18 100 10 100 -9z
m-3741 -218 c5 -3 1 -11 -8 -18 -14 -10 -24 -10 -44 -1 -36 15 -35 14 -27 27
6 10 57 6 79 -8z"/>
</g>
</svg>
